<svg xmlns="http://www.w3.org/2000/svg" viewBox="0 0 500 500"><g id="freepik--background-complete--inject-2"><path d="M158.32,71.88h93.09S242.18,46.67,228,46.67s-18.65,17.4-18.65,17.4-9.58-9.45-17.45-9.45-14.72,12.49-14.72,12.49S166,60.39,158.32,71.88Z" style="fill:#ebebeb"></path><path d="M247.34,156h43.5s-9.72-14.08-17.38-14.08-9.92,9.38-9.92,9.38-5.4-4.38-10.41-3.6S247.34,156,247.34,156Z" style="fill:#ebebeb;opacity:0.5"></path><path d="M45.59,127.8h43.5s-9.72-14.08-17.38-14.08-9.92,9.39-9.92,9.39-5.41-4.38-10.41-3.6S45.59,127.8,45.59,127.8Z" style="fill:#ebebeb;opacity:0.5"></path><path d="M369.68,167.25h84.73s-11.6-25.91-24-27.52S412.05,159,412.05,159s-8-7.37-14.3-7.37-11.16,9.71-11.16,9.71S374,154.66,369.68,167.25Z" style="fill:#ebebeb"></path><path d="M350.58,93.63h57.23s-9.83-18.77-20.5-19S371,88.79,371,88.79,354.45,75.48,350.58,93.63Z" style="fill:#ebebeb;opacity:0.5"></path><g id="freepik--aiZGp2--inject-2"><path d="M281.93,270.07a27.68,27.68,0,0,0-1.87,8.52h-7.54v-.2l.06-.58a19.93,19.93,0,0,1,.5-3,22.64,22.64,0,0,1,1.67-4.65.17.17,0,0,1,.18-.11h7Z" style="fill:#ebebeb"></path><path d="M281.7,289.1h-6.93a.16.16,0,0,1-.17-.11,20.64,20.64,0,0,1-1.72-5.24,19.8,19.8,0,0,1-.34-2.65.3.3,0,0,1,0-.1v-.2h7.41c.14,0,.13,0,.14.13.05.61.09,1.22.14,1.82a25.44,25.44,0,0,0,.47,2.86,26.77,26.77,0,0,0,1,3.39A.66.66,0,0,1,281.7,289.1Z" style="fill:#ebebeb"></path><path d="M310.86,291.3s0,.07-.06.1a21.13,21.13,0,0,1-2,2.55A19.07,19.07,0,0,1,306,296.6a20.13,20.13,0,0,1-3.28,2,19.69,19.69,0,0,1-3.46,1.35,21.86,21.86,0,0,1-2.89.62l-.28,0h-.17l-.16-.1.18-.13a22.22,22.22,0,0,0,5.47-5.3,24.49,24.49,0,0,0,2.23-3.71.17.17,0,0,1,.18-.11h7.09Z" style="fill:#ebebeb"></path><path d="M303.92,278.58h-9.74v-8.51h7.61a.14.14,0,0,1,.15.1,23.65,23.65,0,0,1,1.55,5,24.67,24.67,0,0,1,.37,2.7Z" style="fill:#ebebeb"></path><path d="M303.86,280.85c0,.2,0,.4,0,.6,0,.48-.07.95-.14,1.42-.09.65-.19,1.31-.32,1.95a23.2,23.2,0,0,1-1.26,4.16.16.16,0,0,1-.18.12h-7.81v-8.25Z" style="fill:#ebebeb"></path><path d="M292,270.12v8.52h-9.51c0-.21,0-.42,0-.63.05-.48.09-1,.16-1.43.12-.72.24-1.45.4-2.16a22.18,22.18,0,0,1,1.37-4.2.15.15,0,0,1,.16-.1H292Z" style="fill:#ebebeb"></path><path d="M292,281c0,2.68,0,5.35,0,8v.12h-7.6a.16.16,0,0,1-.17-.11,21.54,21.54,0,0,1-1.3-4.3c-.14-.75-.25-1.52-.34-2.28-.07-.5-.08-1-.11-1.51,0,0,0,0,0,0h9.4C292,280.84,292,280.87,292,281Z" style="fill:#ebebeb"></path><path d="M314.25,278.64h-8a27.47,27.47,0,0,0-1.86-8.57h7.44a.16.16,0,0,1,.17.11,20.53,20.53,0,0,1,1.84,5.33,23.23,23.23,0,0,1,.39,3Z" style="fill:#ebebeb"></path><path d="M314.26,280.79l0,.56c-.05.72-.14,1.43-.26,2.15a21.23,21.23,0,0,1-1.47,4.79l-.34.73c0,.06-.05.08-.12.08h-7.41c.09-.25.18-.5.26-.75a24.92,24.92,0,0,0,1-3.89,23.25,23.25,0,0,0,.34-2.89c0-.23,0-.46,0-.69,0-.06,0-.09.09-.08h7.91Z" style="fill:#ebebeb"></path><path d="M310.64,267.89l0,0h-7.08a.15.15,0,0,1-.16-.1,24.55,24.55,0,0,0-3.47-5.14,19.92,19.92,0,0,0-2.66-2.45c-.47-.36-1-.71-1.45-1.06l-.09-.06.1-.07s0-.08-.05-.15a20.63,20.63,0,0,1,7.06,2.12A20.33,20.33,0,0,1,310.64,267.89Z" style="fill:#ebebeb"></path><path d="M290.64,300.55a1,1,0,0,1-.21,0,19.35,19.35,0,0,1-2.27-.44,20.53,20.53,0,0,1-8.18-4.21,20.83,20.83,0,0,1-2.49-2.48A21.59,21.59,0,0,1,276,291.3l0-.07h6.62c.09,0,.12,0,.16.11a24.6,24.6,0,0,0,2.39,3.89,24.2,24.2,0,0,0,2.8,3.1,21.74,21.74,0,0,0,2.7,2.17Z" style="fill:#ebebeb"></path><path d="M290.55,259.11c-.3.22-.65.46-1,.72a24.25,24.25,0,0,0-3.14,2.94,21.5,21.5,0,0,0-3.31,4.71c-.06.11-.11.22-.17.32a.18.18,0,0,1-.1.07h-6.71A20.76,20.76,0,0,1,290.48,259l-.05.08Z" style="fill:#ebebeb"></path><path d="M301,291.3a22.69,22.69,0,0,1-3.22,4.35,20.27,20.27,0,0,1-3.67,3.12V291.3Z" style="fill:#ebebeb"></path><path d="M292,291.3v7.33a21.32,21.32,0,0,1-6.61-7.33Z" style="fill:#ebebeb"></path><path d="M300.8,267.86h-6.62v-7A20.61,20.61,0,0,1,297.9,264,24,24,0,0,1,300.8,267.86Z" style="fill:#ebebeb"></path><path d="M292,261.1v6.82h-6.35A20.13,20.13,0,0,1,292,261.1Z" style="fill:#ebebeb"></path></g><path d="M214.13,238.63a4.8,4.8,0,1,1-4.8-4.8A4.8,4.8,0,0,1,214.13,238.63Z" style="fill:#ebebeb"></path><path d="M196.79,249.29a4.81,4.81,0,1,1-4.81-4.81A4.8,4.8,0,0,1,196.79,249.29Z" style="fill:#ebebeb"></path><path d="M214.13,259.94a4.8,4.8,0,1,1-4.8-4.8A4.8,4.8,0,0,1,214.13,259.94Z" style="fill:#ebebeb"></path><polyline points="209.33 238.63 191.98 249.29 209.33 260.48" style="fill:none;stroke:#ebebeb;stroke-miterlimit:10;stroke-width:2px"></polyline></g><g id="freepik--Water--inject-2"><path d="M461.14,216H246.81c-16.18,0-.12,5.42,13.28,6s53.94,3.48,53.8,7.24-21.44,8.11-21.44,13.75,62,10.11,64.78,13.37-6.67,4.28-2.54,7.7c3.09,2.56,46.92,5,65.2,8.61,6.09,1.19-3.71,7.17,6,12.12,4.38,2.22,35.21,4.05,35.21,4.05Z" style="fill:#ebebeb"></path><path d="M461.14,216h-189c-14.27,0-.11,5.42,11.71,6s47.55,3.48,47.43,7.24-18.9,8.11-18.9,13.75,54.69,10.11,57.11,13.37-5.88,4.28-2.24,7.7c2.73,2.56,41.38,5,57.49,8.61,5.37,1.19-3.27,7.17,5.33,12.12,3.86,2.22,31,4.05,31,4.05Z" style="fill:#dbdbdb"></path><path d="M276.77,217.36a10,10,0,0,0,2.09.44l2.12.27,4.26.44,8.53.82c5.69.53,11.37,1.12,17.06,1.71s11.36,1.29,17,2.29a20.81,20.81,0,0,1,4.22,1.09,8.92,8.92,0,0,1,1.91,1.1,3.09,3.09,0,0,1,1.3,1.87,2.84,2.84,0,0,1-.7,2.14A8.36,8.36,0,0,1,333,231a24.07,24.07,0,0,1-3.66,2.24,29.28,29.28,0,0,0,3.5-2.45,8.22,8.22,0,0,0,1.43-1.52,2.35,2.35,0,0,0,.52-1.83,2.62,2.62,0,0,0-1.15-1.51,8.34,8.34,0,0,0-1.82-1,20.9,20.9,0,0,0-4.1-.91c-5.63-.84-11.31-1.46-17-2.06s-11.36-1.25-17-1.94l-8.51-1.1-4.23-.66A22.06,22.06,0,0,1,276.77,217.36Z" style="fill:#fff"></path><path d="M336.36,241.23a20.36,20.36,0,0,0,4.23.93c1.43.21,2.87.36,4.31.49,2.88.26,5.76.43,8.65.59,5.78.33,11.56.56,17.34.82s11.57.56,17.35,1.07c1.44.14,2.89.29,4.33.51.73.11,1.45.23,2.18.39a7,7,0,0,1,2.17.82,1.79,1.79,0,0,1,.89,1.14,1.59,1.59,0,0,1-.61,1.37,9.54,9.54,0,0,1-1.93,1.24c-1.32.68-2.65,1.24-3.95,1.84a27.5,27.5,0,0,0-3.76,2,6.8,6.8,0,0,0-1.54,1.31,2.13,2.13,0,0,0-.6,1.63c0,.44.57.86,1.15,1.17a11.88,11.88,0,0,0,1.94.77,38.26,38.26,0,0,0,4.16,1c5.65,1.08,11.42,1.67,17.16,2.36s11.51,1.23,17.23,2.2a39,39,0,0,1,4.26.94,7.85,7.85,0,0,1,2,.84,2.5,2.5,0,0,1,.76.83,5.42,5.42,0,0,1,.52,1,7.49,7.49,0,0,1,.2,4.32,13.81,13.81,0,0,1-1.6,4,13.8,13.8,0,0,0,1.48-4.05,7.44,7.44,0,0,0-.29-4.21,5.23,5.23,0,0,0-.51-.93,2.19,2.19,0,0,0-.71-.74,7.74,7.74,0,0,0-2-.76,42.89,42.89,0,0,0-4.24-.82c-5.71-.83-11.48-1.32-17.24-1.89s-11.53-1.15-17.25-2.21a40.17,40.17,0,0,1-4.27-1,13.22,13.22,0,0,1-2.1-.82,4.48,4.48,0,0,1-1-.68,1.83,1.83,0,0,1-.66-1.21,3,3,0,0,1,.8-2.35,8.25,8.25,0,0,1,1.74-1.51,29.1,29.1,0,0,1,3.88-2.09c1.32-.62,2.65-1.19,3.92-1.83a8.46,8.46,0,0,0,1.71-1.08c.24-.2.35-.43.32-.5s-.19-.31-.45-.47a11.68,11.68,0,0,0-4-1.1c-1.41-.22-2.85-.38-4.28-.52-5.74-.56-11.53-.84-17.3-1.2s-11.56-.67-17.33-1.1c-2.89-.23-5.77-.49-8.65-.83-1.44-.17-2.88-.36-4.3-.6A20.2,20.2,0,0,1,336.36,241.23Z" style="fill:#fff"></path><path d="M375.36,236.89q8.67.12,17.33,1c2.88.26,5.76.65,8.62,1.14a35.28,35.28,0,0,1,8.48,2.32,4.49,4.49,0,0,1,1.87,1.53,3.69,3.69,0,0,1,.4,2.43,4.53,4.53,0,0,1-1.12,2.12,10.75,10.75,0,0,1-1.68,1.5c-.6.45-1.21.85-1.8,1.25a8.3,8.3,0,0,0-1.57,1.28c-.19.25-.23.41-.16.55a1.19,1.19,0,0,0,.62.47,10,10,0,0,0,2,.62,69,69,0,0,0,8.54,1.13c2.88.27,5.76.44,8.65.61a100,100,0,0,1-17.35-1,9.66,9.66,0,0,1-2.17-.61,2.7,2.7,0,0,1-.55-.3,1.67,1.67,0,0,1-.49-.56,1.25,1.25,0,0,1-.09-.83,1.79,1.79,0,0,1,.33-.63,8.45,8.45,0,0,1,1.75-1.48c.6-.42,1.19-.82,1.76-1.24a5.72,5.72,0,0,0,2.41-3.07,2.75,2.75,0,0,0-.31-1.76,3.73,3.73,0,0,0-1.47-1.14,34.14,34.14,0,0,0-8.19-2.31c-2.83-.53-5.69-.9-8.55-1.29s-5.73-.67-8.61-.95S378.24,237.14,375.36,236.89Z" style="fill:#fff"></path></g><g id="freepik--Beach--inject-2"><path d="M183.1,215.87s6.33-10.26,6.6-17.46c.29-7.86-4.51-16.25-4.51-16.25l.37-.3s6.78,8.63,6.13,17.72c-.62,8.8-5.74,16.29-5.74,16.29Z" style="fill:#263238"></path><path d="M185.26,181.86s4-3.61,5.9-3.5,5.66,4.37,5.66,4.52-3.25-2.26-3.25-2.26l1.9,2.46-2.72-2.52.88,2.11L192,180.33l.44,2.22L191,180.41l.75,1.65-1.19-1.34.44,1.19-1-1.06.82,1.53L189.41,181l.55,1.23-.82-.85c-.11-.12.24.82.24.82L188.23,181l.27,1.06-.59-.62.12.62-.59-.62.13.56-.89-.59.12.29Z" style="fill:#263238"></path><path d="M185.29,181.83s6.46.69,8,1.87,3.81,5.15,3.81,5.15l-3.25-3.32,1.61,3.32-2.31-3.54.47,2.93-1.7-3.31.64,2.9-1.23-3.31.4,3.16-1.48-3.46.41,2.49-1.26-2.78.47,2.46-1.7-3.22.64,2.75-1.25-3,.17,1.44-1-1.76.34,1.17L186,182.27l.14,1Z" style="fill:#263238"></path><path d="M185.32,181.86s.35-4.45,1.52-5.48,5-2.19,5-2.19l-2.28,1.11,2.28-.2-3.1.64,2.49.15-2.69.32,2.54.67-2.81-.2,1.49.53-1.87.17,2.17.29-2.55.36h1.78l-2.49.64a11.21,11.21,0,0,1,1.74,0,11.62,11.62,0,0,1-1.94.59l1.06.14-1.21.21.91.35-1.17,0,.91.23-1,.27.41.17-.76.37Z" style="fill:#263238"></path><path d="M185.38,181.81s-2,3.38-1.57,5.73,3.11,6.53,3.11,6.53l-1.32-2.66,1.84,1.7-2.06-2.67,2.06,1.2-1.85-1.87,1.68.61-1.53-1.44,1.7.65-1.7-1.32,1.53.38-2-1.29,1.88.58-1.44-.87,1.35.2-1.68-1,1.39.06-1.7-1.09,1.58.41-1.55-.91,1.29.09s-1.06-.79-1.12-.79l1,.18-.89-1,.48-.09Z" style="fill:#263238"></path><path d="M185.32,181.86s-1.91-4.37-3.75-5.31a13.38,13.38,0,0,0-5.12-.86l2.33.51-2.13.18,3.46.33-3.3.29,4.08.45-3.65.27,3.06.53-1.62.41,2.42-.1-2,.41,2.62.3-1.84.45H183l-1.84.52,2,0-1.21.32s1.72.37,1.86.37-1,.08-1,.08l1.9.39-.65.06Z" style="fill:#263238"></path><path d="M185.29,181.81s.07-5.42-.73-6.81a4.85,4.85,0,0,0-2.58-1.89l1.39,1.08L182,174l1.45.88-1.56-.12,1.87.82-1.52-.18,1.4.65-.93,0,1.3.76-1.11-.26,1.25.88-1.15-.31,1.41,1-1-.33,1.35,1-1-.3,1,.66-.61-.11.8.66-.68-.31.8.82-.49-.18Z" style="fill:#263238"></path><path d="M185.38,182s-6.14-1.92-8.89-1-4.07,4.21-4.07,4.21l2-2-.63,2.16,1.76-2.59-.49,2.42,1.17-2.44-.41,2.52,1.35-2.66-.29,2.75,1.33-2.91-.35,2.11,1.32-2.42-.72,2.85,1.53-2.85-.43,2.48c0-.12,1.09-2.34,1.09-2.34l-.2,1.62.84-1.53-.15,1.18,1-1.41-.33,1.33,1-1.33-.16.8a13.22,13.22,0,0,1,1.05-.85C183.72,182,185.38,182,185.38,182Z" style="fill:#263238"></path><path d="M185.38,181.86s-3.53.92-4.63,2.46-.1,7.37-.1,7.37l0-3.36.75,1.6-.61-2.46,1.21,1.72-1.09-2.74,1.29,2-.94-2.71,1.19,1.95-.74-2.62,1,2-.38-2.48.73,1.51-.34-1.94.63,1.14-.2-1.66.39.91.18-1.19,0,.65.39-1.28v.65l.45-.86Z" style="fill:#263238"></path><path d="M182.47,215.87h7.15s-.46-2.54,2.82-3.75a4.43,4.43,0,0,0-3.37,2.15s1.61-4.3,5.08-5.08a8.88,8.88,0,0,0-6,4.73s-.7-3.76,4.45-5.84c0,0-4.66.35-6.43,6.15,0,0,.94-5-2.93-7.15,0,0,2.43,2.38,2.07,5.39a5.3,5.3,0,0,0-5.54-3.51s4.37,1.4,4.72,4.37a5.57,5.57,0,0,0-4-2.42S182.67,212,183,213c0,0-1.41-1.29-2.62-.63C180.4,212.39,183,212.75,182.47,215.87Z" style="fill:#263238"></path><path d="M101.75,215.87s4.58-7.41,4.77-12.62c.22-5.67-3.25-11.74-3.25-11.74l.26-.21s4.9,6.24,4.43,12.8a26.94,26.94,0,0,1-4.15,11.77Z" style="fill:#263238"></path><path d="M103.32,191.3s2.91-2.62,4.26-2.53,4.09,3.15,4.09,3.26-2.35-1.63-2.35-1.63l1.38,1.78-2-1.82.63,1.52-1.14-1.69.32,1.61-1.08-1.55.54,1.19-.86-1,.32.86-.75-.76.6,1.1-1-1,.4.89s-.5-.53-.59-.61.17.59.17.59l-.82-.84.19.76-.43-.45.09.45-.43-.45.1.41-.65-.43.09.21Z" style="fill:#263238"></path><path d="M103.34,191.28s4.67.5,5.79,1.34a17.25,17.25,0,0,1,2.75,3.73l-2.35-2.4,1.17,2.4L109,193.79l.34,2.12-1.23-2.4.47,2.1-.89-2.39.29,2.28-1.07-2.5.29,1.8-.91-2,.34,1.78-1.23-2.33.47,2-.9-2.14.12,1-.69-1.27.24.85-.78-1.11.1.68Z" style="fill:#263238"></path><path d="M103.36,191.3s.25-3.22,1.1-4a14.94,14.94,0,0,1,3.62-1.59l-1.65.81,1.65-.15-2.24.46,1.8.11-1.94.23,1.83.49-2-.15,1.08.38-1.36.13,1.57.21-1.84.26h1.29l-1.8.46a7.56,7.56,0,0,1,1.26,0,8.3,8.3,0,0,1-1.41.43l.77.1-.88.15.66.25-.85,0,.66.17-.72.19.3.13-.55.27Z" style="fill:#263238"></path><path d="M103.4,191.26s-1.47,2.45-1.13,4.14a20.63,20.63,0,0,0,2.24,4.72l-1-1.93,1.33,1.23-1.49-1.92,1.49.86L103.56,197l1.21.44-1.1-1,1.22.46-1.22-.95,1.1.27-1.44-.93,1.35.42-1-.63,1,.15-1.22-.72,1,0-1.23-.78,1.14.29-1.12-.65.93.06s-.76-.57-.8-.57l.72.13-.65-.7.35-.07Z" style="fill:#263238"></path><path d="M103.36,191.3s-1.38-3.16-2.71-3.84a9.64,9.64,0,0,0-3.7-.62l1.68.37-1.54.12,2.5.24-2.38.21,3,.33-2.64.2,2.21.38-1.17.29,1.75-.07-1.45.3,1.89.21-1.33.33h2.29l-1.33.38,1.42,0-.88.23s1.24.26,1.34.26l-.73.06,1.37.28-.47,0Z" style="fill:#263238"></path><path d="M103.34,191.26s0-3.92-.53-4.92A3.51,3.51,0,0,0,101,185l1,.78-1-.13,1,.64-1.13-.09,1.36.6-1.1-.13,1,.46-.67,0,.94.55-.8-.18.9.63-.83-.22,1,.7-.74-.24,1,.7-.72-.22.73.48-.43-.08.58.48-.5-.23.58.6-.35-.13Z" style="fill:#263238"></path><path d="M103.4,191.37S99,190,97,190.66a5.76,5.76,0,0,0-2.94,3l1.41-1.45L95,193.81l1.27-1.87-.35,1.75.85-1.77-.3,1.82,1-1.92-.21,2,1-2.1-.25,1.52,1-1.74-.52,2.06,1.1-2.06s-.33,1.87-.31,1.79.79-1.7.79-1.7l-.14,1.17.6-1.1-.11.85.71-1-.25.95.71-.95-.11.57s.68-.59.75-.61S103.4,191.37,103.4,191.37Z" style="fill:#263238"></path><path d="M103.4,191.3s-2.55.66-3.34,1.77-.07,5.33-.07,5.33l0-2.43.54,1.16-.44-1.78.88,1.24-.79-2,.93,1.46-.68-2,.86,1.41-.53-1.89.72,1.46-.27-1.79.52,1.09-.24-1.4.45.82-.14-1.2.28.66.13-.86,0,.47.28-.92v.47l.33-.63Z" style="fill:#263238"></path><path d="M101.3,215.87h5.17s-.33-1.83,2-2.71a3.17,3.17,0,0,0-2.43,1.55s1.16-3.1,3.67-3.67a6.43,6.43,0,0,0-4.36,3.42s-.51-2.72,3.22-4.22c0,0-3.37.25-4.64,4.45,0,0,.67-3.65-2.12-5.17a5.24,5.24,0,0,1,1.49,3.9,3.82,3.82,0,0,0-4-2.54s3.16,1,3.41,3.16a4,4,0,0,0-2.91-1.75s1.61.76,1.87,1.52c0,0-1-.93-1.89-.45C99.81,213.36,101.67,213.61,101.3,215.87Z" style="fill:#263238"></path><path d="M132.13,216H137s-8.29-7-9.6-14,1.05-10,1.05-10l-.5-.3a15.9,15.9,0,0,0-1.41,10.41C127.81,207.91,132.13,216,132.13,216Z" style="fill:#263238"></path><path d="M128,192.26s-4.42,1.64-5.83,3-1.74,6.6-1.74,6.6l.93-3.69-.4,3.15,1.14-4.05-.1,4,.77-5,.07,4.09.5-4.32.37,3.29.17-3.5.33,2.69.4-3.26-.1,2.92.91-3.35-.17,2.11,1-2.31-.35,1.74.73-2.18-.16,1.21Z" style="fill:#263238"></path><path d="M128,192.26s2.58,1.51,3,3.62-.54,6.43-.54,6.43l0-3.42-.86,2.28.49-3.31-.84,2.44.35-3.27-.78,1.73.53-2.78-.84,1.31L129,195l-.87,1.34.5-2.42-.67,1.14.33-1.84-.53.74.37-1.17Z" style="fill:#263238"></path><path d="M127.78,192.66s-1.75-3.15-4.53-4.12a8.58,8.58,0,0,0-5.79.47l3.25-.2-2.18.84,3.15-.31-2.41,1.28,3.35-.84s-2.11,2.08-2,1.94,2.58-1.71,2.58-1.71l-1.44,2.25,2.24-1.83-1.37,2.23,2.07-1.67L123,192.93l2.48-1.21L124.19,193l1.84-.77-.8.77,1.58-.77Z" style="fill:#263238"></path><path d="M128,192.26s.27-5.16-.91-7.57-5.16-3.62-5.16-3.62l2.68,2.11-2.68-1,3,1.64s-2.48-.43-2.58-.47l3,1.14-3-.07,3.08.67-2.78.11,2.91.67-2.91.1,3.6.73-3-.23,3,.9-2.53-.1,2.85,1-2.35-.2,2.48.77-1.51-.1,1.85.77-1.38.07,1.54.44-1,.16,1.22.51h-1.37l1.37.7Z" style="fill:#263238"></path><path d="M128,192.66s2.61-1.44,4.72-1.14,4.83,2.62,4.83,2.62l-1.74-.88.83,1.45-1.44-1.62.47,2.12-.94-2-.06,1.81-1-2v1.88l-.81-1.88.07,2.18-1-2.18-.13,1.54-.51-1.81L131,194l-.46-1.14-.37,1-.27-1.27-.24,1-.46-.91Z" style="fill:#263238"></path><path d="M128,192.09s-.32-4.69.68-6.7,4.26-4.16,4.26-4.16L131,183.38l2.12-.57-2.59,1.34H133l-2.71.57a12.76,12.76,0,0,0,1.84.74c.2,0-2.18-.3-2.18-.3l1.69,1.2-2.06-.53,1.85,1-2-.3,1.49.69-1.76-.07s1.23.59,1.28.59l-1.54-.08,1.34.83-1.38-.08,1.21.57-1.22,0,.82.3-1,.23,1,.1-1,.25.88.19-.92.13.66.22-.86.15.5.3-.65.22.35.15Z" style="fill:#263238"></path><path d="M128,192.66s1.92-4.3,4-5.61,6.94-.83,6.94-.83l-3.9.68L138,188l-3.64-.48,2.49,1.18-3.34-.8,2.26,1.36-3.29-1,2.61,1.63-3.22-1.21,2.06,1.89-2.51-1.51,1.93,1.81L131,189.51l1.26,1.76L130.55,190l1.06,1.49-1.46-1.06.87,1.28-1.25-.73.78,1.1-1.31-.74.86.91s-1.13-.54-1.21-.54.51.54.51.54l-.78-.17Z" style="fill:#263238"></path><path d="M129.18,216s.3-1.91-2.36-4a5,5,0,0,1,2.64,2.44,4.49,4.49,0,0,0-3.32-4,4.7,4.7,0,0,1,4.07,3.21s-.2-3.54-3-5.1c0,0,2.69,1,4,4.91a8.23,8.23,0,0,1,5.15-3.22s-3.11,1.25-3.15,3.66c0,0,2.27-3,5.09-2.81,0,0-3.22.86-3.22,3.14a3.63,3.63,0,0,1,3.42-1.83s-3.54,1.4-2,3.54Z" style="fill:#263238"></path><path d="M209.37,216h4.15s-7.07-6-8.18-11.91.9-8.48.9-8.48l-.43-.26a13.51,13.51,0,0,0-1.2,8.87C205.68,209.1,209.37,216,209.37,216Z" style="fill:#263238"></path><path d="M205.83,195.76s-3.77,1.4-5,2.51-1.49,5.63-1.49,5.63l.8-3.14-.34,2.68,1-3.45-.09,3.39.66-4.28.06,3.48.43-3.68.31,2.81.14-3,.29,2.28.34-2.77-.08,2.49.77-2.86-.15,1.8.84-2-.29,1.49.62-1.86-.14,1Z" style="fill:#263238"></path><path d="M205.83,195.76s2.19,1.28,2.51,3.08a20.85,20.85,0,0,1-.46,5.49l0-2.92-.73,2,.42-2.83-.72,2.08.3-2.78-.67,1.47.46-2.37L206.2,200l.51-1.94-.74,1.14.43-2.05-.57,1,.28-1.57-.46.63.32-1Z" style="fill:#263238"></path><path d="M205.65,196.1a8.41,8.41,0,0,0-3.85-3.51,7.31,7.31,0,0,0-4.94.4l2.77-.17-1.86.71,2.69-.26-2.06,1.09,2.86-.71s-1.8,1.77-1.72,1.65,2.2-1.46,2.2-1.46l-1.23,1.92,1.92-1.56-1.17,1.9,1.77-1.43-1.43,1.66,2.11-1-1.11,1.12,1.57-.66-.69.66,1.35-.66Z" style="fill:#263238"></path><path d="M205.83,195.76s.22-4.4-.78-6.46-4.39-3.08-4.39-3.08l2.28,1.8-2.28-.89,2.59,1.4s-2.11-.37-2.19-.4l2.51,1-2.57,0,2.63.57-2.37.08,2.48.57-2.48.09,3.06.63-2.55-.2,2.55.77-2.15-.09,2.43.83-2-.17,2.11.66-1.28-.09,1.57.66-1.17.06,1.31.37-.82.14,1.05.43H204.2l1.17.6Z" style="fill:#263238"></path><path d="M205.83,196.1a7.81,7.81,0,0,1,4-1c1.8.26,4.12,2.23,4.12,2.23l-1.49-.74.71,1.22L212,196.47l.4,1.8-.8-1.71-.06,1.54-.83-1.68V198l-.68-1.59.05,1.85-.88-1.85-.12,1.31-.43-1.54-.21,1.08-.39-1-.31.86-.23-1.09-.2.87-.4-.78Z" style="fill:#263238"></path><path d="M205.85,195.62s-.28-4,.58-5.72,3.62-3.54,3.62-3.54l-1.64,1.83,1.81-.49L208,188.85h2.07l-2.31.48a10.44,10.44,0,0,0,1.57.63c.17,0-1.86-.26-1.86-.26l1.44,1-1.75-.46,1.57.85-1.66-.26,1.27.59-1.5-.06s1.05.5,1.09.5l-1.32-.07,1.15.71-1.17-.07,1,.49-1,0,.7.25-.84.2.81.09-.84.21.76.16-.79.11.56.19-.73.13.43.26-.56.18.3.13Z" style="fill:#263238"></path><path d="M205.83,196.1s1.63-3.67,3.45-4.78,5.91-.71,5.91-.71l-3.32.58,2.47,1-3.11-.4,2.12,1-2.84-.68,1.92,1.15-2.81-.83,2.23,1.39-2.74-1,1.76,1.61-2.15-1.29,1.65,1.55-2-1.2,1.09,1.5L208,193.84l.91,1.27-1.25-.9.74,1.09-1.06-.62.66.94L206.9,195l.73.78s-1-.46-1-.46.43.46.43.46l-.66-.14Z" style="fill:#263238"></path><path d="M206.85,216s.26-1.63-2-3.38a4.24,4.24,0,0,1,2.25,2.07,3.84,3.84,0,0,0-2.83-3.38,4,4,0,0,1,3.47,2.74,5.72,5.72,0,0,0-2.55-4.35,6.69,6.69,0,0,1,3.43,4.19A7,7,0,0,1,213,211.1s-2.65,1.06-2.68,3.11c0,0,1.94-2.6,4.34-2.39,0,0-2.74.73-2.74,2.67a3.1,3.1,0,0,1,2.91-1.56s-3,1.2-1.74,3Z" style="fill:#263238"></path><path d="M59.51,216H64s-7.64-6.47-8.84-12.86,1-9.16,1-9.16l-.46-.27a14.58,14.58,0,0,0-1.3,9.57C55.53,208.55,59.51,216,59.51,216Z" style="fill:#263238"></path><path d="M55.69,194.15s-4.08,1.51-5.37,2.71-1.6,6.08-1.6,6.08l.86-3.39-.37,2.89,1-3.73-.09,3.67.7-4.62.07,3.76.46-4,.34,3,.15-3.22.31,2.46.37-3-.09,2.69.83-3.09-.15,1.94.9-2.12-.32,1.6.68-2L54.27,197Z" style="fill:#263238"></path><path d="M55.69,194.15s2.37,1.39,2.71,3.33-.49,5.92-.49,5.92l0-3.14-.79,2.09.46-3-.78,2.25.32-3-.72,1.59.5-2.56-.77,1.2.55-2.09-.8,1.23.46-2.22-.61,1.05L56,195l-.49.68.34-1.08Z" style="fill:#263238"></path><path d="M55.5,194.52s-1.6-2.9-4.16-3.79a7.89,7.89,0,0,0-5.34.43l3-.19-2,.77,2.9-.27-2.22,1.17,3.08-.77s-1.94,1.91-1.85,1.79,2.38-1.58,2.38-1.58L50,194.15,52,192.47l-1.27,2.05L52.66,193l-1.54,1.79,2.28-1.11-1.2,1.2,1.7-.71-.74.71,1.45-.71Z" style="fill:#263238"></path><path d="M55.69,194.15s.24-4.75-.84-7-4.75-3.33-4.75-3.33l2.47,1.94-2.47-.95,2.81,1.51s-2.28-.4-2.37-.43l2.71,1-2.78-.06,2.84.62-2.56.09,2.68.62-2.68.09,3.31.68-2.75-.22,2.75.84-2.32-.1,2.62.9-2.16-.19,2.28.71-1.39-.09,1.7.71-1.26.06,1.41.4-.88.16,1.13.46H53.93l1.26.65Z" style="fill:#263238"></path><path d="M55.69,194.52A8.44,8.44,0,0,1,60,193.47c1.95.28,4.44,2.41,4.44,2.41l-1.6-.81.77,1.33-1.33-1.48.44,1.94L61.88,195l-.06,1.67-.89-1.82v1.73l-.74-1.73.06,2-1-2-.12,1.42-.46-1.67-.23,1.17-.42-1-.34.92-.25-1.17-.22.93-.42-.84Z" style="fill:#263238"></path><path d="M55.71,194s-.3-4.32.62-6.17S60.25,184,60.25,184l-1.77,2,2-.53-2.38,1.24h2.23l-2.5.52a11.32,11.32,0,0,0,1.7.68c.18,0-2-.28-2-.28L59,188.72l-1.9-.49,1.7.91L57,188.86l1.37.63-1.61-.06s1.12.54,1.17.54l-1.42-.08,1.23.78-1.26-.08,1.11.52-1.13,0,.76.28-.91.21.88.1-.91.23.81.17-.84.12.6.2-.79.14.46.28-.6.2.33.14Z" style="fill:#263238"></path><path d="M55.69,194.52s1.76-4,3.73-5.17,6.38-.76,6.38-.76l-3.59.63,2.66,1-3.35-.44,2.29,1.08-3.07-.74,2.08,1.25-3-.9,2.4,1.5-3-1.11,1.9,1.74-2.32-1.39,1.79,1.67-2.12-1.3,1.17,1.62-1.6-1.16,1,1.37-1.35-1,.8,1.18L57.33,193l.72,1-1.2-.69.79.84s-1-.49-1.11-.49.46.49.46.49l-.72-.15Z" style="fill:#263238"></path><path d="M56.79,216s.28-1.76-2.17-3.65a4.6,4.6,0,0,1,2.43,2.24A4.13,4.13,0,0,0,54,210.89a4.33,4.33,0,0,1,3.75,3s-.19-3.26-2.75-4.7a7.22,7.22,0,0,1,3.7,4.52,7.56,7.56,0,0,1,4.73-3s-2.86,1.15-2.9,3.36c0,0,2.1-2.81,4.69-2.58,0,0-3,.79-3,2.89a3.35,3.35,0,0,1,3.14-1.69S62.13,214,63.52,216Z" style="fill:#263238"></path><path d="M37.79,216s29.38-4.2,43.57-5,71.55,2.6,73.43,2.94,56.67-1.44,70.26-2,237,4.14,237,4.14Z" style="fill:#263238"></path></g><g id="freepik--Birds--inject-2"><path d="M343.46,130.75a16.24,16.24,0,0,0-2.23-.95,9,9,0,0,0-2.42-.56,1.91,1.91,0,0,0-.76.08,1,1,0,0,0-.23.11l-.15.11c-.1.07-.17.14-.26.21-.32.29-.6.59-.88.89-.55.62-1,1.26-1.52,1.91l.6-.21a18.83,18.83,0,0,0-2.48-.52,10.73,10.73,0,0,0-1.29-.09,4.15,4.15,0,0,0-.69.05,2.83,2.83,0,0,0-.37.09,3,3,0,0,0-.37.17,4.64,4.64,0,0,0-1,.94c-.27.34-.5.69-.73,1a15.45,15.45,0,0,0-1.15,2.21c.53-.64,1-1.28,1.59-1.88a11.46,11.46,0,0,1,.83-.87,4.23,4.23,0,0,1,.87-.68,2.37,2.37,0,0,1,1-.1c.38,0,.77.09,1.16.16.78.14,1.57.34,2.34.54l.38.11.22-.32c.45-.64.93-1.27,1.41-1.88a10.5,10.5,0,0,1,.75-.86l.19-.18.09-.07,0,0a1.43,1.43,0,0,1,.43-.08,11.51,11.51,0,0,1,2.29.22C341.88,130.44,342.67,130.6,343.46,130.75Z" style="fill:#263238"></path><path d="M334.71,154.4a27.86,27.86,0,0,0-3-2.05,14,14,0,0,0-3.4-1.53,3.28,3.28,0,0,0-1.13-.1,1.36,1.36,0,0,0-.37.1l-.25.11a4.76,4.76,0,0,0-.45.24c-.56.33-1.06.69-1.56,1.05-1,.74-1.88,1.54-2.79,2.37l.95-.14a29,29,0,0,0-3.49-1.49,15.53,15.53,0,0,0-1.87-.51,8.28,8.28,0,0,0-1-.13,2.8,2.8,0,0,0-.57,0,3.51,3.51,0,0,0-.6.15,6.51,6.51,0,0,0-1.71,1.09,17,17,0,0,0-1.37,1.31,22.42,22.42,0,0,0-2.34,2.91c1-.78,1.91-1.57,2.89-2.3a15.62,15.62,0,0,1,1.47-1,6.45,6.45,0,0,1,1.48-.75,3.36,3.36,0,0,1,1.45.15,13.58,13.58,0,0,1,1.66.57c1.1.43,2.21,1,3.27,1.47l.53.27.42-.4c.84-.81,1.74-1.6,2.62-2.35.45-.37.9-.74,1.35-1.05.11-.07.23-.15.33-.2l.16-.09s0,0,.06,0a1.93,1.93,0,0,1,.65,0,18.45,18.45,0,0,1,3.3,1C332.48,153.49,333.58,154,334.71,154.4Z" style="fill:#263238"></path><path d="M176.33,88.16a18.18,18.18,0,0,0-2.05-1.3,9.27,9.27,0,0,0-2.3-1,2,2,0,0,0-.76,0,1.27,1.27,0,0,0-.24.07l-.17.08-.29.17a9.73,9.73,0,0,0-1,.74,23.5,23.5,0,0,0-1.82,1.63l.63-.11a19.23,19.23,0,0,0-2.36-.92,10.07,10.07,0,0,0-1.26-.3,4.92,4.92,0,0,0-.69-.06,2.64,2.64,0,0,0-.38,0,2.85,2.85,0,0,0-.39.11,4.43,4.43,0,0,0-1.12.77,10.79,10.79,0,0,0-.89.9,15.25,15.25,0,0,0-1.5,2c.63-.54,1.24-1.09,1.88-1.59a11,11,0,0,1,1-.73,4.41,4.41,0,0,1,1-.52,2.26,2.26,0,0,1,1,.06,8.34,8.34,0,0,1,1.11.35c.75.26,1.5.58,2.22.91l.36.17.27-.28c.54-.56,1.12-1.1,1.7-1.62a8.51,8.51,0,0,1,.88-.73,1.28,1.28,0,0,1,.21-.14l.1-.06s0,0,0,0a1.2,1.2,0,0,1,.44,0,11.49,11.49,0,0,1,2.22.6C174.82,87.6,175.57,87.89,176.33,88.16Z" style="fill:#263238"></path><path d="M196.16,85a27.88,27.88,0,0,0-2.25-2.85,14.61,14.61,0,0,0-2.8-2.47,3.1,3.1,0,0,0-1.05-.43,2.24,2.24,0,0,0-.38,0l-.27,0c-.18,0-.34.06-.5.09a16.41,16.41,0,0,0-1.8.55c-1.16.41-2.26.91-3.37,1.43l.95.15A28.23,28.23,0,0,0,181.8,79a14.27,14.27,0,0,0-1.64-1,6.73,6.73,0,0,0-.94-.43,4.41,4.41,0,0,0-.55-.15,4.29,4.29,0,0,0-.62,0,6.49,6.49,0,0,0-2,.53c-.59.25-1.15.54-1.7.84a24.37,24.37,0,0,0-3.1,2.09c1.16-.46,2.29-.94,3.44-1.34.57-.2,1.15-.4,1.72-.55a6.3,6.3,0,0,1,1.63-.27,3.42,3.42,0,0,1,1.35.57,13.43,13.43,0,0,1,1.41,1c.92.74,1.83,1.56,2.69,2.38L184,83l.51-.26c1-.52,2.13-1,3.2-1.46a14.34,14.34,0,0,1,1.6-.6l.38-.1.17,0s0,0,.07,0a1.76,1.76,0,0,1,.62.19,17.25,17.25,0,0,1,2.85,1.93C194.3,83.42,195.22,84.19,196.16,85Z" style="fill:#263238"></path><path d="M363,148.59a26.62,26.62,0,0,0-2.24-2.84,14,14,0,0,0-2.8-2.47,3,3,0,0,0-1-.43,1.18,1.18,0,0,0-.38,0,2.4,2.4,0,0,0-.28,0,3.54,3.54,0,0,0-.49.1,15.77,15.77,0,0,0-1.8.54c-1.16.42-2.26.91-3.37,1.43l.94.15a27.08,27.08,0,0,0-2.88-2.46,16.25,16.25,0,0,0-1.64-1,6.36,6.36,0,0,0-.95-.43,2.76,2.76,0,0,0-.55-.14,4.08,4.08,0,0,0-.61,0,6.7,6.7,0,0,0-2,.54c-.59.25-1.15.54-1.7.84a23.3,23.3,0,0,0-3.1,2.08c1.15-.45,2.29-.93,3.44-1.33a15.6,15.6,0,0,1,1.72-.55,5.9,5.9,0,0,1,1.63-.27,3.19,3.19,0,0,1,1.35.57,13.32,13.32,0,0,1,1.41,1c.92.74,1.83,1.56,2.68,2.38l.43.41.52-.26c1-.52,2.13-1,3.2-1.46a15.7,15.7,0,0,1,1.6-.6c.13,0,.26-.08.38-.1l.17,0s0,0,.06,0a1.76,1.76,0,0,1,.62.19,18.42,18.42,0,0,1,2.86,1.93C361.15,147.06,362.07,147.83,363,148.59Z" style="fill:#263238"></path></g><g id="freepik--Shadow--inject-2"><ellipse cx="250" cy="434.32" rx="200.86" ry="19.67" style="fill:#ebebeb"></ellipse></g><g id="freepik--Umbrella--inject-2"><rect x="173.7" y="135.03" width="5.39" height="226.25" transform="translate(-70.59 70.13) rotate(-18.81)" style="fill:#a6a6a6"></rect><polygon points="140.01 129.18 132.6 131.7 127.33 111.33 131.75 109.82 140.01 129.18" style="fill:#a6a6a6"></polygon><path d="M263,139.17s-16.81,5.5-27.12,9.24-29.23,10-29.23,10-17,6.15-27.73,9.56-26.75,9-26.75,9S136,182.18,125.42,186s-27.74,9.45-27.74,9.45-18.79,6.65-29.25,10-27.12,9.24-27.12,9.24c8.48-31.55,40.45-71.32,93.27-89.31S237,119.35,263,139.17Z" style="fill:#FFC727"></path><g style="opacity:0.1"><path d="M263,139.17c-4.73-2-9.5-3.86-14.36-5.65s-9.72-3.56-14.69-5.18a209.56,209.56,0,0,0-30.84-8,79.15,79.15,0,0,0-16.55-1.26c-5.71.16-11.48.62-17.25,1.13s-11.56,1.24-17.34,2.1-11.59,1.84-17.36,3a268.78,268.78,0,0,1,34.76-6.07c5.81-.66,11.61-1.08,17.38-1.3a79.7,79.7,0,0,1,16.92,1.18,158.22,158.22,0,0,1,15.81,3.58c5.13,1.42,10.18,3,15.08,4.72A277.66,277.66,0,0,1,263,139.17Z"></path><path d="M206.6,158.37c-1.94-2.41-4-4.76-6.16-7s-4.4-4.48-6.79-6.58c-4.8-4.15-9.94-8.17-16.11-11s-13.39-4.4-20.62-5.71c-3.63-.66-7.32-1.19-11.06-1.63s-7.49-.83-11.28-1.11a165.48,165.48,0,0,1,22.77,1.82,87.69,87.69,0,0,1,21.11,5.54,32.53,32.53,0,0,1,4.53,2.42c1.45.87,2.81,1.81,4.15,2.76a75.39,75.39,0,0,1,7.46,6.19A80.34,80.34,0,0,1,206.6,158.37Z"></path><path d="M41.31,214.67A280.18,280.18,0,0,1,56.69,188c2.82-4.38,5.87-8.69,9.06-12.94a159.86,159.86,0,0,1,10.34-12.49,80.15,80.15,0,0,1,12.68-11.26c4.7-3.35,9.56-6.56,14.56-9.58a270.43,270.43,0,0,1,31.25-16.41q-8,3.87-15.6,8.2t-15,8.92c-4.88,3.12-9.73,6.27-14.35,9.64a79.2,79.2,0,0,0-12.34,11.1,209.09,209.09,0,0,0-19.55,25.14c-3,4.31-5.76,8.68-8.48,13.07S43.85,210.23,41.31,214.67Z"></path><path d="M97.68,195.47a79.72,79.72,0,0,1,.79-18.64,75,75,0,0,1,2.13-9.45c.48-1.57,1-3.15,1.59-4.72a34.22,34.22,0,0,1,2.12-4.69,87.76,87.76,0,0,1,13.34-17.27,165.83,165.83,0,0,1,16.93-15.34c-2.84,2.54-5.61,5.12-8.27,7.77s-5.29,5.3-7.76,8c-4.93,5.46-9.62,11.11-12.85,17.12s-4.79,12.3-6.06,18.52c-.61,3.12-1,6.24-1.36,9.35S97.74,192.37,97.68,195.47Z"></path></g><path d="M263,139.17s3.21,7.77,2.33,9.29-51.74,19.34-53.39,19.16-5.31-9.25-5.31-9.25,2.93,9.78.71,11.16-100.17,33.73-103.12,35.13-6.51-9.19-6.51-9.19,1,10.35-2.4,12.43-45.88,15.94-49,16.71-4.93-9.94-4.93-9.94Z" style="fill:#FFC727"></path><path d="M263,139.17s3.21,7.77,2.33,9.29-51.74,19.34-53.39,19.16-5.31-9.25-5.31-9.25,2.93,9.78.71,11.16-100.17,33.73-103.12,35.13-6.51-9.19-6.51-9.19,1,10.35-2.4,12.43-45.88,15.94-49,16.71-4.93-9.94-4.93-9.94Z" style="opacity:0.2"></path></g><g id="freepik--Wifi--inject-2"><g id="freepik--u5Zjqx--inject-2"><path d="M278.7,229.53,276.26,232c-.46.46-.91.93-1.38,1.39a33.12,33.12,0,0,0-46.95,0L226.62,232c-.8-.81-1.6-1.61-2.41-2.41,0,0,0,0-.07-.05v-.05l.18-.15c1-.91,2-1.85,3.08-2.73A37.86,37.86,0,0,1,244,218.89c1.56-.28,3.14-.43,4.72-.62.53-.07,4-.08,4.13-.07,1.07.07,2.14.12,3.21.24a36.33,36.33,0,0,1,8.66,2.07,37.61,37.61,0,0,1,5.86,2.74,36.63,36.63,0,0,1,5.59,3.91c.87.75,1.71,1.54,2.57,2.32Z" style="fill:#FFC727"></path><path d="M235.66,241l-3.85-3.82a27.15,27.15,0,0,1,15.66-7.86c9.1-1.23,16.92,1.54,23.55,7.81L267.15,241a22.27,22.27,0,0,0-31.49,0Z" style="fill:#FFC727"></path><path d="M263.31,244.83l-3.83,3.83a11.4,11.4,0,0,0-16.14,0l-3.82-3.82A16.73,16.73,0,0,1,263.31,244.83Z" style="fill:#FFC727"></path><path d="M254.87,252.14a3.46,3.46,0,1,1-3.46-3.46A3.46,3.46,0,0,1,254.87,252.14Z" style="fill:#FFC727"></path></g></g><g id="freepik--Character--inject-2"><polygon points="450.13 431.05 441.1 431.05 421.75 409.31 157.8 409.31 138.44 431.05 129.41 431.05 146.61 399.94 432.94 399.94 450.13 431.05" style="fill:#FFC727"></polygon><polygon points="450.13 431.05 441.1 431.05 421.75 409.31 157.8 409.31 138.44 431.05 129.41 431.05 146.61 399.94 432.94 399.94 450.13 431.05" style="opacity:0.5"></polygon><polygon points="184.12 384.53 94.28 400.21 57.24 292.1 147.08 286.88 184.12 384.53" style="fill:#455a64"></polygon><polygon points="94.28 400.21 184.12 384.53 437.21 385.15 364.85 400.21 94.28 400.21" style="fill:#455a64"></polygon><polygon points="94.28 400.21 57.24 292.1 49.87 297.16 76.4 400.21 94.28 400.21" style="fill:#37474f"></polygon><polygon points="76.4 400.21 76.4 407.88 364.85 407.88 437.21 392.37 437.21 385.15 364.85 400.21 76.4 400.21" style="fill:#37474f"></polygon><polygon points="437.99 392.2 364.85 407.88 68.12 407.88 68.12 415.5 364.85 415.5 437.99 400.04 437.99 392.2" style="fill:#FFC727"></polygon><polygon points="437.99 392.2 364.85 407.88 68.12 407.88 68.12 415.5 364.85 415.5 437.99 400.04 437.99 392.2" style="opacity:0.30000000000000004"></polygon><polygon points="380.98 446.6 371.95 446.6 352.6 424.86 88.65 424.86 69.29 446.6 60.26 446.6 77.46 415.49 363.79 415.49 380.98 446.6" style="fill:#FFC727"></polygon><polygon points="380.98 446.6 371.95 446.6 352.6 424.86 88.65 424.86 69.29 446.6 60.26 446.6 77.46 415.49 363.79 415.49 380.98 446.6" style="opacity:0.5"></polygon><path d="M392.85,393.38c-2.37.92-71.3,2.17-74,.63-.29-.17-.21-3.22-1.23-11.09-.05-.37-1.6-1.85-4.07-3.89-27.27-22.5-30-24.55-30-24.55l33.51-29.35L350.4,357.9l8.67,8.51s28.16,15.21,30.95,17.22S395.22,392.47,392.85,393.38Z" style="fill:#d3766a"></path><path d="M341.12,348.78l-29.27,28.85s-43.51-37.52-51.37-37.83c-4-.15-67.06,35.09-96.91,38.17-21.16,2.19-32.64-32.42-32.64-32.42l45.33-10.41c32.67-16.11,69.48-45,91.74-42.33C292.18,295.74,341.12,348.78,341.12,348.78Z" style="fill:#d3766a"></path><path d="M130.93,345.55s11.48,34.61,32.64,32.42c20.4-2.11,56.36-19.24,78.32-29.83l-75.45-10.75Z" style="fill:#263238"></path><path d="M130.93,345.55s-5.08,29.39,9.62,40.94,122.38,10.16,138.72,4.88,16.85-31.65-1-37.76c-17-5.81-89.27-8.64-91-9.35-.45-.18-2.39-6.78-2.31-10.91l-7.76,1.35Z" style="fill:#d3766a"></path><path d="M185.56,330.29l-54.63,15.26s-6.27,33.37,11.43,42.07c0,0-2.57-35.42,44.85-43.36C187.21,344.26,183.39,334.27,185.56,330.29Z" style="fill:#FFC727"></path><path d="M140,380.25a2,2,0,0,1-.75-.25,1.39,1.39,0,0,1-.63-1.21,1.81,1.81,0,0,0-1.18-1.66,1.86,1.86,0,0,0-1-.08c-.31.08-.6.12-.89.19a8.24,8.24,0,0,0,.89.18,1.7,1.7,0,0,1,.74.23,1.42,1.42,0,0,1,.69,1.17,1.83,1.83,0,0,0,1.1,1.69,1.77,1.77,0,0,0,1,.08,5.73,5.73,0,0,0,.88-.18C140.61,380.34,140.32,380.3,140,380.25ZM148,354a2.23,2.23,0,0,1-.74-.26,1.41,1.41,0,0,1-.64-1.2,1.79,1.79,0,0,0-1.17-1.66,1.89,1.89,0,0,0-1-.08c-.3.08-.59.11-.88.18a8.6,8.6,0,0,0,.88.19,1.48,1.48,0,0,1,.75.23,1.39,1.39,0,0,1,.69,1.16,1.79,1.79,0,0,0,1.1,1.69,1.83,1.83,0,0,0,1,.09,6.18,6.18,0,0,0,.89-.19C148.6,354.1,148.31,354.07,148,354Zm38-10.24a1.83,1.83,0,0,0-1.17-1.67,2,2,0,0,0-1-.05c-.29.05-.58.1-.89.17.31.08.6.12.89.17a2.19,2.19,0,0,1,.76.24,1.37,1.37,0,0,1,.67,1.16,1.72,1.72,0,0,0,.16.77l.73-.13A1.45,1.45,0,0,1,186,343.78Zm-52.89,18.78a6.37,6.37,0,0,0-.18-.89c-.08.29-.11.58-.18.89a1.84,1.84,0,0,1-.22.74,1.33,1.33,0,0,1-1.16.67,1.9,1.9,0,0,0-1.3.54c0,.3.05.59.09.89l0,0a1.31,1.31,0,0,1,1.2-.63,1.88,1.88,0,0,0,1.67-1.19A1.9,1.9,0,0,0,133.14,362.56Zm-2.53-14.11-.13.1c0,.2,0,.41-.07.63a1.83,1.83,0,0,0,.46-.46c.16-.26.36-.49.51-.77C131.1,348.1,130.87,348.28,130.61,348.45Zm35.82-2.36a1.6,1.6,0,0,1-.71.34,1.42,1.42,0,0,1-1.29-.39,1.78,1.78,0,0,0-2-.35,1.8,1.8,0,0,0-.73.66,8.5,8.5,0,0,0-.51.73,6.22,6.22,0,0,0,.76-.5,2.46,2.46,0,0,1,.69-.37,1.39,1.39,0,0,1,1.3.36,1.85,1.85,0,0,0,2,.41,1.77,1.77,0,0,0,.78-.63c.16-.26.34-.5.49-.77A8.87,8.87,0,0,0,166.43,346.09Z" style="fill:#fff"></path><path d="M191.2,283.34a.51.51,0,0,1-.4.53l-2.06.13c-1.84-4.79-3.83-8.6-3.31-7.11a24.17,24.17,0,0,1,1.29,7.24l-4.06.2c-1.6-8.44-3.65-14.7-3.52-12.77.52,7.79.06,10.3-.48,13-9.8.46-22.65.93-31.94,1.06-1.08-4.66-2-9.71-2.18-9.36-1.27,2.64-1.61,6.46-1.64,9.41-3,0-5.32,0-6.76-.11,0,0-.7-3.92-.8-5.21a27.09,27.09,0,0,1,1-9.84,48.36,48.36,0,0,1,4.29-9.12.43.43,0,0,1,0-.07s0,0,0,0a27.77,27.77,0,0,0,2.48-6.09s0,0,0-.05a26.75,26.75,0,0,0,.76-4.68c.43-5.76,3.68-10.75,9.1-12.28,10.22-9.64,20.48-5.6,23.57,1.79.3.72.59,1.55.87,2.45v0c1,3.33,2,7.65,2.86,11a0,0,0,0,0,0,0,.08.08,0,0,0,0,0h0a30.25,30.25,0,0,0,1.21,3.86C184.2,263.36,190.11,266.78,191.2,283.34Z" style="fill:#263238"></path><path d="M150.71,239.76a10.91,10.91,0,0,0-6.29,8.78A28.16,28.16,0,0,1,143,255.7a25.41,25.41,0,0,1-4.09,6.31c-2.51,3.11-4.26,6.21-4.65,10.34a31.65,31.65,0,0,0,1.22,13s0,0,0,0a33.66,33.66,0,0,1-.48-13.61c.78-4.57,3.36-7.44,6-10.92a19,19,0,0,0,3.89-9.32c.26-2.08.23-4.24,1.06-6.2,1-2.34,3-3.83,5-5.15A.25.25,0,0,0,150.71,239.76Z" style="fill:#263238"></path><path d="M187.57,263.79c-2.51-3.26-5.12-6-6.59-10.1-1.34-3.69-2.11-7.59-3.47-11.28a0,0,0,1,0-.09,0c2.1,6.55,2.51,13.16,6.74,18.66,2.31,3,4.61,5.77,6.12,9.36a32,32,0,0,1,2.39,11.85c0,.14.19.13.2,0A26.45,26.45,0,0,0,187.57,263.79Z" style="fill:#263238"></path><path d="M184.82,330.24c-6.45,13.49-54.62,24.4-54.62,24.4s-1.47-32.56,9.3-60C149.13,270,162,276.14,166.68,280c5.6,4.52,16.87,21.74,17.75,25.11,1.45,5.57-3.09,12-3.09,12Z" style="fill:#d3766a"></path><path d="M184.82,330.24c-6.45,13.49-54.63,24.4-54.63,24.4s-1.11-25,5.83-49.61c1-3.5,2.14-7,3.48-10.42C149.13,270,162,276.14,166.68,280c3.21,2.59,8.29,9.37,12.2,15.31l0,0c2.9,4.41,5.15,8.34,5.53,9.77,1.45,5.57-3.09,12-3.09,12Z" style="fill:#d3766a"></path><path d="M184.82,330.24c-6.45,13.49-54.63,24.4-54.63,24.4s-1.11-25,5.83-49.61l15-2.25s4.31-5.75,9.87-6.25,10.63,2.75,10.63,2.75c3.74-4.39,7.34-4,7.34-4l0,0c2.9,4.41,5.15,8.34,5.53,9.77,1.45,5.57-3.09,12-3.09,12Z" style="fill:#FFC727"></path><path d="M184.43,305.06a1.37,1.37,0,0,1-.64-1.2,1.6,1.6,0,0,0-.09-.53h0l-.14-.28a.42.42,0,0,0-.07-.13.43.43,0,0,0,0-.07,1.7,1.7,0,0,0-.83-.65,1.9,1.9,0,0,0-1-.06,9,9,0,0,0-.9.19c.3.07.59.1.9.16a2,2,0,0,1,.75.23,1.42,1.42,0,0,1,.67,1.17,1.84,1.84,0,0,0,1.12,1.69,1.32,1.32,0,0,0,.4.11C184.53,305.47,184.48,305.27,184.43,305.06ZM156.8,306a1.87,1.87,0,0,1-.73-.26,1.36,1.36,0,0,1-.63-1.2,1.88,1.88,0,0,0-1.18-1.67,2,2,0,0,0-1-.05c-.31.05-.6.1-.91.18.31.07.6.11.91.17a2,2,0,0,1,.74.23,1.38,1.38,0,0,1,.67,1.17,1.82,1.82,0,0,0,1.13,1.68,1.76,1.76,0,0,0,1,.11c.31-.07.6-.11.89-.19A8.24,8.24,0,0,0,156.8,306Zm-12.32,44.82c-.3.08-.59.11-.88.18l.21.05h0l.86-.25Zm18.25-21a2,2,0,0,1-.73-.24,1.38,1.38,0,0,1-.63-1.19,1.83,1.83,0,0,0-1.18-1.67,1.52,1.52,0,0,0-1-.07c-.31.07-.6.1-.91.17a7.36,7.36,0,0,0,.91.19,1.54,1.54,0,0,1,.74.22,1.36,1.36,0,0,1,.67,1.16,1.85,1.85,0,0,0,1.13,1.7,1.76,1.76,0,0,0,1,.09,6.85,6.85,0,0,0,.9-.19C163.33,329.89,163,329.86,162.73,329.79ZM132.42,328a1.85,1.85,0,0,1-.73-.24l-.12-.09c0,.21,0,.42-.08.62a1.76,1.76,0,0,0,.93.07,7.32,7.32,0,0,0,.91-.18C133,328.08,132.73,328.05,132.42,328Zm51.4-1.5-.09.06a2.07,2.07,0,0,1-.69.38,1.38,1.38,0,0,1-1.31-.35,1.84,1.84,0,0,0-2-.41,1.67,1.67,0,0,0-.77.63c-.17.26-.35.49-.51.77.27-.17.51-.35.77-.51a1.58,1.58,0,0,1,.68-.35,1.5,1.5,0,0,1,1.31.4,1.83,1.83,0,0,0,2,.35,1.87,1.87,0,0,0,.69-.58Zm-37.4,7a6.37,6.37,0,0,0-.17-.89c-.08.29-.11.58-.19.89a1.69,1.69,0,0,1-.21.74,1.34,1.34,0,0,1-1.16.67A1.89,1.89,0,0,0,143,336a1.85,1.85,0,0,0-.09,1c.06.31.09.6.18.91a5.86,5.86,0,0,0,.18-.91,1.56,1.56,0,0,1,.26-.72,1.3,1.3,0,0,1,1.19-.63,1.86,1.86,0,0,0,1.67-1.19A1.71,1.71,0,0,0,146.42,333.49ZM173,311.43c-.07-.29-.1-.58-.17-.89a7.9,7.9,0,0,0-.19.89,1.66,1.66,0,0,1-.23.76,1.37,1.37,0,0,1-1.16.68,1.8,1.8,0,0,0-1.69,1.12,1.46,1.46,0,0,0-.09,1c.06.31.09.6.16.89a6.38,6.38,0,0,0,.19-.89,1.71,1.71,0,0,1,.25-.73,1.35,1.35,0,0,1,1.2-.63,1.83,1.83,0,0,0,1.66-1.18A2,2,0,0,0,173,311.43Zm-26,4.93a1.46,1.46,0,0,1-.69.35,1.36,1.36,0,0,1-1.29-.4,1.83,1.83,0,0,0-2-.34,1.77,1.77,0,0,0-.75.65c-.15.25-.36.49-.51.76.28-.16.51-.35.77-.51a1.61,1.61,0,0,1,.68-.36,1.34,1.34,0,0,1,1.31.33,1.79,1.79,0,0,0,2.76-.22c.16-.26.34-.49.49-.76C147.39,316,147.15,316.2,146.9,316.36Zm-16.29,32.09a1.54,1.54,0,0,1-.48.29v.6a1.76,1.76,0,0,0,.74-.62c.16-.26.36-.49.51-.77C131.1,348.1,130.87,348.28,130.61,348.45Z" style="fill:#fff"></path><path d="M175.92,316.18A31,31,0,0,0,168,318c-2.56.91-8.16,3.56-9.57,4.22a0,0,0,1,0,0,.06,52.06,52.06,0,0,0,5.43-2c2.5-1,5-2,7.59-2.84a35.39,35.39,0,0,1,4.43-1.1A.08.08,0,0,0,175.92,316.18Z" style="fill:#263238"></path><path d="M180.77,317.24a24.56,24.56,0,0,0-8.33,1.29s0,.07,0,.06c1.38-.26,2.75-.51,4.14-.72s2.79-.37,4.18-.56C180.82,317.31,180.81,317.24,180.77,317.24Z" style="fill:#263238"></path><path d="M154.5,279.08c.17,1.15,4.95,8.9,10.11,9.08,1.69.06,2.4-9.11,2.4-9.11l.21-.67,2.9-9.31L159.57,261,158,259.93s-.63,2.6-1.37,5.84c0,.15-.08.3-.11.46s-.09.36-.13.53c-.12.48-.24,1-.34,1.47s-.17.74-.24,1.14-.16.79-.24,1.18A64.24,64.24,0,0,0,154.5,279.08Z" style="fill:#d3766a"></path><path d="M156.67,265.77a19.54,19.54,0,0,0,10.55,12.61l2.9-9.31L159.57,261,158,259.93S157.41,262.53,156.67,265.77Z" style="fill:#263238"></path><path d="M185,255.3c.21,17.12-10,19.18-13.7,19.22-3.35,0-14.76-.25-16.75-17.25s5.91-22.51,13.57-23S184.74,238.19,185,255.3Z" style="fill:#d3766a"></path><path d="M182.39,253.1a11.24,11.24,0,0,1-1.14-.3,1.92,1.92,0,0,1-1.1-.54.6.6,0,0,1,0-.74,1.5,1.5,0,0,1,1.51-.27,2.23,2.23,0,0,1,1.34.86A.64.64,0,0,1,182.39,253.1Z" style="fill:#263238"></path><path d="M170.57,253.35c.4,0,.77-.12,1.16-.18a1.84,1.84,0,0,0,1.16-.41.6.6,0,0,0,0-.74,1.51,1.51,0,0,0-1.46-.44,2.21,2.21,0,0,0-1.44.71A.65.65,0,0,0,170.57,253.35Z" style="fill:#263238"></path><path d="M172.84,256.06c0-.05-.09.05-.09.1,0,1.16-.2,2.5-1.27,2.85,0,0,0,.07,0,.06C172.78,258.94,173,257.16,172.84,256.06Z" style="fill:#263238"></path><path d="M171.84,254.8c-1.87-.2-2.14,3.55-.41,3.74S173.41,255,171.84,254.8Z" style="fill:#263238"></path><path d="M171.09,255c-.34.19-.69.54-1.09.55s-.78-.41-1.05-.81c0,0-.06,0-.06,0-.07.72.16,1.48.92,1.64s1.25-.45,1.48-1.16C171.33,255.08,171.23,254.87,171.09,255Z" style="fill:#263238"></path><path d="M179.71,256.13s.09.06.08.11c-.13,1.16-.08,2.51.94,3,0,0,0,.07,0,.06C179.45,259,179.4,257.21,179.71,256.13Z" style="fill:#263238"></path><path d="M180.85,255c1.88,0,1.72,3.77,0,3.76S179.27,255,180.85,255Z" style="fill:#263238"></path><path d="M181.62,255.28c.29.21.57.59.92.62s.73-.34,1-.72c0,0,.06,0,.06,0,0,.72-.28,1.46-1,1.57s-1.08-.54-1.22-1.26C181.4,255.39,181.51,255.2,181.62,255.28Z" style="fill:#263238"></path><path d="M172.46,266c.24.31.48.71.89.8a3.09,3.09,0,0,0,1.28-.14s.07,0,0,.06a1.57,1.57,0,0,1-1.54.46,1.26,1.26,0,0,1-.79-1.14C172.33,266,172.42,266,172.46,266Z" style="fill:#263238"></path><path d="M177.58,262.12s.13,1.75.08,2.57c0,.08-.2.1-.48.1h0a3.9,3.9,0,0,1-3.7-1.69c0-.08.06-.16.13-.1a5.89,5.89,0,0,0,3.5,1.23c.07-.22-.33-3-.2-3a7.44,7.44,0,0,1,1.83.53c-.17-3.65-.93-7.25-1-10.9a.11.11,0,0,1,.21,0,58.25,58.25,0,0,1,1.63,11.7C179.55,263,177.9,262.28,177.58,262.12Z" style="fill:#263238"></path><path d="M176.58,264.45a4.08,4.08,0,0,1-1.66,1.2,1.83,1.83,0,0,1-1.11,0c-.79-.24-.78-1-.61-1.59a4.69,4.69,0,0,1,.39-.95A5.22,5.22,0,0,0,176.58,264.45Z" style="fill:#263238"></path><path d="M174.92,265.65a1.83,1.83,0,0,1-1.11,0c-.79-.24-.78-1-.61-1.59A1.88,1.88,0,0,1,174.92,265.65Z" style="fill:#ff9bbc"></path><path d="M154.45,258.2a7.07,7.07,0,0,0,4.7-5.18,18.6,18.6,0,0,0,8.28-5c-.17.34-1.33,2.75-2,4,11.07-.54,15.53-8.35,15.53-8.35a18.67,18.67,0,0,1,3.77,7.49s1-6.61-1.81-11.51a10.79,10.79,0,0,0-9.25-5.74,15.39,15.39,0,0,0-15.52,2.55C150.13,243.13,154.45,258.2,154.45,258.2Z" style="fill:#263238"></path><path d="M173.91,251.34a20.1,20.1,0,0,1-5.82,1.28s0,0,0,0a17,17,0,0,0,8.58-3.7,16.77,16.77,0,0,0,2.77-2.94,11.28,11.28,0,0,0,2-3.92.09.09,0,0,1,.17,0,13.1,13.1,0,0,1-1.44,4.13,12.09,12.09,0,0,1-2.88,3.25,14.14,14.14,0,0,1-3.37,1.89" style="fill:#263238"></path><path d="M168.7,238.38c-.3,1.72-3.38,2.62-6.88,2s-6.09-2.51-5.79-4.23,3.38-2.62,6.88-2S169,236.65,168.7,238.38Z" style="fill:#FFC727"></path><path d="M167.37,237.78c-.23,1.31-2.57,2-5.23,1.53s-4.63-1.91-4.4-3.21,2.57-2,5.23-1.53S167.6,236.47,167.37,237.78Z" style="fill:#263238"></path><path d="M167.57,236.45l-.92-.6c1.54-2.34,4.5-2,5.85-1.47l-.39,1C172,235.37,169,234.27,167.57,236.45Z" style="fill:#FFC727"></path><path d="M152.44,258.45c0-.18,0-4.42.05-5.25.07-1,6.47-14.43,6.53-14.51l.43.35.48.27c-.39.75-6.16,13-6.34,14-.05.77-.05,5.11-.05,5.15Z" style="fill:#FFC727"></path><path d="M183.33,235.77c-.3,1.72-3.39,2.62-6.88,2s-6.1-2.5-5.79-4.23,3.38-2.62,6.88-2S183.63,234.05,183.33,235.77Z" style="fill:#FFC727"></path><path d="M182,235.27c-.23,1.3-2.57,2-5.23,1.52s-4.63-1.9-4.4-3.21,2.57-2,5.23-1.53S182.18,234,182,235.27Z" style="fill:#263238"></path><path d="M157.25,258.55s-3.33-5.61-5.85-4.46-.28,9.08,2.48,10.35a2.9,2.9,0,0,0,4-1.27Z" style="fill:#d3766a"></path><path d="M152.1,256.35a0,0,0,0,0,0,.07c1.93,1,2.84,2.88,3.43,4.85a1.59,1.59,0,0,0-2.35-.61s0,.11.05.11a1.77,1.77,0,0,1,1.9.76,8.46,8.46,0,0,1,.82,1.65c.08.19.41.11.36-.1v0C156.51,260.5,154.8,256.81,152.1,256.35Z" style="fill:#263238"></path><path d="M146.22,295.23c3.8,16.18,18.6,41.86,25.36,42.89,10.77,1.65,42.13-11.09,50.15-17.18,2.77-2.11-12.31-20.81-15.83-19.58-13,4.58-27.39,11.26-29.16,9.83-2.15-1.74-11.22-11.54-19.54-21.56C146.73,277.05,144.51,288,146.22,295.23Z" style="fill:#d3766a"></path><path d="M221.73,320.94c1.56-.67,12.07-9.35,15.08-13.3A48.26,48.26,0,0,0,244.46,294c2.79-7.81,4-13.47,3-15.92-1.1-2.84-1.39-3.29-8.21,9.81-3.86,7.41-7.92,8.47-11.48,8.62a54.83,54.83,0,0,0-24.94,7.23S215.72,323.51,221.73,320.94Z" style="fill:#d3766a"></path><path d="M252.37,268.28l-17.51,25.18a2.29,2.29,0,0,1-2.25.89l-13.53-3.58a1,1,0,0,1-.5-1.62L236.1,264a2.27,2.27,0,0,1,2.24-.89l13.53,3.58A1,1,0,0,1,252.37,268.28Z" style="fill:#37474f"></path><path d="M250.66,266.34l-13.53-3.58a2.28,2.28,0,0,0-2.25.89l-17.51,25.17a1,1,0,0,0,.49,1.63L231.39,294a2.26,2.26,0,0,0,2.25-.9L251.15,268A1,1,0,0,0,250.66,266.34Zm-17.33,25.79a2.11,2.11,0,0,1-2.06.87l-12.11-3.21c-.68-.18-.86-.86-.39-1.52l16.31-23.44c.93-1.35,1.53-1.27,2.21-1.09l2.42.65c.14,0,.16.21,0,.39l-.05.07c-.29.42,0,.49.27.58l5.61,1.48c.32.08.57.15.86-.27l.06-.08a.5.5,0,0,1,.48-.25l2.42.64c.68.18,1.1.5.24,1.74Z" style="fill:#263238"></path><path d="M243.9,265.85l-1.53-.41a.07.07,0,0,1,0-.11h0a.17.17,0,0,1,.16-.06l1.53.41s.06.06,0,.11h0A.17.17,0,0,1,243.9,265.85Z" style="fill:#fff"></path><line x1="219.8" y1="286.79" x2="219.75" y2="286.77" style="fill:none"></line><path d="M249.63,268.69l-16.3,23.44a2.11,2.11,0,0,1-2.06.87l-12.11-3.21c-.68-.17-.85-.86-.39-1.52l16.31-23.44c.93-1.35,1.53-1.27,2.21-1.09l2.42.65c.14,0,.16.21,0,.39l-.05.07c-.29.42,0,.49.27.58l5.61,1.48c.32.08.57.15.86-.27l.06-.08a.51.51,0,0,1,.48-.25l2.42.64C250.07,267.13,250.5,267.45,249.63,268.69Z" style="fill:#fff"></path><path d="M249.63,268.69l-1.21,1.75-14.56-3.86,1.22-1.75c.93-1.35,1.53-1.27,2.21-1.09l2.42.65c.14,0,.16.21,0,.39l-.05.07c-.29.42,0,.49.27.58l5.61,1.48c.32.08.57.15.86-.27l.06-.08a.51.51,0,0,1,.48-.25l2.42.64C250.07,267.13,250.49,267.45,249.63,268.69Z" style="fill:#FFC727"></path><polygon points="235.93 266.12 235.75 265.64 236.43 265.39 236.46 265.47 235.89 265.68 236.04 266.07 235.93 266.12" style="fill:#fff"></polygon><path d="M248.33,268.79a.13.13,0,0,1-.14.06.06.06,0,0,1,0-.1.15.15,0,0,1,.14-.06A.06.06,0,0,1,248.33,268.79Z" style="fill:#fff"></path><path d="M248.14,269.07a.15.15,0,0,1-.14.05c-.05,0-.06-.06,0-.1a.13.13,0,0,1,.14,0S248.17,269,248.14,269.07Z" style="fill:#fff"></path><path d="M248,269.34a.15.15,0,0,1-.14.05c-.05,0-.06-.06,0-.1a.15.15,0,0,1,.14-.05A.06.06,0,0,1,248,269.34Z" style="fill:#fff"></path><g id="freepik--u5zjqx--inject-2"><path d="M238.93,264.8l0,0h0a.22.22,0,0,0-.17-.14.54.54,0,0,0-.28,0h0v0h0l0,0,.1,0h.23l.07,0s0,0,0,0l0,0v0Z" style="fill:#fff"></path><path d="M238.44,264.79v0a.36.36,0,0,1,.2,0,.21.21,0,0,1,.18.13l-.06,0a.18.18,0,0,0-.11-.1A.35.35,0,0,0,238.44,264.79Z" style="fill:#fff"></path><path d="M238.69,264.89l-.06,0s0,0-.06-.05a.12.12,0,0,0-.1,0v-.05A.17.17,0,0,1,238.69,264.89Z" style="fill:#fff"></path><path d="M238.56,264.94l-.05,0s0,0,0,0a0,0,0,0,1,.05,0S238.57,264.92,238.56,264.94Z" style="fill:#fff"></path></g><path d="M236.6,264.26a.14.14,0,0,1,.16-.06c.05,0,.07.06,0,.11a.14.14,0,0,1-.16.06S236.57,264.31,236.6,264.26Z" style="fill:#fff"></path><path d="M236.9,264.34a.15.15,0,0,1,.16-.06.07.07,0,0,1,0,.11.15.15,0,0,1-.16.06A.07.07,0,0,1,236.9,264.34Z" style="fill:#fff"></path><path d="M237.21,264.42a.13.13,0,0,1,.15-.06c.06,0,.07.06,0,.11a.14.14,0,0,1-.16.06C237.19,264.52,237.17,264.47,237.21,264.42Z" style="fill:#fff"></path><path d="M237.51,264.5a.16.16,0,0,1,.16-.06c.05,0,.07.06,0,.11a.13.13,0,0,1-.15.06C237.49,264.6,237.48,264.55,237.51,264.5Z" style="fill:#fff"></path><path d="M237.81,264.58a.17.17,0,0,1,.16-.06.07.07,0,0,1,0,.11.15.15,0,0,1-.16.06A.07.07,0,0,1,237.81,264.58Z" style="fill:#fff"></path><polygon points="249.08 268.03 247.82 267.69 248.33 266.97 249.59 267.3 249.08 268.03" style="fill:#fff"></polygon><polygon points="248.96 267.44 248.45 267.3 248.3 267.52 248.81 267.65 248.96 267.44" style="fill:#fff"></polygon><polygon points="249.11 267.71 249.04 267.69 249.16 267.51 249.23 267.53 249.11 267.71" style="fill:#fff"></polygon><polygon points="221.14 288.62 221.03 288.59 220.71 289.05 220.5 289 220.67 288.76 220.3 288.67 220.14 288.9 219.93 288.85 220.25 288.39 220.14 288.36 220.97 288.02 221.14 288.62" style="fill:#ebebeb"></polygon><polygon points="232.5 291.26 231.29 290.94 231.4 290.79 232.6 291.1 232.5 291.26" style="fill:#ebebeb"></polygon><polygon points="232.23 291.65 231.02 291.33 231.13 291.17 232.34 291.49 232.23 291.65" style="fill:#ebebeb"></polygon><polygon points="231.96 292.03 230.75 291.71 230.86 291.56 232.07 291.88 231.96 292.03" style="fill:#ebebeb"></polygon><polygon points="226.6 289.99 226.03 290.23 225.91 289.81 226.01 289.77 226.1 290.12 226.57 289.92 226.6 289.99" style="fill:#ebebeb"></polygon><path d="M226,291.06a1.45,1.45,0,0,1-.3,0,.93.93,0,0,1-.65-.56,1,1,0,0,1,.15-.89,1.45,1.45,0,0,1,1.48-.57.89.89,0,0,1,.64.56.94.94,0,0,1-.14.89h0A1.49,1.49,0,0,1,226,291.06Zm.23-1.07-.08,0Z" style="fill:#ebebeb"></path><path d="M240.58,267.06a.64.64,0,0,1,.64-.24.32.32,0,0,1,.19.14.06.06,0,0,1,0,.08s-.08,0-.09,0a.22.22,0,0,0-.14-.1.4.4,0,0,0-.24,0,.43.43,0,0,0-.2.15.22.22,0,0,0,0,.19.21.21,0,0,0,.14.12.5.5,0,0,0,.21,0s.07,0,.08,0a.09.09,0,0,1-.07.08.61.61,0,0,1-.3,0A.28.28,0,0,1,240.58,267.06Z" style="fill:#fff"></path><path d="M241.24,267.59l.39-.57a.1.1,0,0,1,.1,0,0,0,0,0,1,0,.07l-.16.23.28.07.16-.23a.1.1,0,0,1,.1,0,0,0,0,0,1,0,.07l-.4.57a.1.1,0,0,1-.1,0,0,0,0,0,1,0-.07l.16-.23-.27-.07-.17.23a.11.11,0,0,1-.09,0S241.22,267.62,241.24,267.59Z" style="fill:#fff"></path><path d="M242.38,267.76l-.26-.06-.14.11a.11.11,0,0,1-.08,0h0a.06.06,0,0,1,0-.08l.63-.51a.13.13,0,0,1,.08,0s0,0,0,.05l-.16.63s0,.06-.08.06h0s0,0,0-.05Zm0-.11.06-.23-.23.18Z" style="fill:#fff"></path><path d="M243.33,267.53l-.17,0-.36.52a.1.1,0,0,1-.1,0,0,0,0,0,1,0-.07l.36-.52-.17,0a0,0,0,0,1,0-.07.1.1,0,0,1,.1,0l.45.12s0,0,0,.07A.09.09,0,0,1,243.33,267.53Z" style="fill:#fff"></path><polygon points="228.64 276.79 239.05 279.55 241.11 276.59 230.7 273.83 230.7 273.83 228.64 276.79 228.64 276.79" style="fill:#455a64"></polygon><polygon points="240.02 279.8 239.05 279.55 239.69 278.64 240.02 279.8" style="fill:#455a64"></polygon><polygon points="240.12 277 230.9 274.56 230.94 274.5 240.16 276.94 240.12 277" style="fill:#fff"></polygon><polygon points="237.99 276.8 230.69 274.86 230.73 274.81 238.03 276.74 237.99 276.8" style="fill:#fff"></polygon><polygon points="238.73 277.71 230.27 275.47 230.31 275.41 238.77 277.65 238.73 277.71" style="fill:#fff"></polygon><polygon points="239.28 278.21 230.06 275.77 230.09 275.71 239.31 278.16 239.28 278.21" style="fill:#fff"></polygon><polygon points="239.06 278.52 229.84 276.07 229.88 276.02 239.1 278.46 239.06 278.52" style="fill:#fff"></polygon><polygon points="236.3 278.14 229.63 276.38 229.67 276.32 236.34 278.09 236.3 278.14" style="fill:#fff"></polygon><polygon points="223.79 283.76 234.2 286.52 236.25 283.57 225.84 280.81 225.84 280.81 223.79 283.76 223.79 283.76" style="fill:#455a64"></polygon><polygon points="235.16 286.78 234.2 286.52 234.83 285.62 235.16 286.78" style="fill:#455a64"></polygon><polygon points="235.26 283.98 226.04 281.54 226.08 281.48 235.3 283.92 235.26 283.98" style="fill:#fff"></polygon><polygon points="233.14 283.77 225.83 281.84 225.87 281.78 233.18 283.72 233.14 283.77" style="fill:#fff"></polygon><polygon points="233.87 284.69 225.41 282.44 225.45 282.39 233.91 284.63 233.87 284.69" style="fill:#fff"></polygon><polygon points="234.42 285.19 225.2 282.75 225.24 282.69 234.46 285.13 234.42 285.19" style="fill:#fff"></polygon><polygon points="234.21 285.49 224.99 283.05 225.03 283 234.25 285.44 234.21 285.49" style="fill:#fff"></polygon><polygon points="231.44 285.12 224.78 283.36 224.82 283.3 231.48 285.06 231.44 285.12" style="fill:#fff"></polygon><polygon points="244.11 273.92 233.7 271.16 235.44 268.67 245.85 271.42 244.11 273.92" style="fill:#FFC727"></polygon><polygon points="232.74 270.9 233.7 271.16 234.33 270.25 232.74 270.9" style="fill:#FFC727"></polygon><polygon points="243.36 271.38 235.69 269.34 235.72 269.29 243.4 271.32 243.36 271.38" style="fill:#fff"></polygon><polygon points="244.69 272.09 235.47 269.64 235.51 269.59 244.73 272.03 244.69 272.09" style="fill:#fff"></polygon><polygon points="244.48 272.39 235.26 269.95 235.3 269.89 244.52 272.33 244.48 272.39" style="fill:#fff"></polygon><polygon points="243.54 272.5 235.05 270.25 235.09 270.19 243.58 272.44 243.54 272.5" style="fill:#fff"></polygon><polygon points="244.06 273 234.84 270.56 234.88 270.5 244.1 272.94 244.06 273" style="fill:#fff"></polygon><polygon points="241.44 272.66 234.63 270.86 234.67 270.8 241.48 272.61 241.44 272.66" style="fill:#fff"></polygon><polygon points="242.55 276.17 232.13 273.41 233.42 271.56 243.83 274.32 242.55 276.17" style="fill:#FFC727"></polygon><polygon points="231.17 273.15 232.13 273.41 232.77 272.5 231.17 273.15" style="fill:#FFC727"></polygon><polygon points="242.87 274.68 233.67 272.24 233.71 272.18 242.91 274.62 242.87 274.68" style="fill:#fff"></polygon><polygon points="241.03 274.55 233.46 272.54 233.5 272.49 241.07 274.49 241.03 274.55" style="fill:#fff"></polygon><polygon points="241.58 275.05 233.25 272.84 233.29 272.79 241.62 275 241.58 275.05" style="fill:#fff"></polygon><polygon points="239.47 274.85 233.04 273.15 233.08 273.09 239.51 274.79 239.47 274.85" style="fill:#fff"></polygon><polygon points="237.7 283.13 227.29 280.37 229.1 277.77 239.51 280.52 237.7 283.13" style="fill:#dbdbdb"></polygon><polygon points="226.32 280.12 227.29 280.37 227.92 279.46 226.32 280.12" style="fill:#dbdbdb"></polygon><polygon points="237.43 281.65 228.72 279.34 228.76 279.29 237.47 281.59 237.43 281.65" style="fill:#fff"></polygon><polygon points="236.51 281.77 228.51 279.65 228.55 279.59 236.55 281.71 236.51 281.77" style="fill:#fff"></polygon><polygon points="237.35 280.91 229.15 278.74 229.19 278.68 237.39 280.86 237.35 280.91" style="fill:#fff"></polygon><polygon points="238.46 280.85 229.36 278.44 229.4 278.38 238.5 280.79 238.46 280.85" style="fill:#fff"></polygon><polygon points="236.59 282.14 228.3 279.95 228.34 279.89 236.62 282.09 236.59 282.14" style="fill:#fff"></polygon><polygon points="233.12 289.72 222.71 286.96 224.22 284.79 234.63 287.55 233.12 289.72" style="fill:#FFC727"></polygon><polygon points="221.74 286.7 222.71 286.96 223.34 286.05 221.74 286.7" style="fill:#FFC727"></polygon><polygon points="233.7 287.89 224.48 285.45 224.52 285.39 233.74 287.83 233.7 287.89" style="fill:#fff"></polygon><polygon points="233.49 288.19 224.27 285.75 224.31 285.69 233.53 288.14 233.49 288.19" style="fill:#fff"></polygon><polygon points="232.55 288.3 224.06 286.05 224.09 286 232.59 288.25 232.55 288.3" style="fill:#fff"></polygon><polygon points="233.06 288.8 223.84 286.36 223.88 286.3 233.1 288.74 233.06 288.8" style="fill:#fff"></polygon><polygon points="230.45 288.46 223.63 286.66 223.67 286.6 230.49 288.41 230.45 288.46" style="fill:#fff"></polygon><path d="M229.58,296.33c-3.67.28,7.82-7.92,7.74-12.12s-4.08-2.62-7.15-.06c-10.65,8.9-19.1,9-24.27,17.21S229.58,296.33,229.58,296.33Z" style="fill:#d3766a"></path><path d="M185.13,336.55c5.6-1.84,11.13-3.83,16.59-6A118.76,118.76,0,0,0,217.58,323a62.87,62.87,0,0,0,7.25-4.92c2.34-1.77,4.58-3.66,6.73-5.64a55.78,55.78,0,0,0,10.91-13.71,49.5,49.5,0,0,1-4.53,7.6A58.71,58.71,0,0,1,232.1,313a74,74,0,0,1-6.71,5.8,64.54,64.54,0,0,1-7.3,5.06,85.21,85.21,0,0,1-7.91,4q-4,1.83-8.19,3.38c-2.77,1-5.55,2-8.36,2.88S188,335.85,185.13,336.55Z" style="fill:#263238"></path><path d="M147.52,300.07c-.61-1.43-1.29-2.83-2-4.24,0,0-.06,0-.05,0,.37,1,.73,2,1.11,3l-.3-.43-.74-1.09s-.08,0-.07,0a11.71,11.71,0,0,0,.66,1.12l.38.54.2.27.07.08c.11.27.2.54.31.81.59,1.43,1.25,2.84,1.89,4.26,0,.1.23.06.19-.05C148.66,302.94,148.12,301.5,147.52,300.07Z" style="fill:#263238"></path><path d="M160.55,293.52c-.92-1.25-1.77-2.56-2.64-3.85,0,0,0-.06,0,0,.67.83,1.35,1.66,2,2.49l-.21-.48c-.18-.4-.37-.8-.56-1.19,0,0,0-.08.06-.05.22.37.43.74.62,1.14q.15.3.27.6l.12.31a.49.49,0,0,1,0,.11l.54.68c.92,1.24,1.8,2.53,2.69,3.8.06.09-.07.23-.14.15C162.42,296,161.46,294.77,160.55,293.52Z" style="fill:#263238"></path></g></svg>