<svg xmlns="http://www.w3.org/2000/svg" viewBox="0 0 500 500"><g id="freepik--background-complete--inject-2"><g id="freepik--aiZGp2--inject-2"><path d="M390.56,67.47a48.36,48.36,0,0,0-3.29,15H374V82.1c0-.34.07-.68.11-1a35.47,35.47,0,0,1,.88-5.23,40.24,40.24,0,0,1,2.95-8.19.29.29,0,0,1,.32-.2h12.32Z" style="fill:#ebebeb"></path><path d="M390.16,101H377.94a.27.27,0,0,1-.29-.19,37.65,37.65,0,0,1-3-9.24,38.47,38.47,0,0,1-.6-4.67.76.76,0,0,0,0-.16v-.37l.2,0H387c.24,0,.23,0,.25.24.08,1.07.15,2.14.25,3.2a40.55,40.55,0,0,0,.82,5,44,44,0,0,0,1.74,6C390.12,100.86,390.13,100.92,390.16,101Z" style="fill:#ebebeb"></path><path d="M441.52,104.86l-.1.18a36,36,0,0,1-3.46,4.49,34.15,34.15,0,0,1-5.08,4.68,36.06,36.06,0,0,1-11.88,6,36.89,36.89,0,0,1-5.09,1.09l-.5.08h-.29l-.28-.18.32-.23a39.2,39.2,0,0,0,9.63-9.34,44.59,44.59,0,0,0,3.94-6.53.28.28,0,0,1,.3-.19h12.49Z" style="fill:#ebebeb"></path><path d="M429.3,82.46H412.15v-15h13.39a.25.25,0,0,1,.27.18,41.65,41.65,0,0,1,2.73,8.79,44.47,44.47,0,0,1,.66,4.75C429.23,81.6,429.27,82,429.3,82.46Z" style="fill:#ebebeb"></path><path d="M429.2,86.47c0,.35,0,.7-.05,1-.08.84-.13,1.67-.25,2.51-.16,1.14-.34,2.29-.57,3.43a40.65,40.65,0,0,1-2.22,7.32.28.28,0,0,1-.31.22H412V86.47Z" style="fill:#ebebeb"></path><path d="M408.28,67.56v15H391.53c0-.39,0-.76.07-1.13.09-.84.15-1.68.29-2.51.2-1.28.42-2.55.69-3.81A39.44,39.44,0,0,1,395,67.74a.27.27,0,0,1,.29-.18h13Z" style="fill:#ebebeb"></path><path d="M408.3,86.66q0,7.07,0,14.12V101H394.91a.28.28,0,0,1-.3-.2,38.71,38.71,0,0,1-2.28-7.56c-.25-1.34-.44-2.68-.61-4-.11-.88-.13-1.77-.19-2.66,0,0,0,0,0-.09h16.55C408.26,86.45,408.3,86.5,408.3,86.66Z" style="fill:#ebebeb"></path><path d="M447.5,82.57H433.44a48.8,48.8,0,0,0-3.28-15.1h13.1a.28.28,0,0,1,.31.19A36.41,36.41,0,0,1,446.81,77a40.79,40.79,0,0,1,.69,5.28Z" style="fill:#ebebeb"></path><path d="M447.51,86.35c0,.34,0,.67-.05,1a36,36,0,0,1-3,12.22l-.6,1.3a.2.2,0,0,1-.21.14H430.55c.16-.45.32-.88.47-1.32a46.38,46.38,0,0,0,2.34-12c0-.4.05-.8.07-1.21,0-.1,0-.16.14-.15a.56.56,0,0,0,.13,0Z" style="fill:#ebebeb"></path><path d="M441.14,63.64l0,.06H428.64a.29.29,0,0,1-.3-.17,42.65,42.65,0,0,0-6.1-9.05,34.92,34.92,0,0,0-4.69-4.32c-.84-.64-1.71-1.25-2.56-1.87l-.14-.1.17-.12c0-.08,0-.16-.09-.27a36.82,36.82,0,0,1,26.21,15.84Z" style="fill:#ebebeb"></path><path d="M405.9,121.16a1.41,1.41,0,0,1-.36.06,32.26,32.26,0,0,1-4-.78,36.13,36.13,0,0,1-7.13-2.64,36.59,36.59,0,0,1-7.28-4.78,34,34,0,0,1-4.37-4.37,36.28,36.28,0,0,1-2.73-3.78l0-.11h11.65a.29.29,0,0,1,.29.19A42,42,0,0,0,401,117.26a39.43,39.43,0,0,0,4.75,3.81Z" style="fill:#ebebeb"></path><path d="M405.75,48.17c-.53.38-1.14.82-1.74,1.27a43.72,43.72,0,0,0-5.54,5.17,38.68,38.68,0,0,0-5.83,8.3c-.1.19-.18.39-.29.57a.23.23,0,0,1-.18.11H380.35a36.56,36.56,0,0,1,25.27-15.72l-.08.15Z" style="fill:#ebebeb"></path><path d="M424.18,104.87a39.59,39.59,0,0,1-5.66,7.67,36.23,36.23,0,0,1-6.47,5.49V104.87Z" style="fill:#ebebeb"></path><path d="M408.28,104.88v12.9a37.34,37.34,0,0,1-11.65-12.9Z" style="fill:#ebebeb"></path><path d="M423.8,63.58H412.15V51.29a35.49,35.49,0,0,1,6.54,5.48A41.63,41.63,0,0,1,423.8,63.58Z" style="fill:#ebebeb"></path><path d="M408.28,51.67v12H397.09A35.48,35.48,0,0,1,408.28,51.67Z" style="fill:#ebebeb"></path></g><path d="M332.41,119.4l-1.25-1.19.44-.48,1.26,1.2Z" style="fill:#a6a6a6"></path><path d="M326.7,188.22l0-.65c1.17,0,2.33-.1,3.45-.21l.07.65C329.06,188.12,327.88,188.19,326.7,188.22Zm-4.38-.07c-1.15-.07-2.32-.17-3.49-.31l.07-.64c1.16.13,2.32.24,3.45.3Zm12.21-.81-.13-.64c1.14-.23,2.27-.53,3.34-.86l.2.62C336.84,186.8,335.7,187.1,334.53,187.34Zm-20-.15c-1.12-.21-2.27-.45-3.42-.72l.15-.64c1.14.27,2.28.51,3.39.72Zm-7.65-1.84c-1.1-.33-2.22-.68-3.33-1.06l.2-.62c1.11.38,2.22.73,3.31,1.05Zm35.18-.48-.28-.59a28.12,28.12,0,0,0,3-1.65l.35.55A29.45,29.45,0,0,1,342,184.87Zm-42.62-2.08c-1.07-.42-2.16-.86-3.23-1.33l.26-.59c1.07.46,2.15.9,3.21,1.32Zm49.22-2.28-.44-.48a22.16,22.16,0,0,0,2.36-2.49l.51.41A24.46,24.46,0,0,1,348.63,180.51Zm-56.43-.86c-1-.49-2.07-1-3.13-1.56l.3-.57c1.05.54,2.08,1,3.11,1.55Zm-7-3.63c-1-.57-2-1.16-3-1.75l.33-.56c1,.59,2,1.17,3,1.75Zm68.26-1.73-.57-.31a21.91,21.91,0,0,0,1.39-3.13l.62.21A22.84,22.84,0,0,1,353.5,174.29Zm-75-2.33c-1-.64-1.95-1.28-2.9-1.94l.37-.53q1.42,1,2.88,1.92Zm-6.46-4.47c-.93-.69-1.86-1.39-2.78-2.1l.4-.51c.91.7,1.84,1.4,2.77,2.09Zm84-.69-.64-.11a26.92,26.92,0,0,0,.36-3.42l.65,0A28.4,28.4,0,0,1,356.05,166.8Zm-90.17-4.13c-.9-.74-1.8-1.49-2.68-2.25l.43-.5c.88.76,1.76,1.51,2.66,2.24Zm89.77-3.7c-.11-1.12-.27-2.27-.49-3.42l.63-.12c.23,1.17.4,2.34.51,3.48Zm-95.72-1.43c-.86-.78-1.71-1.57-2.56-2.36l.44-.47c.85.79,1.7,1.57,2.56,2.34Zm-5.71-5.35c-.84-.81-1.67-1.62-2.49-2.44l.45-.47,2.49,2.44Zm99.89-.83c-.33-1.07-.71-2.17-1.14-3.26l.61-.24c.43,1.11.82,2.23,1.15,3.31Zm-105.46-4.7-2.43-2.5.47-.45q1.22,1.26,2.43,2.49Zm102.6-2.53c-.49-1-1-2.06-1.59-3.08l.57-.32c.57,1,1.11,2.08,1.61,3.11Zm-108-3.1-2.41-2.52.47-.45,2.41,2.52Zm104.24-3.7c-.61-1-1.26-1.93-1.93-2.89l.53-.37c.68,1,1.34,2,1.95,2.91Zm-109.65-2-2.4-2.52.47-.45,2.4,2.53ZM342.92,131c-.69-.9-1.43-1.8-2.18-2.7l.5-.42c.76.9,1.5,1.82,2.2,2.72Zm-110.54-1.27-2.42-2.5.46-.46,2.43,2.51Zm105.5-4.7c-.77-.84-1.56-1.68-2.38-2.52L336,122q1.25,1.27,2.4,2.55Zm-111-.91-2.45-2.46.45-.46,2.47,2.46Zm-5.56-5.51c-.82-.8-1.66-1.6-2.51-2.41l.45-.47c.85.8,1.69,1.61,2.52,2.41Zm-5.68-5.38c-.85-.78-1.7-1.56-2.57-2.34l.43-.49,2.58,2.35ZM209.84,108c-.87-.76-1.75-1.51-2.64-2.26l.42-.5c.9.76,1.78,1.51,2.65,2.27Zm-6-5-2.72-2.18.41-.51c.92.73,1.82,1.46,2.72,2.19Zm-6.15-4.84c-.91-.7-1.84-1.39-2.78-2.09l.38-.52c.95.7,1.88,1.39,2.79,2.09Zm-6.31-4.63c-.93-.66-1.88-1.33-2.85-2l.37-.54c1,.67,1.92,1.33,2.86,2Zm-6.46-4.41c-.95-.64-1.93-1.27-2.91-1.9l.35-.54c1,.63,2,1.26,2.92,1.89Zm-6.6-4.2c-1-.6-2-1.2-3-1.79l.33-.56c1,.59,2,1.19,3,1.8Zm-6.74-4-3-1.69.31-.58,3.05,1.71Zm-6.86-3.76c-1-.54-2-1.07-3.08-1.61l.29-.58,3.1,1.61Zm-7-3.56c-1-.5-2.07-1-3.13-1.51l.28-.59c1.06.5,2.11,1,3.14,1.52ZM150.7,70.2l-3.17-1.44.27-.59c1.07.48,2.13,1,3.17,1.43ZM143.54,67l-3.21-1.35.25-.6,3.22,1.35Z" style="fill:#a6a6a6"></path><path d="M136.1,64l-1.62-.64.24-.61,1.62.64Z" style="fill:#a6a6a6"></path><polygon points="138.16 51.55 143.9 67.31 131.85 57.9 85.8 41.2 138.16 51.55" style="fill:#dbdbdb"></polygon><polygon points="130.31 61.57 143.9 67.31 131.85 57.9 130.31 61.57" style="fill:#c7c7c7"></polygon><polygon points="131.85 57.9 85.8 41.2 123.57 78.06 131.85 57.9" style="fill:#ebebeb"></polygon><polygon points="138.16 51.55 157.3 39.19 85.8 41.2 138.16 51.55" style="fill:#ebebeb"></polygon><path d="M160,379l-.21-.08-1.12-.44.23-.6,1.13.45,2,.78-.23.6Zm-5.27-2.13c-1.07-.44-2.11-.88-3.14-1.33l.26-.58,3.12,1.33Zm11.09,4.33.22-.6,3.2,1.14-.21.6Zm7.23,2.53.2-.6,3.23,1.07-.2.61Zm-25.34-9.92c-1.05-.48-2.08-1-3.08-1.45l.27-.57c1,.48,2,1,3.07,1.44Zm32.62,12.3.19-.61,3.24,1-.18.61Zm-39.52-15.65c-1-.52-2-1.05-3-1.58l.31-.57q1.46.8,3,1.59Zm46.84,17.89.18-.62,3.26,1-.18.61Zm-53.56-21.56c-1-.58-2-1.17-2.92-1.76l.34-.54c.94.59,1.91,1.17,2.9,1.75ZM195,390.42l.18-.61,3.27.9-.17.62Zm7.39,2,.16-.61.86.22,2.43.62-.15.62-2.44-.62Zm-74.79-29.75c-.95-.65-1.89-1.31-2.79-2l.37-.51c.9.65,1.83,1.31,2.77,1.95Zm82.24,31.55.14-.62c1.1.24,2.21.46,3.33.68l-.12.62C212.1,394.7,211,394.47,209.87,394.23Zm7.54,1.43.11-.63c1.11.19,2.23.37,3.35.53l-.09.63C219.65,396,218.53,395.85,217.41,395.66Zm-95.95-37.54c-.91-.74-1.79-1.48-2.61-2.21l.43-.47c.81.72,1.68,1.45,2.58,2.18ZM225,396.76l.07-.63c1.13.14,2.25.26,3.37.38l-.06.64C227.25,397,226.12,396.9,225,396.76ZM115.75,353c-.81-.82-1.6-1.65-2.34-2.49l.48-.42c.73.82,1.51,1.65,2.31,2.47Zm116.86,44.57,0-.64c1.13.1,2.25.19,3.38.26l0,.64C234.87,397.73,233.74,397.65,232.61,397.55Zm7.63.51,0-.64,3.39.15,0,.63ZM110.71,347.19c-.69-.92-1.35-1.86-2-2.8l.53-.35c.6.93,1.25,1.86,1.94,2.76Zm137.2,51.12v-.63l3.39,0v.64ZM106.58,340.7c-.53-1-1-2.05-1.47-3.09l.59-.25c.44,1,.93,2.05,1.45,3Zm149,57.63v-.64c1.14,0,2.27,0,3.4-.06v.64C257.85,398.29,256.71,398.32,255.57,398.33Zm7.66-.2,0-.64,3.4-.16,0,.64ZM103.62,333.6a19.72,19.72,0,0,1-.73-3.38l.64-.07a18.52,18.52,0,0,0,.7,3.26Zm167.26,64.12,0-.64,3.39-.24,0,.63Zm7.64-.61-.06-.63,3.39-.33.06.63Q280.25,397,278.52,397.11ZM103,325.89a11.93,11.93,0,0,1,.65-2.24,10.62,10.62,0,0,1,.46-1l.57.28c-.16.32-.31.66-.44,1a12.19,12.19,0,0,0-.62,2.14Zm183.11,70.43-.08-.63,3.38-.41.08.63Zm7.6-1-.09-.63c1.16-.16,2.28-.32,3.37-.49l.09.63C296,395,294.91,395.19,293.75,395.35ZM107.09,319.5l-.47-.43a20,20,0,0,1,2.56-2.32l.38.51A19.24,19.24,0,0,0,107.09,319.5Zm194.24,74.71-.1-.63,3.35-.57.11.63Zm7.56-1.33-.12-.63c1.2-.23,2.32-.44,3.34-.65l.13.63ZM113.09,315l-.3-.55a34.17,34.17,0,0,1,3.09-1.5l.25.59C115.06,314,114,314.48,113.09,315Zm203.32,76.36-.14-.63c2.16-.47,3.32-.76,3.33-.77l.15.62S318.58,390.87,316.41,391.35ZM120.08,312l-.2-.6c1-.35,2.14-.68,3.27-1l.17.62C122.2,311.36,121.11,311.69,120.08,312Zm7.36-2-.13-.62c1.09-.23,2.22-.44,3.36-.63l.1.63C129.64,309.63,128.52,309.84,127.44,310.07Zm7.53-1.23-.08-.63c1.13-.14,2.27-.26,3.4-.36l.05.64C137.22,308.58,136.09,308.7,135,308.84Zm7.6-.63,0-.64c1.15-.05,2.3-.08,3.42-.09v.64C144.86,308.13,143.72,308.16,142.57,308.21Z" style="fill:#a6a6a6"></path><polygon points="329.66 378.3 319.68 390.26 333.17 385.84 378.69 385.75 329.66 378.3" style="fill:#dbdbdb"></polygon><polygon points="333.36 389.53 319.68 390.26 333.17 385.84 333.36 389.53" style="fill:#c7c7c7"></polygon><polygon points="333.17 385.84 378.69 385.75 334.05 406.07 333.17 385.84" style="fill:#ebebeb"></polygon><polygon points="329.66 378.3 316.82 361.46 378.69 385.75 329.66 378.3" style="fill:#ebebeb"></polygon></g><g id="freepik--Floor--inject-2"><polygon points="42.29 409.55 94.21 409.31 146.14 409.22 250 409.05 353.86 409.22 405.79 409.3 457.71 409.55 405.79 409.79 353.86 409.88 250 410.05 146.14 409.88 94.21 409.79 42.29 409.55" style="fill:#263238"></polygon></g><g id="freepik--Newspaper--inject-2"><rect x="80.13" y="93.94" width="339.74" height="263.05" style="fill:#c7c7c7"></rect><polygon points="419.87 356.99 80.13 356.99 80.13 85.53 345.94 85.53 419.87 151.55 419.87 356.99" style="fill:#ebebeb"></polygon><path d="M177.37,132.56v27.1H171.3V121.17h4.77l22,27.76V121.22h6.13v38.44h-5Z" style="fill:#FFC727"></path><path d="M239.29,154.3v5.36h-26.4V121.17H238.8v5.37H219v11h17.19v5H219V154.3Z" style="fill:#FFC727"></path><path d="M259.24,121.33H265l4.72,13.07,4.77-13.07h5.69l-6.56,17.14,5.75,14.15,12-31.45H298l-15.89,38.49h-5.2l-7.16-17.24-7.21,17.24h-5.2l-15.89-38.49h6.61l12,31.45,5.75-14.15Z" style="fill:#FFC727"></path><path d="M324.42,130.22a8.84,8.84,0,0,0-1.58-1.27,15,15,0,0,0-2.41-1.27,16.93,16.93,0,0,0-3-1,15.23,15.23,0,0,0-3.38-.38q-3.86,0-5.67,1.41a4.67,4.67,0,0,0-1.82,3.9,4.25,4.25,0,0,0,.57,2.31,5,5,0,0,0,1.76,1.57,13.77,13.77,0,0,0,3,1.19q1.79.53,4.17,1.11a47.39,47.39,0,0,1,5.29,1.58,15.06,15.06,0,0,1,4,2.11,8.46,8.46,0,0,1,2.52,3.06,9.92,9.92,0,0,1,.9,4.42,10.73,10.73,0,0,1-1.11,5.05,9.52,9.52,0,0,1-3,3.44,13.14,13.14,0,0,1-4.47,1.95,22.83,22.83,0,0,1-5.48.62,27.44,27.44,0,0,1-8.48-1.32,24.33,24.33,0,0,1-7.4-3.88l2.76-5.21a13.22,13.22,0,0,0,2,1.58,20.2,20.2,0,0,0,3.09,1.6,27.75,27.75,0,0,0,3.83,1.24,17.24,17.24,0,0,0,4.28.52,10.27,10.27,0,0,0,5.53-1.25,4.1,4.1,0,0,0,1.95-3.69,4,4,0,0,0-.73-2.44,6.15,6.15,0,0,0-2.09-1.7,18.06,18.06,0,0,0-3.3-1.33c-1.31-.4-2.79-.82-4.45-1.25a44.78,44.78,0,0,1-5-1.6,12.77,12.77,0,0,1-3.55-2,8.09,8.09,0,0,1-2.14-2.79,9.27,9.27,0,0,1-.73-3.88,11.26,11.26,0,0,1,1.08-5,10.76,10.76,0,0,1,3-3.68,12.73,12.73,0,0,1,4.42-2.25,19.15,19.15,0,0,1,5.53-.76,20.33,20.33,0,0,1,7.21,1.24,24.17,24.17,0,0,1,5.8,3.1Z" style="fill:#FFC727"></path><polygon points="372.97 109.66 95.32 109.66 95.32 102.34 364.77 102.34 372.97 109.66" style="fill:#c7c7c7"></polygon><polygon points="362.61 100.42 95.32 100.42 95.32 98.96 360.99 98.96 362.61 100.42" style="fill:#c7c7c7"></polygon><polygon points="377.65 113.84 95.32 113.84 95.32 112.39 376.02 112.39 377.65 113.84" style="fill:#c7c7c7"></polygon><rect x="95.32" y="168.7" width="309.37" height="7.31" style="fill:#c7c7c7"></rect><rect x="95.32" y="165.33" width="309.37" height="1.45" style="fill:#c7c7c7"></rect><rect x="95.32" y="178.76" width="309.37" height="1.44" style="fill:#c7c7c7"></rect><rect x="95.31" y="121.17" width="54.46" height="38.5" style="fill:#c7c7c7"></rect><polygon points="404.68 137.98 404.68 159.66 350.23 159.66 350.23 121.18 385.87 121.18 404.68 137.98" style="fill:#c7c7c7"></polygon><rect x="185.97" y="205.42" width="128.06" height="98.4" transform="translate(500 509.23) rotate(180)" style="fill:#FFC727"></rect><path d="M199.73,228.48a11.41,11.41,0,1,0,9-9A11.43,11.43,0,0,0,199.73,228.48Z" style="opacity:0.2"></path><polygon points="221.48 283.04 314.03 283.04 267.75 231.15 221.48 283.04" style="opacity:0.2"></polygon><polygon points="185.97 283.09 262.38 283.09 224.17 249.29 185.97 283.09" style="fill:#FFC727"></polygon><polygon points="185.97 283.09 262.38 283.09 224.17 249.29 185.97 283.09" style="opacity:0.30000000000000004"></polygon><rect x="185.97" y="283.04" width="128.06" height="20.77" style="fill:#FFC727"></rect><rect x="185.97" y="283.04" width="128.06" height="20.77" style="opacity:0.30000000000000004"></rect><rect x="185.97" y="189.13" width="102.52" height="3.43" style="fill:#a6a6a6"></rect><rect x="185.97" y="196.57" width="73.34" height="3.43" style="fill:#a6a6a6"></rect><rect x="95.32" y="189.19" width="75.98" height="3.43" style="fill:#a6a6a6"></rect><rect x="95.26" y="205.4" width="75.98" height="3.43" style="fill:#dbdbdb"></rect><rect x="95.26" y="211.8" width="75.98" height="3.43" style="fill:#dbdbdb"></rect><rect x="95.26" y="218.2" width="75.98" height="3.43" style="fill:#dbdbdb"></rect><rect x="95.26" y="224.6" width="75.98" height="3.43" style="fill:#dbdbdb"></rect><rect x="95.26" y="231" width="75.98" height="3.43" style="fill:#dbdbdb"></rect><rect x="95.26" y="237.39" width="75.98" height="3.43" style="fill:#dbdbdb"></rect><rect x="95.26" y="243.79" width="75.98" height="3.43" style="fill:#dbdbdb"></rect><rect x="95.26" y="250.19" width="75.98" height="3.43" style="fill:#dbdbdb"></rect><rect x="95.26" y="256.59" width="44.5" height="3.43" style="fill:#dbdbdb"></rect><rect x="95.26" y="269.39" width="75.98" height="3.43" style="fill:#dbdbdb"></rect><rect x="95.26" y="275.79" width="75.98" height="3.43" style="fill:#dbdbdb"></rect><rect x="95.26" y="282.18" width="75.98" height="3.43" style="fill:#dbdbdb"></rect><rect x="95.26" y="288.58" width="75.98" height="3.43" style="fill:#dbdbdb"></rect><rect x="95.26" y="294.98" width="44.5" height="3.43" style="fill:#dbdbdb"></rect><rect x="95.32" y="196.63" width="54.36" height="3.43" style="fill:#a6a6a6"></rect><rect x="328.7" y="189.19" width="75.98" height="3.43" style="fill:#a6a6a6"></rect><rect x="328.64" y="205.4" width="75.98" height="3.43" style="fill:#dbdbdb"></rect><rect x="328.64" y="211.8" width="75.98" height="3.43" style="fill:#dbdbdb"></rect><rect x="328.64" y="218.2" width="75.98" height="3.43" style="fill:#dbdbdb"></rect><rect x="328.64" y="224.6" width="44.8" height="3.43" style="fill:#dbdbdb"></rect><rect x="328.64" y="237.39" width="75.98" height="3.43" style="fill:#dbdbdb"></rect><rect x="328.64" y="243.79" width="75.98" height="3.43" style="fill:#dbdbdb"></rect><rect x="328.64" y="250.19" width="75.98" height="3.43" style="fill:#dbdbdb"></rect><rect x="328.64" y="256.59" width="75.98" height="3.43" style="fill:#dbdbdb"></rect><rect x="328.64" y="262.99" width="44.8" height="3.43" style="fill:#dbdbdb"></rect><rect x="328.64" y="275.79" width="75.98" height="3.43" style="fill:#dbdbdb"></rect><rect x="328.64" y="282.18" width="75.98" height="3.43" style="fill:#dbdbdb"></rect><rect x="328.64" y="288.58" width="75.98" height="3.43" style="fill:#dbdbdb"></rect><rect x="328.64" y="294.98" width="75.98" height="3.43" style="fill:#dbdbdb"></rect><rect x="328.64" y="301.38" width="44.8" height="3.43" style="fill:#dbdbdb"></rect><rect x="328.7" y="196.63" width="54.36" height="3.43" style="fill:#a6a6a6"></rect><rect x="95.32" y="314.62" width="75.98" height="3.43" style="fill:#a6a6a6"></rect><rect x="95.26" y="330.84" width="75.98" height="3.43" style="fill:#dbdbdb"></rect><rect x="95.26" y="337.24" width="75.98" height="3.43" style="fill:#dbdbdb"></rect><rect x="95.26" y="343.63" width="75.98" height="3.43" style="fill:#dbdbdb"></rect><rect x="95.26" y="350.03" width="75.98" height="3.43" style="fill:#dbdbdb"></rect><rect x="95.32" y="322.07" width="54.36" height="3.43" style="fill:#a6a6a6"></rect><rect x="186.25" y="314.62" width="127.78" height="3.43" style="fill:#a6a6a6"></rect><rect x="186.15" y="330.84" width="127.78" height="3.43" style="fill:#dbdbdb"></rect><rect x="186.15" y="337.24" width="127.78" height="3.43" style="fill:#dbdbdb"></rect><rect x="186.15" y="343.63" width="127.78" height="3.43" style="fill:#dbdbdb"></rect><rect x="186.15" y="350.03" width="127.78" height="3.43" style="fill:#dbdbdb"></rect><rect x="186.25" y="322.07" width="91.41" height="3.43" style="fill:#a6a6a6"></rect><rect x="328.7" y="314.62" width="75.98" height="3.43" style="fill:#a6a6a6"></rect><rect x="328.64" y="330.84" width="75.98" height="3.43" style="fill:#dbdbdb"></rect><rect x="328.64" y="337.24" width="75.98" height="3.43" style="fill:#dbdbdb"></rect><rect x="328.64" y="343.63" width="75.98" height="3.43" style="fill:#dbdbdb"></rect><rect x="328.64" y="350.03" width="44.8" height="3.43" style="fill:#dbdbdb"></rect><rect x="328.7" y="322.07" width="54.36" height="3.43" style="fill:#a6a6a6"></rect><polygon points="345.94 85.53 347.83 151.91 419.87 151.55 345.94 85.53" style="fill:#dbdbdb"></polygon></g><g id="freepik--Plant--inject-2"><path d="M404.67,351.21S388.76,347.6,380,339.57s-13.59-22.43-13.59-22.43a136.58,136.58,0,0,1,17.84,4.68,30.54,30.54,0,0,1,5.4,7.64,37.74,37.74,0,0,0,0-5.46,24.21,24.21,0,0,1,5.66,3.44C402.62,333.77,404.67,351.21,404.67,351.21Z" style="fill:#FFC727"></path><path d="M376.38,324.13c-2.17-1.5-4.38-2.94-6.53-4.46a.12.12,0,0,1,.13-.21c4.1,2.45,8.14,5.06,12,7.81,1.36,1,2.7,2,4,3l-.28-.47c-.47-.8-1-1.58-1.48-2.37a34.43,34.43,0,0,0-3.38-4.51c0-.05,0-.12.08-.07,1.24,1.43,2.48,2.84,3.61,4.36.54.72,1,1.46,1.51,2.23.25.39.49.79.71,1.2.08.13.17.27.24.41,2.06,1.61,4.06,3.3,6,5.08q1.75,1.65,3.41,3.41c-.61-1.92-1.15-3.87-1.86-5.76,0-.07.08-.1.1,0,.69,2,1.45,4,2,6q1.83,2,3.48,4.1l-.06-.26c-.18-.75-.37-1.5-.57-2.24-.38-1.44-.81-2.87-1.29-4.28A24.88,24.88,0,0,0,394,329c0-.06,0-.13.08-.08a31.12,31.12,0,0,1,6.1,12.72q.25,1,.48,2c.08.36.18.73.24,1.1.48.65.95,1.31,1.4,2A68.7,68.7,0,0,1,409,360a152.34,152.34,0,0,1,5.09,15.9c0,.1-.12.14-.16,0-3.11-9.31-6.29-18.75-11.61-27.07-1.13-1.76-2.35-3.45-3.64-5.09a29.63,29.63,0,0,1-7.73-1.54,34.48,34.48,0,0,1-7.76-3.74c-1.4-.91-2.67-2-4-3a.06.06,0,1,1,.07-.09,31.29,31.29,0,0,0,7.29,4.41,39.43,39.43,0,0,0,8,2.7c1.18.25,2.37.44,3.56.6a67.77,67.77,0,0,0-4.69-5.19c-.54-.54-1.09-1.05-1.64-1.57a37.35,37.35,0,0,0-5.89-3.37c-2.6-1.26-5.17-2.59-7.75-3.91-1.45-.74-2.9-1.49-4.37-2.21-.06,0,0-.12.06-.09,2.62,1.26,5.27,2.44,7.91,3.65,2.48,1.14,5,2.28,7.38,3.62l.3.18q-3.23-2.82-6.67-5.39C380.69,327.2,378.55,325.64,376.38,324.13Z" style="fill:#263238"></path><path d="M377.29,332.34c1.29.56,2.61,1.07,3.89,1.66s2.56,1.34,3.81,2.08c.06,0,0,.11-.05.08-1.27-.6-2.55-1.17-3.81-1.8s-2.56-1.34-3.88-1.92C377.19,332.41,377.22,332.31,377.29,332.34Z" style="fill:#263238"></path><path d="M456.35,271a22.76,22.76,0,0,0-4.76,13.22c0,1.42.17,3.41.34,5.75a37.82,37.82,0,0,0-10.38,8.87A18.84,18.84,0,0,1,452,296.36a32,32,0,0,1-.61,4.75,18,18,0,0,0-6.75,1.34,15.06,15.06,0,0,1,6.09,1.21c-2.84,9-11.27,18.29-34.54,22.23a48.87,48.87,0,0,1,4.12-32.76C427.32,279.41,456.35,271,456.35,271Z" style="fill:#FFC727"></path><path d="M408.17,364.49q.6-5.78,1.51-11.53a229.42,229.42,0,0,1,4.69-22.78,92.55,92.55,0,0,1,3.36-10.39,14.47,14.47,0,0,1-.08-1.86c0-.74,0-1.49,0-2.24,0-1.49.09-3,.22-4.46a53.88,53.88,0,0,1,1.43-8.73c.42-1.66.92-3.29,1.4-4.93a.06.06,0,0,1,.11,0,64.49,64.49,0,0,0-1.72,8.71,80.14,80.14,0,0,0-.78,8.74c0,.8-.05,1.6-.05,2.4,0,.34,0,.68,0,1a76.69,76.69,0,0,1,3.92-8.12,99,99,0,0,1,8-11.92,4.75,4.75,0,0,1,.19-1.3c.11-.52.22-1,.34-1.56.24-1.06.5-2.12.79-3.17.58-2.11,1.35-4.15,2-6.23a.05.05,0,1,1,.1,0c-.62,2.06-1,4.2-1.5,6.29l-.69,3.12-.33,1.56s0,.08,0,.12q1.41-1.79,2.88-3.51c4.45-5.21,9.32-10,14.23-14.8.6-.58,1.22-1.16,1.83-1.73a0,0,0,1,1,.07.07c-4.68,4.89-9.3,9.84-13.67,15q-1.56,1.84-3.07,3.73l1.59-1.05c1.36-.88,2.73-1.75,4.14-2.54s2.84-1.56,4.29-2.28,3.08-1.34,4.52-2.18c.07,0,.12.07.06.09a33.28,33.28,0,0,0-4.25,2.36c-1.42.84-2.83,1.68-4.22,2.57s-2.75,1.72-4.1,2.6c-1.14.74-2.25,1.54-3.43,2.22a111.43,111.43,0,0,0-7.45,10.85,81,81,0,0,0-3.86,7.31l.84-.36,2.13-.94c1.37-.61,2.74-1.2,4.12-1.8,2.61-1.14,5.26-2.18,7.82-3.43a34.14,34.14,0,0,0,4.18-2.32c.06,0,.11.06.05.1-4.77,3.29-10.12,5.61-15.41,7.94l-2.29,1c-.63.28-1.26.59-1.9.83a81.3,81.3,0,0,0-3.94,10.79,218.74,218.74,0,0,0-5.06,22.52c-1.34,7.6-2.24,15.25-2.94,22.94-.09,1-.17,1.92-.28,2.87a.31.31,0,0,1-.61,0C407.36,372.28,407.76,368.37,408.17,364.49Z" style="fill:#263238"></path><path d="M422.33,300.21c.43-2.37,1.06-4.68,1.7-7,0-.07.12,0,.1,0-.59,2.28-1,4.59-1.44,6.9s-.82,4.72-1.15,7.09c0,0-.07,0-.06,0A61.14,61.14,0,0,1,422.33,300.21Z" style="fill:#263238"></path><path d="M432.36,306.63a41.24,41.24,0,0,1,5.06-2.85c.85-.44,1.71-.86,2.57-1.27s1.81-.79,2.69-1.23c.06,0,.11.06.05.09-.85.43-1.66.95-2.5,1.4s-1.71,1-2.58,1.41a57.26,57.26,0,0,1-5.16,2.67A.13.13,0,0,1,432.36,306.63Z" style="fill:#263238"></path><path d="M404.38,323.65s-14.72-3.52-21.48-13.39c-6.46-9.43-8.54-25.51-8.71-26.92.27,1.29,3.3,15.34,13.33,21.89C395.19,310.24,402.6,314.36,404.38,323.65Z" style="fill:#263238;opacity:0.1"></path><path d="M390.79,298.21a18.89,18.89,0,0,1,5.43,8.94s0,.05-.05,0a22,22,0,0,0-5.45-8.88C390.67,298.25,390.74,298.17,390.79,298.21Z" style="fill:#263238"></path><path d="M404.38,323.65s-14.72-3.52-21.48-13.39c-6.46-9.43-8.54-25.51-8.71-26.92a.65.65,0,0,0,0-.1s7.06,10,14.48,12.59S406.5,307.24,404.38,323.65Z" style="fill:#FFC727"></path><path d="M376.78,288.77a60.36,60.36,0,0,0,4.55,7.78,30.85,30.85,0,0,0,6.06,6.23c2,1.59,4.11,3,6.14,4.59l0-.07c-.38-.57-.79-1.12-1.2-1.65-.85-1.08-1.77-2.1-2.7-3.1-1.83-2-3.69-3.93-5.33-6.08a22.29,22.29,0,0,1-2.36-3.8c0-.07.07-.1.1,0,2.39,5,7.16,8.16,10.56,12.36.48.6.94,1.22,1.36,1.86a7.63,7.63,0,0,1,.85,1.5,30.93,30.93,0,0,1,5,5.08,19.6,19.6,0,0,0-.59-2.86,14.73,14.73,0,0,0-1.56-3.73.05.05,0,1,1,.09-.06,18,18,0,0,1,1.72,3.7,13.39,13.39,0,0,1,.53,3.18h0a29.67,29.67,0,0,1,2,3.1c-.06-.32-.12-.63-.19-.95-.29-1.46-.61-2.93-1-4.37a26.33,26.33,0,0,0-3.54-8.3s.05-.11.09-.06a31.88,31.88,0,0,1,3.92,8.12c.47,1.44.85,2.91,1.18,4.39.16.73.3,1.45.44,2.18.07.38.16.76.22,1.15a52.89,52.89,0,0,1,3.39,10,146.5,146.5,0,0,1,3.14,18.62,155.34,155.34,0,0,1,1,19.76c0,.83-.07,1.65-.11,2.48,0,.21-.33.24-.34,0-.15-3.27-.23-6.54-.42-9.8s-.48-6.52-.83-9.78a174.93,174.93,0,0,0-3.07-19c-1.19-5.38-2.74-10.8-5.68-15.52a29.46,29.46,0,0,0-5.31-6.31c-2.07-1.85-4.32-3.48-6.5-5.19a35.59,35.59,0,0,1-6-5.74,46.5,46.5,0,0,1-4.68-7.59l-1.06-2C376.66,288.77,376.75,288.71,376.78,288.77Z" style="fill:#263238"></path><path d="M379.32,290.93a49.9,49.9,0,0,0,3.28,5.73s0,.09-.07,0a39.93,39.93,0,0,1-3.31-5.74C379.19,290.9,379.29,290.87,379.32,290.93Z" style="fill:#263238"></path><path d="M458.4,317.14s.23,20.92-12.28,27-19.21,1-27.71,3h0c.33-.5,6.4-9.22,16.05-11.62C444.39,333,455.39,325.86,458.4,317.14Z" style="fill:#FFC727"></path><path d="M458.4,317.14s.23,20.92-12.28,27-19.21,1-27.71,3h0a47.44,47.44,0,0,1,14.23-4.2C440.53,342,455.6,336.83,458.4,317.14Z" style="opacity:0.1"></path><path d="M417.59,347.5a21.25,21.25,0,0,1,5-3.37c.27-.13.54-.23.82-.35s.27-.32.42-.48a15.34,15.34,0,0,1,1.17-1.11,17.91,17.91,0,0,1,2.52-1.82c2.07-1.22,4.34-2.07,6.46-3.2.06,0,.12.06.06.09-1.05.55-2.07,1.15-3.09,1.74s-2,1.13-3,1.75a21.38,21.38,0,0,0-2.48,1.86c-.22.19-.43.4-.64.61a34.52,34.52,0,0,1,4.22-1.12c2.29-.46,4.61-.79,6.9-1.28a33.6,33.6,0,0,0,3.31-.89c1-.84,2.08-1.67,3.06-2.57a25.64,25.64,0,0,0,3.24-3.59.05.05,0,0,1,.09.06,38.75,38.75,0,0,1-5.13,5.66c.54-.21,1.07-.43,1.6-.67A25.84,25.84,0,0,0,452.79,330c0-.05.13,0,.09.06a29.33,29.33,0,0,1-8.62,8.28,26.14,26.14,0,0,1-5.45,2.58,50.82,50.82,0,0,1-6.77,1.6,47,47,0,0,0-6.63,1.58,19.85,19.85,0,0,0-5.56,2.92,26.07,26.07,0,0,0-7.5,9.29,46.64,46.64,0,0,0-4.12,15.3c0,.22-.38.22-.36,0C408.46,362.76,410.81,353.61,417.59,347.5Z" style="fill:#263238"></path><path d="M432.1,340.68a7.19,7.19,0,0,1,2.57-2.33,9.48,9.48,0,0,0,3.06-2.53c0-.06.14,0,.09.06a10.19,10.19,0,0,1-2.7,2.41,9.5,9.5,0,0,0-2.94,2.44S432.07,340.73,432.1,340.68Z" style="fill:#263238"></path><polygon points="425.46 362.94 424.9 374.45 423.15 409.59 396.91 409.59 395.17 374.45 394.6 362.94 425.46 362.94" style="fill:#37474f"></polygon><polygon points="425.46 362.94 424.9 374.45 395.17 374.45 394.6 362.94 425.46 362.94" style="fill:#263238"></polygon><rect x="392.76" y="358.14" width="34.55" height="10.97" style="fill:#37474f"></rect></g><g id="freepik--Shadow--inject-2"><ellipse cx="144.64" cy="457.2" rx="86.59" ry="12.27" style="fill:#ebebeb"></ellipse></g><g id="freepik--Character--inject-2"><path d="M198.81,457.79c-2.32.75-68.31-.11-70.8-1.74-1-.6-1.39-10.22-1.59-21.86v-.37c0-2.4-.07-4.87-.08-7.37,0-.35,0-.69,0-1l3.2-34.23,44.15.44-4.36,33.92,0,1.34-.27,7,0,.72s25.11,11.63,27.66,13.71S201.12,457.06,198.81,457.79Z" style="fill:#d3766a"></path><path d="M198.81,457.79c-2.32.75-68.31-.11-70.8-1.74-1-.6-1.39-10.22-1.59-21.86v-.37c0-2.4-.07-4.87-.08-7.37,0-.35,0-.69,0-1l43,.13,0,1.34-.27,7,0,.72s25.11,11.63,27.66,13.71S201.12,457.06,198.81,457.79Z" style="fill:#ebebeb"></path><path d="M199.24,458c-2.34.75-69.23-.14-71.76-1.78-1-.62-1.41-10.37-1.6-22.17l43.13.45s25.45,11.8,28,13.9S201.59,457.21,199.24,458Z" style="fill:#455a64"></path><path d="M158.65,457.88c-15.62-.36-30-.95-31.17-1.7-1-.62-1.41-10.37-1.6-22.17l9.74.1Z" style="opacity:0.1"></path><path d="M198.32,455.27c-11.21-.42-56.46-1.07-67.57-.64-.09,0-.09.06,0,.07,11.1.66,56.35.95,67.57.76C198.55,455.45,198.56,455.28,198.32,455.27Z" style="fill:#263238"></path><path d="M173.34,435.64c-4.49-.13-9.71,1.39-12.55,5-.11.14.09.3.23.23a62,62,0,0,1,12.39-4.7A.28.28,0,0,0,173.34,435.64Z" style="fill:#263238"></path><path d="M176.79,437c-4.49-.12-9.71,1.4-12.55,5-.11.14.09.29.22.23a61.7,61.7,0,0,1,12.4-4.7A.29.29,0,0,0,176.79,437Z" style="fill:#263238"></path><path d="M180.23,438.43c-4.48-.12-9.71,1.39-12.55,5-.11.14.1.29.23.22A62.84,62.84,0,0,1,180.3,439,.28.28,0,0,0,180.23,438.43Z" style="fill:#263238"></path><path d="M133.74,444c-5-.06-5.12,7.77-.08,7.82S138.79,444.07,133.74,444Z" style="fill:#263238"></path><path d="M171.9,434.05H124.37s9.57-111,9.2-112.95c-.48-2.48-3.28-13.72-7-28.39-1.17-4.6-2.43-9.52-3.74-14.63-3.55-13.81-7.45-28.9-10.86-42-5.1-19.67-9.09-35-9.09-35h40.28s4.69,14.88,10.61,34.25c9.64,31.46,22.52,74.77,23.79,85.3C179.6,337.63,171.9,434.05,171.9,434.05Z" style="fill:#263238"></path><path d="M169.79,425.94c-7.26-.15-5.17-.21-12.43-.28-3.55,0-26.9-.24-30.22.31-.07,0-.07.13,0,.15,3.32.55,26.67.34,30.22.31,7.26-.07,5.17-.13,12.43-.28A.1.1,0,0,0,169.79,425.94Z" style="fill:#37474f"></path><path d="M142.51,314.32c-1.56-6.87-3.89-13.6-5.91-20.35q-6.18-20.55-12.44-41.08-3.12-10.27-6.26-20.53c-1.07-3.45-2.13-6.91-3.21-10.35s-2.26-6.72-3.22-10.12c-.38-1.39-.6-.63-.1,1.13,1,3.55,2,7.09,3,10.63q3.06,10.5,6.18,21,6.18,20.88,12.46,41.74l6.3,20.91a84.7,84.7,0,0,1,2.56,10.12,46.09,46.09,0,0,1,.42,10.82c-.45,7.28-1.29,14.54-2,21.79s-1.35,14.54-2,21.81q-2,21.71-4,43.41c-.17,1.83-.33,3.66-.47,5.5,0,.61.88.57.94,0,1.57-14.31,2.77-28.66,4.11-43s2.68-28.51,4-42.77c.33-3.58.71-7.17.72-10.77A44.39,44.39,0,0,0,142.51,314.32Z" style="fill:#37474f"></path><path d="M138.56,201.08c-2.79,21.64-8.12,62.2-12,91.63-9.08-35.66-23.69-91.63-23.69-91.63Z" style="fill:#37474f"></path><path d="M148.46,458.43c-2.31.75-68.31.14-70.8-1.48-1-.6-1.43-10.22-1.67-21.86v-.37c-.06-2.4-.1-4.87-.11-7.37,0-.35,0-.69,0-1-.15-16.81,1.06-34.24,1.06-34.24l43.14.28-1.21,33.92,0,1.34-.24,7,0,.73S143.7,446.9,146.26,449,150.77,457.68,148.46,458.43Z" style="fill:#d3766a"></path><path d="M148.46,458.43c-2.31.75-68.31.14-70.8-1.48-1-.6-1.43-10.22-1.67-21.86v-.37c-.06-2.4-.1-4.87-.11-7.37,0-.35,0-.69,0-1l43,0,0,1.34-.24,7,0,.73S143.7,446.9,146.26,449,150.77,457.68,148.46,458.43Z" style="fill:#ebebeb"></path><path d="M149.23,458.66c-2.35.75-69.24-.14-71.77-1.78-1-.62-1.4-10.37-1.6-22.17l43.13.45s25.46,11.79,28,13.9S151.58,457.91,149.23,458.66Z" style="fill:#455a64"></path><path d="M148.31,456c-11.21-.42-56.47-1.08-67.58-.64-.09,0-.09.06,0,.07,11.1.66,56.36,1,67.57.75C148.54,456.15,148.54,456,148.31,456Z" style="fill:#263238"></path><path d="M123.33,436.33c-4.49-.12-9.72,1.4-12.55,5-.11.14.09.29.22.23a61.7,61.7,0,0,1,12.4-4.7A.29.29,0,0,0,123.33,436.33Z" style="fill:#263238"></path><path d="M126.77,437.73c-4.48-.12-9.71,1.39-12.55,5-.11.14.1.29.23.22a62.61,62.61,0,0,1,12.39-4.7A.28.28,0,0,0,126.77,437.73Z" style="fill:#263238"></path><path d="M130.22,439.13c-4.49-.13-9.71,1.39-12.55,5-.11.14.09.3.23.23a62,62,0,0,1,12.39-4.7A.28.28,0,0,0,130.22,439.13Z" style="fill:#263238"></path><path d="M141.84,201.08s-.93,19.28-5.34,34.54c-.36,1.26-.74,2.5-1.16,3.69a71.87,71.87,0,0,0-11.6,6s-.47,15.51-.93,32.8c-.52,19.33-1,40.89-.94,45.47.4,17.11-2.14,111.19-2.14,111.19l-47.52.19S80.8,329.87,80.74,323.6c-.09-10.08,2.3-54.61,4.15-87.08C86,216.51,87,201.08,87,201.08Z" style="fill:#263238"></path><path d="M118.1,426.29c-7.26-.12-5.17-.19-12.43-.23-3.56,0-26.9-.12-30.22.44-.07,0-.07.14,0,.15,3.32.54,26.67.23,30.22.18,7.26-.1,5.17-.15,12.43-.33A.11.11,0,0,0,118.1,426.29Z" style="fill:#37474f"></path><path d="M90.94,208c-.87,26.51-1.8,53-3,79.52s-2.8,53.17-5,79.7c-1.25,14.81-2.42,35.66-4,50.44,0,.1.14.14.16,0,3.46-26.3,5.39-58.82,7.09-85.28s2.85-53,3.75-79.46c.51-15,.9-30,1.35-45C91.28,207.74,91,207.76,90.94,208Z" style="fill:#37474f"></path><path d="M137.32,238.17a87.3,87.3,0,0,0-13.58,7.11.16.16,0,0,0,.14.28c4.58-2.23,9.26-4.37,13.72-6.85A.3.3,0,0,0,137.32,238.17Z" style="fill:#37474f"></path><path d="M137.59,221.82c-.32,1.68-.73,3.36-1.09,5s-.6,3.19-1,4.74a8.15,8.15,0,0,1-2.21,4c-.62.57-1.3,1.08-2,1.6-.35.29-.74.56-1.11.85,0-.23.09-.45.13-.68l.33-1.92c.24-1.43.47-2.85.68-4.28.43-2.8.83-5.63,1.41-8.41,0-.11-.14-.15-.17,0-.7,2.75-1.47,5.47-2.08,8.24-.3,1.36-1.36,8.08-1.41,8.55s-.09,1-.11,1.48a6.27,6.27,0,0,0,0,1.5.12.12,0,0,0,.23,0h0a6.63,6.63,0,0,0,.43-1.46c.12-.48.23-1,.31-1.45,0-.18.06-.36.08-.54.66-.4,1.28-.93,1.9-1.38s1.34-.95,2-1.48a7.55,7.55,0,0,0,2.41-3.77,27.1,27.1,0,0,0,.8-4.82c.21-1.91.36-3.83.63-5.73C137.78,221.75,137.61,221.7,137.59,221.82Z" style="fill:#37474f"></path><path d="M122.58,149c10.93,23.37,28.72,51.79,38.43,52.31,1.68.08,8.45-.71,11.21-7,4.67-10.62,9.09-31.82,9.74-41.91.29-4.47-29.75-9.06-30.67-4.36-1.3,6.59-2,13.67-2.71,13.59-1.19-.14-6.13-7.56-17.74-19.89C116.41,126.38,118.52,140.28,122.58,149Z" style="fill:#f7a9a0"></path><path d="M186.36,140.32c-.77,6.29-7.4,18.54-10.14,20.87S152.3,153,151.58,149.34s3.55-24.6,8.18-29.12S187.17,133.8,186.36,140.32Z" style="fill:#f7a9a0"></path><path d="M151.68,145.64a52.68,52.68,0,0,0-6-14.06c-3.37-5.09-9-12.27-6.29-14.19,5.48-3.93,19.4,14,19.4,14s4.88,8.89-.21,13.27A6.68,6.68,0,0,1,151.68,145.64Z" style="fill:#f7a9a0"></path><polygon points="164.86 141.28 172.15 137.95 162.52 116.85 153.29 121.06 164.86 141.28" style="fill:#FFC727"></polygon><polygon points="153.29 121.05 157.7 128.77 164.86 141.28 172.15 137.96 162.52 116.85 153.29 121.05" style="fill:#FFC727"></polygon><polygon points="153.29 121.05 157.7 128.77 166.19 124.9 162.52 116.85 153.29 121.05" style="opacity:0.1"></polygon><rect x="151.3" y="112.8" width="12.61" height="9.58" transform="translate(349.8 159.15) rotate(155.48)" style="fill:#FFC727"></rect><polygon points="140.74 116.17 150.06 112.99 143.63 98.88 135.12 103.84 140.74 116.17" style="fill:#FFC727"></polygon><polygon points="146.94 94 156.44 114.82 172.21 109.78 212.82 106.71 190.02 56.72 161.08 85.38 146.94 94" style="fill:#FFC727"></polygon><path d="M194.16,85c6.32,13.88,15.07,23.47,19.53,21.44s2.94-14.93-3.39-28.8-15.07-23.48-19.53-21.44S187.83,71.16,194.16,85Z" style="fill:#FFC727"></path><ellipse cx="202.45" cy="80.73" rx="7.27" ry="24.51" transform="translate(-15.24 91.31) rotate(-24.52)" style="opacity:0.2"></ellipse><path d="M196.92,83.25c.75,1.64,1.53,3.22,2.33,4.71a5.49,5.49,0,0,0,6.37-7.59L204.54,78a5.48,5.48,0,0,0-9.87-.2C195.32,79.58,196.08,81.41,196.92,83.25Z" style="fill:#FFC727"></path><polygon points="148.89 119.65 166.92 113.51 154.47 86.23 138.02 95.81 148.89 119.65" style="fill:#FFC727"></polygon><polygon points="148.89 119.65 166.92 113.51 154.47 86.23 138.02 95.81 148.89 119.65" style="opacity:0.2"></polygon><path d="M189.24,61.21a17.06,17.06,0,0,0-.38,6.17,38.64,38.64,0,0,0,1.08,6.12c.23,1,.55,2,.84,3s.66,2,1,2.93.73,1.94,1.14,2.89.8,1.91,1.24,2.85A68,68,0,0,0,200.3,96a35.53,35.53,0,0,0,4,4.74,14.89,14.89,0,0,0,5.14,3.42,15.21,15.21,0,0,1-4.93-3.63,34.31,34.31,0,0,1-3.85-4.8,71.51,71.51,0,0,1-5.95-10.78,73.15,73.15,0,0,1-4.34-11.53,37.49,37.49,0,0,1-1.23-6A17.83,17.83,0,0,1,189.24,61.21Z" style="opacity:0.2"></path><path d="M207.17,51.71c-.87,1.15-1.67,2.33-2.47,3.51s-1.56,2.4-2.32,3.61-1.5,2.43-2.2,3.68l-1.05,1.87c-.33.63-.68,1.25-1,1.9.44-.57.84-1.16,1.27-1.74l1.2-1.77c.81-1.18,1.57-2.39,2.33-3.6s1.49-2.44,2.19-3.68S206.53,53,207.17,51.71Z" style="fill:#263238"></path><path d="M209.94,94.19c1.62,0,3.23-.06,4.84-.14s3.21-.2,4.82-.32,3.21-.28,4.81-.47l2.4-.29c.8-.12,1.6-.22,2.4-.36-.81,0-1.62,0-2.42,0l-2.42.11c-1.61.07-3.22.2-4.82.32s-3.21.28-4.81.47S211.53,93.93,209.94,94.19Z" style="fill:#263238"></path><path d="M237.26,81.31c-2.33.41-4.65.9-7,1.39s-4.63,1-6.93,1.55-4.61,1.1-6.9,1.7l-3.44.91c-1.14.32-2.29.62-3.42,1,1.17-.2,2.33-.44,3.49-.66l3.48-.72c2.32-.49,4.63-1,6.93-1.56s4.61-1.1,6.9-1.7S235,82,237.26,81.31Z" style="fill:#263238"></path><path d="M220.09,48.85c-1.63,1.77-3.21,3.58-4.78,5.4s-3.11,3.66-4.65,5.5-3,3.72-4.54,5.6l-2.22,2.84c-.73,1-1.47,1.9-2.17,2.88.82-.88,1.61-1.79,2.41-2.68l2.37-2.72c1.58-1.81,3.11-3.66,4.65-5.5s3.05-3.72,4.53-5.61S218.67,50.79,220.09,48.85Z" style="fill:#263238"></path><path d="M206.39,79.22c2.57-1.06,5.1-2.18,7.64-3.31s5-2.31,7.56-3.46,5-2.38,7.51-3.6L232.83,67c1.23-.64,2.47-1.25,3.7-1.91-1.29.52-2.56,1.08-3.84,1.62l-3.8,1.69c-2.54,1.13-5,2.31-7.57,3.46s-5,2.38-7.5,3.6S208.84,77.92,206.39,79.22Z" style="fill:#263238"></path><path d="M154,128.6c1.37,3.06,4.2-.31,4.2-.31s-2.9,5.84-.26,8.45,5.82-1.68,6.05-2c-.15.31-2.67,5.74.25,8.1s5.6-2.33,5.76-2.64c-.05.34-.64,4.81,2,6.09,4.52,2.21,6.34-9.19,9.74-11.43,0,0,4.45,5.31,4.61,5.44,0,0,2-10.8-1.31-15.21a3.52,3.52,0,0,0-4.24-1.17s1-3.41-1.22-5.34c-1.15-1-3.76,0-3.76,0a4.39,4.39,0,0,0-1.39-4.35c-1.68-1.27-4-.11-4-.11s-.56-3-2.69-3.71C163.43,108.89,151.1,122,154,128.6Z" style="fill:#f7a9a0"></path><path d="M170,114.25a0,0,0,0,0,0-.08,31.32,31.32,0,0,0-11.9,14.29c-.07.19.2.39.32.19A64,64,0,0,1,170,114.25Z" style="fill:#263238"></path><path d="M175.87,118.49s0-.13-.09-.09a29.23,29.23,0,0,0-12,16.39c-.06.24.12.51.21.24C165.5,130.53,171.53,122.38,175.87,118.49Z" style="fill:#263238"></path><path d="M170.07,140.74c1.94-6.55,5.79-11.82,10.52-16.67.06-.06,0-.14-.1-.1-3,1.74-5.65,5.14-7.52,8a17.9,17.9,0,0,0-3.12,8.74C169.84,140.8,170,140.88,170.07,140.74Z" style="fill:#263238"></path><path d="M158.12,128.32c-.09.23.34.11.26.33-.33,1-1.84,6.92,0,8.06,1.5.91,3.76-.47,4.42-1.34l1.67-2.2-.8,2.64a11.45,11.45,0,0,0-.52,3.62,4,4,0,0,0,1.25,3,2.3,2.3,0,0,0,2.89.21,7,7,0,0,0,2.22-2.7l1.47-2.91-.44,3.22a10.61,10.61,0,0,0,0,2.7,4.36,4.36,0,0,0,.92,2.35,2.07,2.07,0,0,0,2.08.66,4.61,4.61,0,0,0,2-1.61,35.37,35.37,0,0,0,2.93-4.84c.46-.83.92-1.68,1.42-2.5a6.74,6.74,0,0,1,1.86-2.18,7.51,7.51,0,0,0-1.63,2.31c-.43.85-.82,1.72-1.22,2.59a30.61,30.61,0,0,1-2.73,5.1,5.37,5.37,0,0,1-2.34,2,2.94,2.94,0,0,1-3.11-.85,5.36,5.36,0,0,1-1.21-2.88,11.66,11.66,0,0,1,0-3l1,.31a8,8,0,0,1-2.59,3.2,3.3,3.3,0,0,1-2.18.58,3.77,3.77,0,0,1-2-.9,5.12,5.12,0,0,1-1.58-3.87,12.07,12.07,0,0,1,.63-4l.86.44c-.88,1.08-3.24,2.9-5.75,1.78C154.84,135.77,157.54,129.44,158.12,128.32Z" style="fill:#263238"></path><path d="M158.23,128.29a6.7,6.7,0,0,1-1.78,1,1.59,1.59,0,0,1-1.57-.21,3.16,3.16,0,0,1-.83-1.61c-.16-.65-.3-1.35-.41-2.08a5.28,5.28,0,0,0-.31,2.2,3.11,3.11,0,0,0,.95,2.21,2.27,2.27,0,0,0,1.25.48,2.37,2.37,0,0,0,1.22-.33A3.53,3.53,0,0,0,158.23,128.29Z" style="fill:#263238"></path><path d="M186.83,160.49l-35.62-13.6s-2.43,14.16-2.85,14.23-10.83-15.05-22-24.36-9.68,2.27-6.29,12c4.35,12.51,22.47,51.87,30.74,54.62s21-3,22.84-6.49C176.18,192.08,186.83,160.49,186.83,160.49Z" style="fill:#37474f"></path><path d="M127.43,137.7v28.11h-.28c-.62-1.37-1.23-2.7-1.8-4V136l1,.78Z" style="opacity:0.1"></path><path d="M182.21,164.8c-1.18-.63-12.3-4.68-14.74-5.51l-7.31-2.48c-2.52-.84-5-1.83-7.63-2.48a.1.1,0,0,0-.07.18c2.42,1.11,5,1.92,7.5,2.84l7.38,2.71c2.47.89,13.56,4.66,14.83,4.91C182.28,165,182.29,164.84,182.21,164.8Z" style="fill:#263238"></path><path d="M166,202c-4.69,1.86-10.63,2.93-15.2,1.41-8.27-2.74-26.38-42.1-30.75-54.61-2.13-6.11-3.52-13-1.48-14.88Z" style="opacity:0.1"></path><path d="M148.37,161.3c-.24,1.92-.37,3.85-.47,5.78s-.13,3.87-.12,5.8.07,3.87.23,5.8a48.49,48.49,0,0,0,.73,5.76c0-1-.07-1.93-.07-2.89s0-1.93-.06-2.89l-.05-5.78-.06-5.79,0-2.89C148.42,163.23,148.42,162.27,148.37,161.3Z" style="fill:#263238"></path><path d="M146.65,210c-.86,1.1-62,5.52-62.33,5.16-.93-1,9.28-65.48,22.23-77.5,2.79-2.58,14.15-3,15.74-2.53,1.81.56,7.4,8.64,10.16,15.35C138,163.88,147.41,209,146.65,210Z" style="fill:#ebebeb"></path><polygon points="119.57 150.71 121.17 144.69 125.54 147.4 124.78 152.4 121.2 153.12 119.57 150.71" style="fill:#263238"></polygon><polygon points="121.2 153.12 122.35 193.86 130.91 206.75 133.79 191.36 124.78 152.4 121.2 153.12" style="fill:#263238"></polygon><path d="M153.51,223.31s-8,.61-18.82,1.37c-1.18-3.71-3.84-12.79-4-12.77-.09.22-1.94,9.52-2.46,13.24-10.46.73-22.3,1.55-31.64,2.12s-16.31.89-16.7.65,3.3-13.29,3.66-15.19c2.74-15,7.26-44.82,12.07-56.27a100.05,100.05,0,0,1,7.62-15c.3-.46.58-.89.84-1.27L106,137.4l20.77,32.36c0-.67-1.75-32.08-1.75-32.08a83,83,0,0,1,13.19,23.26c5.7,15.79,8.38,39.41,10.73,50.57C148.93,211.51,153.48,223.08,153.51,223.31Z" style="fill:#37474f"></path><path d="M126.76,169.76c.53,3.49.95,7,1.36,10.5s.76,7,1.1,10.53.63,7,.87,10.55l.35,5.28c.08,1.76.2,3.52.25,5.29-.28-1.75-.49-3.5-.74-5.25l-.63-5.25c-.41-3.51-.76-7-1.09-10.53s-.64-7-.87-10.55S126.88,173.29,126.76,169.76Z" style="fill:#263238"></path><path d="M126.08,182.36a1.76,1.76,0,1,1-2-1.53A1.76,1.76,0,0,1,126.08,182.36Z" style="fill:#263238"></path><circle cx="124.97" cy="192.55" r="1.76" style="fill:#263238"></circle><path d="M127.36,202.3a1.76,1.76,0,1,1-2-1.53A1.77,1.77,0,0,1,127.36,202.3Z" style="fill:#263238"></path><path d="M101.49,141.36C80.42,159,52.32,197.59,56,206.33c4.12,9.72,33.49-15,33.54-16.59,0-1.21,11.83-25.17,20.71-42.57S106.7,137,101.49,141.36Z" style="fill:#f7a9a0"></path><path d="M89.74,189.79c1.08-2.58,17-34.14,21.69-44.16s1.57-13.55-9.79-5.06-37.32,38-44.17,54.35c-6.59,15.74,1.76,16.54,13.5,10.13C80.58,199.79,89.74,189.79,89.74,189.79Z" style="fill:#37474f"></path><path d="M60.93,205.45v3.31a9,9,0,0,1-2.08,0v-3.29Z" style="opacity:0.1"></path><path d="M102.68,163.81a11.35,11.35,0,0,1,1.47-2.13A12.15,12.15,0,0,1,106,159.9a11.61,11.61,0,0,1-1.47,2.12A11.75,11.75,0,0,1,102.68,163.81Z" style="fill:#263238"></path><path d="M91.63,185.19c1.06-2.45,2.19-4.86,3.34-7.26s2.35-4.77,3.53-7.16,2.43-4.73,3.69-7.07,2.53-4.68,3.88-7c-1.06,2.44-2.2,4.85-3.34,7.25s-2.36,4.77-3.53,7.16-2.43,4.73-3.69,7.07S93,182.89,91.63,185.19Z" style="fill:#263238"></path><path d="M121,144.47c-3.53,1.19-11.08-4.14-14-8.39-.19-.3,0-3.57,0-7.57,0-2.42,0-5.12-.28-7.57l15.76,2.31a39.16,39.16,0,0,0-.61,9.58,5.06,5.06,0,0,0,.2,1,.65.65,0,0,1,0,.16C122.59,135.88,124.37,143.32,121,144.47Z" style="fill:#f7a9a0"></path><path d="M122.06,133.83s0,.1,0,.16a10,10,0,0,1-1.57.24c-8.94.62-12.06-10.1-12.75-13.14l3.94.58,10.76,1.59a39.05,39.05,0,0,0-.61,9.57A5.91,5.91,0,0,0,122.06,133.83Z" style="fill:#263238"></path><path d="M121.92,133.13l-1.61,9.61L106.89,134l-2.33,4.26s14.62,15.41,14.51,14.59l2-8.41,6.41,4.15-3.34-13.21Z" style="fill:#ebebeb"></path><path d="M126.18,141.94c-.62-2.16-1.19-4.36-1.91-6.49,0-.07-.16-.08-.16,0,0,2.22,2.46,10.47,2.89,12.48l0,0c-.27-.18-5.89-3.59-5.92-3.51-.53,1.38-2,7.51-2.06,8.05-2.31-2.44-11.06-11.27-13.66-13.5a.08.08,0,0,0-.11.11c2.15,2.65,13.78,14.57,13.91,14.5a88.68,88.68,0,0,0,2-8.88c1,.79,6.79,4.76,6.73,4.43A70.72,70.72,0,0,0,126.18,141.94Z" style="fill:#263238"></path><path d="M103.28,103.13c-1.18,5.74,3.27,21.59,7.58,24.81,6.24,4.68,15.71,4.3,19.49-3,3.67-7.11-2.5-27.66-7.24-30.52C116.13,90.19,105,94.65,103.28,103.13Z" style="fill:#f7a9a0"></path><path d="M118.52,111.76s-.07.07,0,.12c.32,1.06.52,2.33-.35,3,0,0,0,.07,0,0C119.28,114.39,119,112.71,118.52,111.76Z" style="fill:#263238"></path><path d="M117.26,110.91c-1.76.34-.94,3.82.69,3.51S118.73,110.62,117.26,110.91Z" style="fill:#263238"></path><path d="M124.5,110.26s.1,0,.11.07c.21,1.09.65,2.3,1.71,2.43,0,0,0,.06,0,.06C125.09,112.93,124.53,111.32,124.5,110.26Z" style="fill:#263238"></path><path d="M125.2,108.91c1.71-.54,2.66,2.91,1.08,3.41S123.77,109.36,125.2,108.91Z" style="fill:#263238"></path><path d="M115.87,110.3a14.41,14.41,0,0,0,1.12-1,2.41,2.41,0,0,0,1-1.19.75.75,0,0,0-.44-.81,1.87,1.87,0,0,0-1.84.49,2.79,2.79,0,0,0-1,1.69A.81.81,0,0,0,115.87,110.3Z" style="fill:#263238"></path><path d="M126.38,106.54a12,12,0,0,1-1.47,0,2.41,2.41,0,0,1-1.49-.32.75.75,0,0,1-.17-.91,1.86,1.86,0,0,1,1.74-.77,2.72,2.72,0,0,1,1.88.64A.8.8,0,0,1,126.38,106.54Z" style="fill:#263238"></path><path d="M119.54,121.85c.32.19.66.48,1.06.42a3,3,0,0,0,1.1-.54,0,0,0,0,1,.06,0,1.52,1.52,0,0,1-1.24.91,1.17,1.17,0,0,1-1.07-.76S119.5,121.82,119.54,121.85Z" style="fill:#263238"></path><path d="M119.92,118.35a3.75,3.75,0,0,0,2.84,1.06,4.66,4.66,0,0,0,1.33-.24l.25-.09.23-.09a.3.3,0,0,0,.16-.3h0a.36.36,0,0,0,0-.11h0l0-.09c-.17-.84-.54-2.09-.54-2.09.33.08,2,.42,1.92,0a56.79,56.79,0,0,0-4-10.79c-.05-.11-.23,0-.19.07.88,3.45,2.36,6.72,3.3,10.17a6.36,6.36,0,0,0-1.86-.12c-.11.06.77,2.39.82,2.77v0a5.21,5.21,0,0,1-4.08-.29C119.9,118.19,119.84,118.28,119.92,118.35Z" style="fill:#263238"></path><path d="M123.59,119.11a4.37,4.37,0,0,1-1.52,1.63,2,2,0,0,1-1.17.27c-.89-.09-1-.87-1-1.57a4.5,4.5,0,0,1,.21-1.09A5.64,5.64,0,0,0,123.59,119.11Z" style="fill:#263238"></path><path d="M122.07,120.74a2,2,0,0,1-1.17.27c-.89-.09-1-.87-1-1.57A2,2,0,0,1,122.07,120.74Z" style="fill:#ff98b9"></path><path d="M128.48,100.48c-4.94,5.36-14.35,1.12-14.35,1.12a6.54,6.54,0,0,1-5.54,5.52s1.12,10.19-1.49,10.77c-4,.89-8.33-12.36-7.68-15.31s3.87-4.4,3.87-4.4a6.67,6.67,0,0,1,1.8-4.57c2.25-2.7,12.28-2,12.28-2a9.05,9.05,0,0,1,1.66-3.8,2.53,2.53,0,0,1,3.62-.49,6.07,6.07,0,0,0-.39,2.66c.2,3,2.57,2.47,1.94-.16a4.21,4.21,0,0,0-1.55-2.5c.78-2,2.56-3,3.93-2.34C129.07,86.13,132.59,96,128.48,100.48Z" style="fill:#263238"></path><path d="M117.52,117.3a4.81,4.81,0,1,1,3.83-6.55h0a4.8,4.8,0,0,1-3.83,6.55Zm-1.18-8.9a4.58,4.58,0,0,0-1,.27,4.14,4.14,0,1,0,1-.27Z" style="fill:#455a64"></path><path d="M128,114.57c-1.83.15-3.65-1.59-4.15-4a5.79,5.79,0,0,1,.32-3.5,3,3,0,0,1,5-1,5.83,5.83,0,0,1,1.67,3.1c.52,2.59-.62,5-2.56,5.42Zm-1.23-8.88-.24,0a2.58,2.58,0,0,0-1.77,1.57,5,5,0,0,0-.28,3.1c.45,2.25,2.11,3.83,3.71,3.5s2.5-2.41,2.05-4.67a5.11,5.11,0,0,0-1.47-2.74A2.64,2.64,0,0,0,126.74,105.69Z" style="fill:#455a64"></path><path d="M121.33,111.32l-.52-.37c.55-.77,2-2,3.43-1.06l-.34.54C122.6,109.6,121.38,111.26,121.33,111.32Z" style="fill:#455a64"></path><path d="M100.86,117.8l-.62-.14c.06-.3.7-2.87,2-3.45s9.8-1.88,10.17-1.94l.1.64c-2.46.38-9.05,1.47-10,1.89S101,117.1,100.86,117.8Z" style="fill:#455a64"></path><path d="M108.66,115.09s-4.23-4.79-6.45-3.22,1.38,8.79,4.27,9.51a2.84,2.84,0,0,0,3.61-1.94Z" style="fill:#f7a9a0"></path><path d="M103.3,113.91a0,0,0,0,0,0,.08c2,.57,3.26,2.25,4.19,4a1.57,1.57,0,0,0-2.38-.16s0,.12.07.1a1.73,1.73,0,0,1,2,.39,7.68,7.68,0,0,1,1.09,1.44c.11.16.42,0,.33-.16l0,0C108.3,117.11,106,113.86,103.3,113.91Z" style="fill:#263238"></path><path d="M106.19,140c-.2,2-.46,3.92-.69,5.87s-.52,3.91-.78,5.86l-.38-.41c1.4-.12,2.81-.26,4.21-.35l4.21-.3.78-.06-.33.71c-1.3,2.76-2.57,5.52-3.92,8.26l-.19-.63c3.34,1.92,6.71,3.79,10,5.76s6.65,3.91,9.92,6c-3.45-1.73-6.86-3.52-10.26-5.34s-6.77-3.68-10.15-5.53l-.39-.21.19-.41c1.27-2.77,2.62-5.5,3.95-8.24l.44.65-4.21.25c-1.41.09-2.82.13-4.22.2l-.46,0,.08-.44c.35-1.94.68-3.88,1-5.81S105.79,141.92,106.19,140Z" style="fill:#263238"></path><path d="M124.78,138c.62.73,1.22,1.47,1.82,2.22s1.21,1.48,1.79,2.24l3.53,4.53.44.57-.73.1-4.1.57.23-.85c1.75,1.36,3.5,2.72,5.23,4.11l.23.19-.05.29q-.93,4.68-2,9.35c-.68,3.12-1.39,6.23-2.17,9.32.44-3.16.94-6.31,1.48-9.45s1.09-6.28,1.69-9.41l.17.48c-1.75-1.36-3.48-2.75-5.21-4.13l-.91-.72,1.15-.13,4.11-.46-.29.67L128,142.79c-.55-.78-1.07-1.59-1.6-2.38S125.29,138.81,124.78,138Z" style="fill:#263238"></path><polygon points="137.72 151.4 128.93 205.93 120.45 204.82 126.57 149.94 137.72 151.4" style="fill:#263238"></polygon><path d="M134.26,134.51h0a8.91,8.91,0,0,0-10,7.67l-.4,3.06a8.34,8.34,0,0,0,7.19,9.35l1.12.15a8.34,8.34,0,0,0,9.35-7.19l.4-3.05A8.9,8.9,0,0,0,134.26,134.51Z" style="fill:#a6a6a6"></path><rect x="123.4" y="144.36" width="18.94" height="1.94" transform="translate(20 -16.02) rotate(7.46)" style="fill:#c7c7c7"></rect><rect x="120.78" y="152.87" width="19.73" height="18.88" transform="translate(25.13 -17.35) rotate(8.4)" style="fill:#FFC727"></rect><g id="freepik--aizgp2--inject-2"><path d="M127.4,158.58a8.92,8.92,0,0,0-1,2.68h0L124,160.9h0l0-.07c0-.06,0-.12,0-.18a7.53,7.53,0,0,1,.31-.95,7.94,7.94,0,0,1,.78-1.43,0,0,0,0,1,.06,0l2.23.34Z" style="fill:#fff"></path><path d="M126.38,164.76h0l-2.21-.34s0,0,0,0a6.85,6.85,0,0,1-.3-1.79,6.43,6.43,0,0,1,0-.88v-.1h0l2.38.36s0,0,0,.05c0,.2,0,.4-.05.6s0,.64,0,.95a8.84,8.84,0,0,0,.16,1.15Z" style="fill:#fff"></path><path d="M135.76,166.91l0,0a7.67,7.67,0,0,1-.77.74,7.15,7.15,0,0,1-1.07.72,7,7,0,0,1-1.16.5,8,8,0,0,1-1.2.27,6.24,6.24,0,0,1-1,.05h-.15l0,0,.06,0a7.21,7.21,0,0,0,2-1.45,7.93,7.93,0,0,0,.91-1.1.07.07,0,0,1,.06,0l2.27.35Z" style="fill:#fff"></path><path d="M134.13,162.44,131,162l.42-2.77h0l2.44.37s0,0,0,0a7.52,7.52,0,0,1,.26,1.7c0,.3,0,.6,0,.9C134.14,162.28,134.14,162.35,134.13,162.44Z" style="fill:#fff"></path><path d="M134,163.17a1.42,1.42,0,0,1,0,.2c0,.15-.07.3-.11.45s-.13.42-.21.62a7.61,7.61,0,0,1-.61,1.29s0,0-.07,0l-2.49-.38h0l.4-2.68Z" style="fill:#fff"></path><path d="M130.67,159.1l-.42,2.77-3.1-.47c0-.07,0-.14,0-.21s.07-.3.12-.45.15-.46.24-.69a7.09,7.09,0,0,1,.65-1.29s0,0,.06,0l2.36.36Z" style="fill:#fff"></path><path d="M130.13,162.62l-.39,2.61v0h0l-2.43-.36a.06.06,0,0,1-.05-.05,7.24,7.24,0,0,1-.21-1.46c0-.25,0-.51,0-.76s0-.33,0-.5h0l3,.46S130.14,162.59,130.13,162.62Z" style="fill:#fff"></path><path d="M137.49,163l-2.6-.39a9,9,0,0,0-.18-2.88h0l2.38.36s0,0,.05,0a6.65,6.65,0,0,1,.34,1.83,8.19,8.19,0,0,1,0,1Z" style="fill:#fff"></path><path d="M137.38,163.66q0,.1,0,.18c0,.24-.12.46-.19.69a7.06,7.06,0,0,1-.72,1.49l-.14.22s0,0-.05,0l-2.38-.36h0l.13-.23a8.72,8.72,0,0,0,.51-1.22,7.36,7.36,0,0,0,.25-.92,2.25,2.25,0,0,0,.05-.22,0,0,0,0,1,0,0h0Z" style="fill:#fff"></path><path d="M136.84,159.29h0l-2.27-.35a.05.05,0,0,1-.05,0,7.94,7.94,0,0,0-.87-1.84,7.37,7.37,0,0,0-.74-.93l-.43-.41,0,0,0,0v-.05a6.9,6.9,0,0,1,2.19,1A6.73,6.73,0,0,1,136.84,159.29Z" style="fill:#fff"></path><path d="M128.73,168.93h-.07a5.59,5.59,0,0,1-.72-.26,6,6,0,0,1-1.24-.69,6.54,6.54,0,0,1-1.21-1.08,6.22,6.22,0,0,1-.69-.93,7.16,7.16,0,0,1-.4-.78v0h0l2.12.32s0,0,0,0a7.6,7.6,0,0,0,.58,1.38,8.17,8.17,0,0,0,.76,1.15,6.79,6.79,0,0,0,.77.84Z" style="fill:#fff"></path><path d="M130.74,155.44l-.35.19a7.32,7.32,0,0,0-1.17.8,6.8,6.8,0,0,0-1.31,1.37l-.07.1h0l-.11,0-2.07-.31a6.83,6.83,0,0,1,5.11-2.19l0,0Z" style="fill:#fff"></path><path d="M132.56,166.43a7.51,7.51,0,0,1-1.26,1.26,6.89,6.89,0,0,1-1.35.83l.37-2.43Z" style="fill:#fff"></path><path d="M129.62,166l-.36,2.38a7,7,0,0,1-1.79-2.71Z" style="fill:#fff"></path><path d="M133.64,158.8l-2.15-.33.35-2.27a6.59,6.59,0,0,1,1,1.19A7.32,7.32,0,0,1,133.64,158.8Z" style="fill:#fff"></path><path d="M131.11,156.16l-.34,2.22-2.06-.31A6.57,6.57,0,0,1,131.11,156.16Z" style="fill:#fff"></path></g><path d="M56.66,207.43c6.41,4,20,1.07,49.47-5,4.07-.84,3.59-31.66-.81-31-5.53.85-26.82,5.34-28.34,5.87C64.2,181.74,52.32,204.68,56.66,207.43Z" style="fill:#f7a9a0"></path><path d="M141.84,166.22a4.79,4.79,0,0,1-.63,5.44,7.1,7.1,0,0,1,3.27,3.57c1,2.75-2.89,5.52-2.89,5.52a8.76,8.76,0,0,1,2.84,4.31c.68,2.73-2.83,6.08-2.83,6.08a7.7,7.7,0,0,1,.11,5.37c-1.82,4.59-9.23,6-13.93,6.87s-18.91-.88-21.65-.95L100,172.29s19.92-10.12,25.6-10.41C130.37,161.63,139.94,163,141.84,166.22Z" style="fill:#f7a9a0"></path><path d="M140.91,171.22c-5.16-1-10.31-.34-15.5,0a.09.09,0,0,0,0,.18c5.15-.38,10.31.26,15.46.09C141,171.46,141.05,171.24,140.91,171.22Z" style="fill:#263238"></path><path d="M141.41,180.37a13.8,13.8,0,0,0-3.57.16c-1.26.14-2.51.31-3.77.49-2.51.37-5,.79-7.49,1.29-.11,0-.11.19,0,.18,2.5-.36,5-.69,7.52-.94q1.89-.2,3.78-.36a16.13,16.13,0,0,0,3.54-.47A.18.18,0,0,0,141.41,180.37Z" style="fill:#263238"></path><path d="M141.49,191.15a9.49,9.49,0,0,0-3.21.32l-3.42.55c-2.28.36-4.57.71-6.86,1-.11,0-.1.19,0,.18,2.34-.27,4.67-.51,7-.8,1.15-.14,2.29-.29,3.43-.45a8.89,8.89,0,0,0,3.07-.67A.07.07,0,0,0,141.49,191.15Z" style="fill:#263238"></path><path d="M101.74,170.86,89.07,208s-26.41,4.57-32.54-.12c-4-3.09,7.23-27.11,21.72-30.92Z" style="fill:#37474f"></path><path d="M63.72,188.12a34.38,34.38,0,0,1,10.17-9.64c5.32-3.22,24.19-7,27.81-7.68.07,0,.12.1,0,.12-2.92.86-23,5.48-27.57,8.19a49.83,49.83,0,0,0-10.37,9.09C63.77,188.26,63.68,188.19,63.72,188.12Z" style="fill:#263238"></path><path d="M80.69,206.27c1.18-4.09,2.58-8.11,4-12.13s2.82-8,4.33-12c.85-2.25,1.69-4.51,2.63-6.73,0-.06.12,0,.11,0-1.18,4.09-2.57,8.12-4,12.14s-2.81,8-4.27,12c-.83,2.26-1.7,4.51-2.63,6.73C80.85,206.44,80.66,206.39,80.69,206.27Z" style="fill:#263238"></path><path d="M83.44,208.81c1.85-.48,3.73-.74,5.58-1l-.15.14c.29-.73.59-1.45.95-2.15a22.25,22.25,0,0,1-.55,2.28l0,.11-.13,0a22.48,22.48,0,0,1-5.67.62Z" style="fill:#263238"></path></g><g id="freepik--speech-bubbles--inject-2"><path d="M49.45,78.2A21.82,21.82,0,0,0,84.28,95.72L95,98.45l-4.45-10A21.82,21.82,0,1,0,49.45,78.2Z" style="fill:#FFC727"></path><path d="M49.45,78.2a21.87,21.87,0,0,0,3.31,11.41,23.14,23.14,0,0,0,1.74,2.45,23.57,23.57,0,0,0,2.09,2.15,20,20,0,0,0,4.94,3.36,20.71,20.71,0,0,0,8.63,2.19,19.77,19.77,0,0,0,3-.05,21.48,21.48,0,0,0,10.92-4.28l.14-.1.17,0L95.08,98l-.51.61-4.49-9.94-.1-.21.11-.21A21.68,21.68,0,0,0,92.6,79a21.43,21.43,0,0,0-1.78-9.45,22.47,22.47,0,0,0-5.73-7.75,21.5,21.5,0,0,0-8.58-4.48A21.8,21.8,0,0,0,66.8,57a22.14,22.14,0,0,0-8.89,4A21.9,21.9,0,0,0,49.45,78.2Zm0,0A22,22,0,0,1,57.82,61a22.09,22.09,0,0,1,27.75.28,22.46,22.46,0,0,1,6.06,8,22.13,22.13,0,0,1-.69,19.53l0-.42,4.41,10,.37.84-.88-.24-10.67-2.8.3-.06a22.05,22.05,0,0,1-11.31,4.17,18.15,18.15,0,0,1-3,0,21.91,21.91,0,0,1-13.65-5.86,22.58,22.58,0,0,1-2.08-2.18,22.32,22.32,0,0,1-1.73-2.47A22,22,0,0,1,49.45,78.2Z" style="fill:#263238"></path><path d="M62.78,79.11a1.92,1.92,0,1,1-1.92-1.92A1.92,1.92,0,0,1,62.78,79.11Z" style="fill:#263238"></path><path d="M72.85,79.11a1.92,1.92,0,1,1-1.91-1.92A1.91,1.91,0,0,1,72.85,79.11Z" style="fill:#263238"></path><path d="M82.93,79.11A1.92,1.92,0,1,1,81,77.19,1.92,1.92,0,0,1,82.93,79.11Z" style="fill:#263238"></path><path d="M162.21,170.45a13.5,13.5,0,0,0-2.32,7.48c0,9.49,10.42,17.18,23.26,17.18s23.25-7.69,23.25-17.18S196,160.76,183.15,160.76a27.9,27.9,0,0,0-16,4.75l-8-2Z" style="fill:#fffefd"></path><path d="M162.21,170.45a13.71,13.71,0,0,0-2.19,7.08,13.3,13.3,0,0,0,2,7.09,21,21,0,0,0,11.74,8.63,30.94,30.94,0,0,0,14.71.95,26,26,0,0,0,7.06-2.23,21.8,21.8,0,0,0,6-4.2,15,15,0,0,0,3.81-6.15,12.35,12.35,0,0,0,.1-7.15,15.17,15.17,0,0,0-3.72-6.21,21.78,21.78,0,0,0-6-4.28,26.63,26.63,0,0,0-7-2.29,30.66,30.66,0,0,0-7.41-.51,27.2,27.2,0,0,0-14,4.52l-.09.06-.1,0-8-2.14.14-.17Zm0,0L159,163.52l-.1-.22.24.06,8,1.93-.19,0a27.71,27.71,0,0,1,14.26-4.86,29.86,29.86,0,0,1,14.88,2.73,22.28,22.28,0,0,1,6.25,4.43,16,16,0,0,1,4,6.58,13.19,13.19,0,0,1-.07,7.72,16.21,16.21,0,0,1-4.08,6.53,22.79,22.79,0,0,1-6.31,4.35,27.51,27.51,0,0,1-7.3,2.27,31.8,31.8,0,0,1-7.61.37,31.18,31.18,0,0,1-7.47-1.52,24.41,24.41,0,0,1-6.77-3.48,18.31,18.31,0,0,1-5.13-5.6,13.72,13.72,0,0,1-1.82-7.32A13.56,13.56,0,0,1,162.21,170.45Z" style="fill:#263238"></path><path d="M191.51,177.93a2.41,2.41,0,1,1,2.41,2.42A2.41,2.41,0,0,1,191.51,177.93Z" style="fill:#263238"></path><path d="M180.73,177.93a2.42,2.42,0,1,1,2.42,2.42A2.41,2.41,0,0,1,180.73,177.93Z" style="fill:#263238"></path><path d="M170,177.93a2.41,2.41,0,1,1,2.41,2.42A2.41,2.41,0,0,1,170,177.93Z" style="fill:#263238"></path></g><g id="freepik--magnifying-glass--inject-2"><rect x="384.75" y="193.88" width="11.06" height="64.54" transform="translate(831.64 133.08) rotate(138)" style="fill:#c7c7c7"></rect><polygon points="427.61 280.12 440.04 268.93 440.04 268.93 409.88 235.43 409.88 235.43 397.45 246.62 397.45 246.62 427.61 280.12" style="fill:#263238"></polygon><path d="M327.34,216.52a50.39,50.39,0,1,1,59.2-39.69A50.44,50.44,0,0,1,327.34,216.52Zm1.12-5.66a44.62,44.62,0,1,0-35.14-52.41A44.67,44.67,0,0,0,328.46,210.86Z" style="fill:#37474f"></path><path d="M387.5,154.69a52.14,52.14,0,1,1-7.33-16.5A51.68,51.68,0,0,1,387.5,154.69Zm-97.9,24.06a48.91,48.91,0,1,0-.48-21.13A48.92,48.92,0,0,0,289.6,178.75Zm92.29-22.68a46.14,46.14,0,0,1-53.72,56.26h0a46.12,46.12,0,1,1,47.21-70.92A46.33,46.33,0,0,1,381.89,156.07Zm-53.14,53.31a43.17,43.17,0,1,0-27.45-18.3,43.17,43.17,0,0,0,27.45,18.3Z" style="fill:#37474f"></path><g style="opacity:0.2"><path d="M294.28,164.84a42.87,42.87,0,1,0,45.06-40.58A42.87,42.87,0,0,0,294.28,164.84Z" style="fill:#fff"></path><path d="M295.36,176.92a42.92,42.92,0,0,0,51.2,32Z" style="fill:#ebebeb"></path><path d="M308,135.55l70.14,43.81a43,43,0,0,0,1.73-10,41.79,41.79,0,0,0-1-11.62l-51.78-32.35A42.85,42.85,0,0,0,308,135.55Z" style="fill:#ebebeb"></path><path d="M294.72,160.58l66.81,41.73a43.27,43.27,0,0,0,6.41-5.45L296.8,152.42A41.54,41.54,0,0,0,294.72,160.58Z" style="fill:#ebebeb"></path><path d="M304,139.82l72.1,45c.22-.47.43-1,.63-1.43L305,138.64C304.68,139,304.33,139.41,304,139.82Z" style="fill:#ebebeb"></path><path d="M341.49,124.43l32,20c-.67-1.09-1.41-2.15-2.18-3.18l-26-16.26C344,124.74,342.77,124.55,341.49,124.43Z" style="fill:#ebebeb"></path></g><path d="M328.5,200.61a34.43,34.43,0,0,1-12.77-5.79,36.33,36.33,0,0,1-5.38-4.7A38.5,38.5,0,0,1,306,184.4a34.15,34.15,0,0,1-4.61-13.51,37.13,37.13,0,0,1,1.05-14,66.32,66.32,0,0,0,1.26,13.6,42.24,42.24,0,0,0,1.94,6.4,34.14,34.14,0,0,0,2.93,5.94,42.94,42.94,0,0,0,8.6,10.15A57.33,57.33,0,0,0,328.5,200.61Z" style="fill:#fff"></path></g></svg>