<svg xmlns="http://www.w3.org/2000/svg" viewBox="0 0 500 500"><g id="freepik--background-complete--inject-2"><path d="M96.68,116.76a2.33,2.33,0,0,1,0-2.45l.36-.62.32-.65a2.34,2.34,0,0,1,2-1.37l3-.09-.31-9.81-3,.1A2.35,2.35,0,0,1,97,100.64a14.44,14.44,0,0,0-.77-1.25A2.34,2.34,0,0,1,96.06,97l1.42-2.65-8.64-4.64-1.42,2.65a2.33,2.33,0,0,1-2.12,1.22,11.87,11.87,0,0,0-1.46,0,2.32,2.32,0,0,1-2.19-1.09L80.06,90l-8.34,5.17,1.59,2.57a2.33,2.33,0,0,1,0,2.44c-.13.2-.25.41-.36.62l-.33.65a2.3,2.3,0,0,1-2,1.36l-3,.1.31,9.8,3-.09A2.32,2.32,0,0,1,73,113.79a14.54,14.54,0,0,0,.78,1.25,2.33,2.33,0,0,1,.15,2.44l-1.42,2.64,8.65,4.64,1.42-2.64a2.33,2.33,0,0,1,2.12-1.22,14.15,14.15,0,0,0,1.46-.05,2.36,2.36,0,0,1,2.2,1.08l1.58,2.56,8.34-5.17ZM81.2,114.3A8,8,0,1,1,92.08,111,8,8,0,0,1,81.2,114.3Z" style="fill:#ebebeb"></path><path d="M67.06,64a1.62,1.62,0,0,1-.8-1.51c0-.17,0-.34,0-.51s0-.34,0-.51a1.64,1.64,0,0,1,.79-1.51l1.83-1-3.43-6L63.62,54a1.62,1.62,0,0,1-1.71-.06,9.85,9.85,0,0,0-.89-.52,1.62,1.62,0,0,1-.9-1.45v-2.1H53.24V52a1.62,1.62,0,0,1-.9,1.45,9.68,9.68,0,0,0-.88.52,1.64,1.64,0,0,1-1.72.06l-1.82-1.06-3.44,6L46.32,60a1.62,1.62,0,0,1,.79,1.51c0,.16,0,.33,0,.5s0,.34,0,.51a1.62,1.62,0,0,1-.8,1.51L44.48,65,47.92,71l1.82-1a1.64,1.64,0,0,1,1.71,0,9.85,9.85,0,0,0,.89.52,1.62,1.62,0,0,1,.9,1.45v2.1h6.88V72a1.62,1.62,0,0,1,.9-1.45,8.64,8.64,0,0,0,.89-.52,1.66,1.66,0,0,1,1.72,0l1.82,1L68.88,65ZM56.68,67.59A5.63,5.63,0,1,1,62.31,62,5.64,5.64,0,0,1,56.68,67.59Z" style="fill:#ebebeb"></path><path d="M453.69,205.86a1.63,1.63,0,0,1-.8-1.51c0-.17,0-.34,0-.51s0-.34,0-.51a1.65,1.65,0,0,1,.8-1.51l1.83-1-3.44-6-1.82,1.06a1.64,1.64,0,0,1-1.72-.06,9.68,9.68,0,0,0-.88-.52,1.62,1.62,0,0,1-.9-1.45v-2.1h-6.88v2.1a1.62,1.62,0,0,1-.9,1.45,9.85,9.85,0,0,0-.89.52,1.62,1.62,0,0,1-1.71.06l-1.83-1.06-3.43,6,1.83,1.06a1.61,1.61,0,0,1,.8,1.51c0,.16,0,.33,0,.5s0,.34,0,.51a1.64,1.64,0,0,1-.8,1.51l-1.83,1.06,3.43,6,1.82-1.05a1.64,1.64,0,0,1,1.72.06c.28.18.58.35.89.51a1.62,1.62,0,0,1,.9,1.45v2.1h6.88v-2.1a1.62,1.62,0,0,1,.9-1.45c.31-.16.6-.33.89-.51a1.62,1.62,0,0,1,1.71-.06l1.82,1.05,3.44-6Zm-10.37,3.61a5.63,5.63,0,1,1,5.63-5.63A5.63,5.63,0,0,1,443.32,209.47Z" style="fill:#ebebeb"></path><rect x="40.48" y="290.86" width="88.24" height="122.11" style="fill:#ebebeb"></rect><rect x="36.21" y="286.33" width="96.79" height="4.53" style="fill:#dbdbdb"></rect><rect x="133" y="286.33" width="30.44" height="4.53" style="fill:#ebebeb"></rect><rect x="128.72" y="290.86" width="29.9" height="122.11" style="fill:#dbdbdb"></rect><path d="M119.24,347.39H50V308.23h69.27Zm-69-.25H119V308.48H50.22Z" style="fill:#c7c7c7"></path><rect x="74.94" y="319.68" width="13.48" height="7.75" style="fill:#c7c7c7"></rect><path d="M92.53,327H78.8v-6.83H92.53Zm-13.48-.25H92.28v-6.33H79.05Z" style="fill:#c7c7c7"></path><path d="M119.24,396.55H50V357.39h69.27Zm-69-.25H119V357.64H50.22Z" style="fill:#c7c7c7"></path><rect x="74.94" y="368.84" width="13.48" height="7.75" style="fill:#c7c7c7"></rect><path d="M92.53,376.13H78.8V369.3H92.53Zm-13.48-.25H92.28v-6.33H79.05Z" style="fill:#c7c7c7"></path><rect x="382.63" y="353.36" width="53.16" height="58.86" style="fill:#ebebeb"></rect><rect x="435.79" y="353.37" width="27.45" height="58.87" style="fill:#dbdbdb"></rect><polygon points="413.72 366.08 412.6 366.08 411.75 366.08 411.27 365.1 410.59 366.08 409.67 364.07 408.8 366.08 406.31 366.08 405.18 366.08 404.77 364.74 404.38 366.08 403.64 366.08 403.64 353.36 413.72 353.36 413.72 366.08" style="fill:#fff"></polygon><path d="M461.34,408.18q-3-6.29-6-12.6l-6-12.66-5.87-12.72q-2.93-6.36-5.79-12.78,3,6.29,6,12.6l5.95,12.66,5.88,12.72Q458.48,401.76,461.34,408.18Z" style="fill:#ebebeb"></path><path d="M461.34,357.42q-2.86,6.42-5.79,12.78l-5.88,12.72-5.95,12.66q-3,6.32-6.05,12.6c1.92-4.28,3.84-8.54,5.8-12.78l5.87-12.72,6-12.66Q458.3,363.71,461.34,357.42Z" style="fill:#ebebeb"></path><rect x="373.42" y="294.59" width="53.16" height="58.86" style="fill:#ebebeb"></rect><rect x="426.58" y="294.6" width="27.45" height="58.87" style="fill:#dbdbdb"></rect><polygon points="404.51 307.31 403.38 307.31 402.54 307.31 402.06 306.33 401.38 307.31 400.46 305.3 399.59 307.31 397.1 307.31 395.97 307.31 395.56 305.97 395.17 307.31 394.43 307.31 394.43 294.59 404.51 294.59 404.51 307.31" style="fill:#fff"></polygon><path d="M452.13,349.41q-3-6.29-6-12.6l-6-12.66-5.87-12.72q-2.92-6.37-5.79-12.78,3,6.28,6,12.6l5.95,12.66,5.88,12.72Q449.27,343,452.13,349.41Z" style="fill:#ebebeb"></path><path d="M452.13,298.65q-2.86,6.41-5.79,12.78l-5.88,12.72-5.95,12.66q-3,6.31-6.05,12.6,2.88-6.42,5.79-12.78l5.88-12.72,6-12.66Q449.08,304.94,452.13,298.65Z" style="fill:#ebebeb"></path></g><g id="freepik--Shadow--inject-2"><ellipse cx="250" cy="447.62" rx="203" ry="19.68" style="fill:#ebebeb"></ellipse></g><g id="freepik--Floor--inject-2"><polygon points="36.47 412.48 89.85 412.24 143.23 412.15 250 411.98 356.77 412.15 410.15 412.23 463.53 412.48 410.15 412.72 356.77 412.81 250 412.98 143.23 412.81 89.85 412.72 36.47 412.48" style="fill:#263238"></polygon></g><g id="freepik--qa-list--inject-2"><rect x="143.64" y="89.67" width="226.55" height="300.92" style="fill:#FFC727"></rect><g style="opacity:0.1"><rect x="143.64" y="89.67" width="226.55" height="300.92"></rect></g><rect x="149.8" y="89.67" width="226.55" height="300.92" style="fill:#FFC727"></rect><rect x="163.08" y="102.95" width="200" height="271.11" transform="translate(-3.01 3.37) rotate(-0.73)" style="fill:#ebebeb"></rect><rect x="127.52" y="138.51" width="271.11" height="200" transform="translate(18.95 496.38) rotate(-88.76)" style="fill:#dbdbdb"></rect><rect x="163.08" y="102.95" width="200" height="271.11" style="fill:#fff"></rect><rect x="193.63" y="203.7" width="19.18" height="19.18" style="fill:#ebebeb"></rect><rect x="223.18" y="203.7" width="62.15" height="2.81" style="fill:#263238"></rect><rect x="223.18" y="209.15" width="109.35" height="2.81" style="fill:#ebebeb"></rect><rect x="223.18" y="214.61" width="109.35" height="2.81" style="fill:#ebebeb"></rect><rect x="223.18" y="220.07" width="109.35" height="2.81" style="fill:#ebebeb"></rect><path d="M195.05,212.29c.71.59,1.38,1.21,2,1.83s1.31,1.26,2,1.89c1.29,1.28,2.54,2.6,3.77,3.92l-2.2.15a84.55,84.55,0,0,1,6-10.48c1.11-1.68,2.29-3.32,3.55-4.9a45,45,0,0,1,4.09-4.57,44.37,44.37,0,0,1-2.14,5.75c-.82,1.85-1.72,3.65-2.68,5.42a87.84,87.84,0,0,1-6.49,10.16l-1.21,1.61-1-1.47c-1-1.49-2-3-3-4.55-.46-.78-.95-1.55-1.4-2.35S195.46,213.12,195.05,212.29Z" style="fill:#FFC727"></path><rect x="193.63" y="243.9" width="19.18" height="19.18" style="fill:#ebebeb"></rect><rect x="223.18" y="243.9" width="62.16" height="2.81" style="fill:#263238"></rect><rect x="223.18" y="249.35" width="109.35" height="2.81" style="fill:#ebebeb"></rect><rect x="223.18" y="254.81" width="109.35" height="2.81" style="fill:#ebebeb"></rect><rect x="223.18" y="260.27" width="109.35" height="2.81" style="fill:#ebebeb"></rect><rect x="193.63" y="284.1" width="19.18" height="19.18" style="fill:#ebebeb"></rect><rect x="223.18" y="284.1" width="62.15" height="2.81" style="fill:#263238"></rect><rect x="223.18" y="289.55" width="109.35" height="2.81" style="fill:#ebebeb"></rect><rect x="223.18" y="295.01" width="109.35" height="2.81" style="fill:#ebebeb"></rect><rect x="223.18" y="300.47" width="109.35" height="2.81" style="fill:#ebebeb"></rect><rect x="193.63" y="324.3" width="19.18" height="19.18" style="fill:#ebebeb"></rect><rect x="223.18" y="324.3" width="62.16" height="2.81" style="fill:#263238"></rect><rect x="223.18" y="329.75" width="109.35" height="2.81" style="fill:#ebebeb"></rect><rect x="223.18" y="335.21" width="109.35" height="2.81" style="fill:#ebebeb"></rect><rect x="223.18" y="340.67" width="109.35" height="2.81" style="fill:#ebebeb"></rect><path d="M225.9,182.83a2.47,2.47,0,0,1-.69.34,2.54,2.54,0,0,1-.78.12,2.37,2.37,0,0,1-1.1-.25,2.88,2.88,0,0,1-.86-.64,2.85,2.85,0,0,1-.55-.92,2.91,2.91,0,0,1-.19-1,3,3,0,0,1,.2-1.08,3.09,3.09,0,0,1,.57-.92,2.85,2.85,0,0,1,.86-.63,2.44,2.44,0,0,1,1.08-.23,2.34,2.34,0,0,1,1.1.25,2.5,2.5,0,0,1,.85.65,3,3,0,0,1,.55.92,2.88,2.88,0,0,1,0,2.11,2.94,2.94,0,0,1-.56.91l.74.84h-.86Zm-1.46-.35a1.61,1.61,0,0,0,.49-.07,1.35,1.35,0,0,0,.42-.2l-.8-.92h.86l.4.46a1.9,1.9,0,0,0,.31-.62,2.37,2.37,0,0,0,.1-.7,2.54,2.54,0,0,0-.12-.78,2.41,2.41,0,0,0-.36-.65,1.81,1.81,0,0,0-.57-.46,1.6,1.6,0,0,0-.73-.17,1.62,1.62,0,0,0-.77.18,1.7,1.7,0,0,0-.56.47,2.08,2.08,0,0,0-.35.66,2.11,2.11,0,0,0-.13.75,2.27,2.27,0,0,0,.13.77,1.92,1.92,0,0,0,.36.66,1.78,1.78,0,0,0,.57.45A1.54,1.54,0,0,0,224.44,182.48Z" style="fill:#263238"></path><path d="M230.4,182.48a1.36,1.36,0,0,0,.73-.17,1.41,1.41,0,0,0,.48-.46,1.82,1.82,0,0,0,.25-.64,3.65,3.65,0,0,0,.08-.74v-2.86h.9v2.86a4.28,4.28,0,0,1-.14,1.09,2.5,2.5,0,0,1-.43.9,2,2,0,0,1-.76.6,2.53,2.53,0,0,1-1.11.23,2.46,2.46,0,0,1-1.14-.24,2,2,0,0,1-.76-.62,2.79,2.79,0,0,1-.41-.91,4.57,4.57,0,0,1-.13-1.05v-2.86h.89v2.86a3.67,3.67,0,0,0,.08.75,1.9,1.9,0,0,0,.25.64,1.3,1.3,0,0,0,.48.45A1.4,1.4,0,0,0,230.4,182.48Z" style="fill:#263238"></path><path d="M235.44,177.61h.78l2.23,5.64h-.94l-.6-1.54h-2.18l-.58,1.54h-1Zm1.3,3.44-.91-2.42-.94,2.42Z" style="fill:#263238"></path><path d="M239.15,183.25v-5.64H240v4.85h3v.79Z" style="fill:#263238"></path><path d="M243.79,183.25v-5.64h.89v5.64Z" style="fill:#263238"></path><path d="M250.09,178.39h-1.88v4.86h-.9v-4.86h-1.88v-.78h4.66Z" style="fill:#263238"></path><path d="M251.26,177.61l1.55,2.82,1.58-2.82h1l-2.1,3.62v2h-.89v-2l-2.09-3.6Z" style="fill:#263238"></path><path d="M259.17,177.61H260l2.22,5.64h-.93l-.6-1.54h-2.18l-.59,1.54h-.94Zm1.3,3.44-.91-2.42-.94,2.42Z" style="fill:#263238"></path><path d="M266.12,178.93a.92.92,0,0,0-.23-.18,2.29,2.29,0,0,0-.35-.19,2.69,2.69,0,0,0-.94-.2,1.31,1.31,0,0,0-.83.21.75.75,0,0,0-.19.91,1,1,0,0,0,.26.23,2.7,2.7,0,0,0,.44.17l.61.17a4.82,4.82,0,0,1,.78.23,1.88,1.88,0,0,1,.58.31,1.3,1.3,0,0,1,.37.44,1.45,1.45,0,0,1,.13.65,1.55,1.55,0,0,1-.16.74,1.39,1.39,0,0,1-.45.51,1.83,1.83,0,0,1-.65.28,3.44,3.44,0,0,1-.8.09,4,4,0,0,1-1.25-.19,3.49,3.49,0,0,1-1.08-.57l.4-.76a2.28,2.28,0,0,0,.3.23,3.14,3.14,0,0,0,.45.23,4.6,4.6,0,0,0,.56.19,2.59,2.59,0,0,0,.63.07,1.52,1.52,0,0,0,.81-.18.6.6,0,0,0,.29-.54.59.59,0,0,0-.11-.36.79.79,0,0,0-.31-.25,2.18,2.18,0,0,0-.48-.19l-.65-.19a6.58,6.58,0,0,1-.74-.23,1.73,1.73,0,0,1-.52-.3,1.12,1.12,0,0,1-.31-.41,1.38,1.38,0,0,1-.11-.57,1.57,1.57,0,0,1,.16-.73,1.54,1.54,0,0,1,.43-.54,1.82,1.82,0,0,1,.65-.33,2.65,2.65,0,0,1,.81-.11,3,3,0,0,1,1.06.18,3.42,3.42,0,0,1,.85.45Z" style="fill:#263238"></path><path d="M271,178.93a.92.92,0,0,0-.23-.18,2,2,0,0,0-.36-.19,1.89,1.89,0,0,0-.44-.14,2.07,2.07,0,0,0-.5-.06,1.35,1.35,0,0,0-.83.21.7.7,0,0,0-.26.57.59.59,0,0,0,.08.34.85.85,0,0,0,.26.23,2.26,2.26,0,0,0,.43.17l.62.17a5,5,0,0,1,.77.23,1.94,1.94,0,0,1,.59.31,1.3,1.3,0,0,1,.37.44,1.6,1.6,0,0,1,.13.65,1.56,1.56,0,0,1-.17.74,1.36,1.36,0,0,1-.44.51,2,2,0,0,1-.66.28,3.38,3.38,0,0,1-.8.09,4,4,0,0,1-1.24-.19,3.54,3.54,0,0,1-1.09-.57l.41-.76a2.28,2.28,0,0,0,.3.23,3.14,3.14,0,0,0,.45.23,4.08,4.08,0,0,0,.56.19,2.59,2.59,0,0,0,.63.07,1.52,1.52,0,0,0,.81-.18.67.67,0,0,0,.18-.9,1,1,0,0,0-.31-.25,2.09,2.09,0,0,0-.49-.19l-.65-.19a6.37,6.37,0,0,1-.73-.23,1.73,1.73,0,0,1-.52-.3,1.27,1.27,0,0,1-.32-.41,1.39,1.39,0,0,1-.1-.57,1.57,1.57,0,0,1,.16-.73A1.43,1.43,0,0,1,268,178a1.74,1.74,0,0,1,.65-.33,2.65,2.65,0,0,1,.81-.11,3,3,0,0,1,1,.18,3.25,3.25,0,0,1,.85.45Z" style="fill:#263238"></path><path d="M274.85,182.48a1.42,1.42,0,0,0,.74-.17,1.47,1.47,0,0,0,.47-.46,1.82,1.82,0,0,0,.25-.64,3.65,3.65,0,0,0,.08-.74v-2.86h.9v2.86a4.28,4.28,0,0,1-.14,1.09,2.5,2.5,0,0,1-.43.9,2,2,0,0,1-.75.6,2.6,2.6,0,0,1-1.12.23,2.46,2.46,0,0,1-1.14-.24,2,2,0,0,1-.75-.62,2.81,2.81,0,0,1-.42-.91,4.57,4.57,0,0,1-.12-1.05v-2.86h.89v2.86a3.67,3.67,0,0,0,.07.75,1.92,1.92,0,0,0,.26.64,1.35,1.35,0,0,0,.47.45A1.42,1.42,0,0,0,274.85,182.48Z" style="fill:#263238"></path><path d="M278.47,183.25v-5.64h2.46a1.63,1.63,0,0,1,.7.15,1.79,1.79,0,0,1,.55.42,1.71,1.71,0,0,1,.36.59,1.75,1.75,0,0,1,.14.67,2,2,0,0,1-.08.55,1.93,1.93,0,0,1-.23.48,1.44,1.44,0,0,1-.35.39,1.22,1.22,0,0,1-.45.24l1.33,2.15h-1l-1.23-2h-1.3v2Zm.89-2.75h1.56a.7.7,0,0,0,.35-.09.71.71,0,0,0,.26-.23,1.16,1.16,0,0,0,.18-.33,1.4,1.4,0,0,0,.06-.41,1.06,1.06,0,0,0-.08-.4,1.25,1.25,0,0,0-.19-.34,1,1,0,0,0-.29-.22.69.69,0,0,0-.34-.09h-1.51Z" style="fill:#263238"></path><path d="M285.3,177.61h.78l2.22,5.64h-.94l-.59-1.54h-2.18l-.59,1.54h-.94Zm1.29,3.44-.9-2.42-.94,2.42Z" style="fill:#263238"></path><path d="M289.89,179.27v4H289v-5.64h.7l3.23,4.06v-4.06h.9v5.64h-.74Z" style="fill:#263238"></path><path d="M294.74,180.39a3,3,0,0,1,.18-1,2.77,2.77,0,0,1,.54-.9,2.54,2.54,0,0,1,.86-.65,2.66,2.66,0,0,1,1.15-.25,2.4,2.4,0,0,1,1.32.35,2.15,2.15,0,0,1,.83.89l-.7.46a1.64,1.64,0,0,0-.29-.42,1.35,1.35,0,0,0-.36-.28,1.62,1.62,0,0,0-.42-.15,2,2,0,0,0-.41,0,1.61,1.61,0,0,0-.78.18,1.59,1.59,0,0,0-.56.47,2.06,2.06,0,0,0-.34.66,2.29,2.29,0,0,0,0,1.52,2.41,2.41,0,0,0,.38.66,1.78,1.78,0,0,0,.57.45,1.54,1.54,0,0,0,.73.17,1.63,1.63,0,0,0,.43-.05,1.38,1.38,0,0,0,.42-.17,1.28,1.28,0,0,0,.37-.29,1.31,1.31,0,0,0,.29-.42l.73.42a1.43,1.43,0,0,1-.38.56,2.19,2.19,0,0,1-.55.41,3.12,3.12,0,0,1-.66.26,2.71,2.71,0,0,1-.68.09,2.34,2.34,0,0,1-1.09-.26,3,3,0,0,1-.85-.66,3.13,3.13,0,0,1-.55-.93A2.81,2.81,0,0,1,294.74,180.39Z" style="fill:#263238"></path><path d="M304.4,182.46v.79h-3.87v-5.64h3.8v.78h-2.91V180h2.52v.74h-2.52v1.72Z" style="fill:#263238"></path><path d="M279.8,127.05h7.35l16.27,42.78h-8.55l-4-10.66H276L272,169.83h-8.55Zm9.58,26.27-5.9-16.81-6.15,16.81Z" style="fill:#263238"></path><rect x="213.96" y="84.18" width="98.24" height="29.95" style="fill:#c7c7c7"></rect><path d="M293.11,67.81h-61l-2.7,16.37h67.27Zm-30,11.78a3.6,3.6,0,1,1,3.59-3.6A3.6,3.6,0,0,1,263.08,79.59Z" style="fill:#c7c7c7"></path><polygon points="296.72 84.18 229.45 84.18 230.05 80.51 295.9 80.51 296.72 84.18" style="fill:#a6a6a6"></polygon></g><g id="freepik--Plant--inject-2"><path d="M439.81,359.17a42.62,42.62,0,0,0-1.38,7.81c.07.13.06.61,0,.48,0,.43-.67.35-.67-.07s0-.55,0-.82c-1.53-1.89-3.75-3.09-5.54-4.74a10.42,10.42,0,0,1-3-4.82c-1.48-5.12-.09-10.55-1.88-15.65-1.54-4.4-4.3-8.23-6.64-12.22-2.46-4.22-4.28-8.65-4.47-13.59-.14-3.78.31-8.82,3.19-11.66,3.05-3,6.84-.75,9.18,1.93,6.78,7.78,9.92,17.62,11.19,27.67A109.64,109.64,0,0,1,441,350.27,45.18,45.18,0,0,1,439.81,359.17Z" style="fill:#FFC727"></path><path d="M438.46,369a95.32,95.32,0,0,0-.19-15.76s0,0,0-.06c.08-4.26.42-8.5.26-12.77a77.2,77.2,0,0,0-1.88-13.7c0-.05-.09,0-.08,0a90.06,90.06,0,0,1,1.48,13.4q.14,3.62-.06,7.22c0,.79-.11,1.58-.16,2.36h0a84.23,84.23,0,0,0-12.67-33.55c-.09-.14-.34,0-.25.15a87.91,87.91,0,0,1,10.32,24.87c-3.26-6-8.19-11-11.84-16.81,0,0-.07,0-.06,0,3.29,6.46,8.71,11.55,12.16,17.92.6,2.6,1.1,5.21,1.46,7.85a88.5,88.5,0,0,1,.79,10.9,123.34,123.34,0,0,1-5.67-11.18.09.09,0,1,0-.16.07,43.57,43.57,0,0,0,5.84,11.94q0,3.88-.22,7.75c-.4,6.88-1.58,13.67-2.12,20.53a.16.16,0,0,0,.31,0A157.52,157.52,0,0,0,438.46,369Z" style="fill:#263238"></path><path d="M431.15,316c0-.05-.09,0-.08,0,1.26,3.48,2,7,2.88,10.56a.13.13,0,0,0,.26,0A37.79,37.79,0,0,0,431.15,316Z" style="fill:#263238"></path><path d="M463.07,330.52a51.65,51.65,0,0,1-2.89,5.94c-2.26,4.11-4.62,7.87-5.05,12.66a29.39,29.39,0,0,1-.91,6.34,19,19,0,0,1-2.53,5c-2.45,3.57-5.52,6.65-7.79,10.36a43.68,43.68,0,0,0-5.18,12.49c-.06.24-.44.17-.38-.07a.09.09,0,0,0,0,0s0,0,0-.05c-.36-10.27.46-20.61,3.59-30.44a105.86,105.86,0,0,1,5-12.66,29.84,29.84,0,0,1,6.72-9.66c1.91-1.72,6.05-5,8.77-3.26C463.68,327.92,463.59,329.23,463.07,330.52Z" style="fill:#FFC727"></path><path d="M452.76,353.78a84.27,84.27,0,0,1-6,8.58c-1,1.29-2,2.58-3,3.88-.47.61-1,1.22-1.43,1.88.28-1.08.54-2.16.82-3.23a125,125,0,0,1,4.57-15.41,103.69,103.69,0,0,1,7.12-14c.07-.12-.12-.2-.19-.09-2.17,3.57-4.37,7.13-6.19,10.89a56.4,56.4,0,0,0-2.63,6.46,98.57,98.57,0,0,1,3.5-13.8s-.05-.07-.07,0a47.26,47.26,0,0,0-3.63,14.36v0c-.44,1.33-.85,2.68-1.24,4-1.61,5.74-3,11.54-4.35,17.36a62.44,62.44,0,0,1,1-11.41c0-.09-.11-.11-.13,0a35.83,35.83,0,0,0-1,12c-.5,2.21-1,4.43-1.46,6.65-1,4.73-2.25,9.54-2.84,14.35a.1.1,0,0,0,.19,0c.71-2.59,1.13-5.28,1.71-7.9s1.17-5.25,1.78-7.88c.89-3.81,1.83-7.62,2.78-11.43a20.37,20.37,0,0,1,2.78-3.8c1-1.28,2-2.57,3-3.87a58.59,58.59,0,0,0,4.94-7.64C452.88,353.77,452.79,353.73,452.76,353.78Z" style="fill:#263238"></path><path d="M453.19,349.39a53.79,53.79,0,0,0-5.83,9.28,0,0,0,0,0,.07,0c2-3.08,3.89-6.18,5.86-9.26C453.32,349.4,453.23,349.35,453.19,349.39Z" style="fill:#263238"></path><path d="M409.5,340.25c1.33,2.29,2.85,5,2.28,7.79-.36,1.74-1.64,3.15-1.87,4.93-.51,3.92,3.4,6.51,6.22,8.36,7.05,4.63,16.72,8.75,18,18.19.05.34.62.25.58-.07a.15.15,0,0,0,0-.07s0,0,0-.05a35.91,35.91,0,0,0-.13-14.42,45.71,45.71,0,0,0-5.68-13.52c-4.24-7.24-8.73-14.65-15.15-20.19-1.77-1.53-5.41-4.29-6.82-.83S407.87,337.45,409.5,340.25Z" style="fill:#FFC727"></path><path d="M416,355.59c4.68,5.06,12.11,7.89,16.13,13.56a56.81,56.81,0,0,0-12.39-23.28.18.18,0,0,1,.25-.26,46,46,0,0,1,10.13,14.67,65.91,65.91,0,0,0-4.36-11.15.12.12,0,0,1,.21-.12,42.73,42.73,0,0,1,4.7,12.53c5.3,12.83,5.79,27.88,4.68,41.4,0,.19-.31.2-.31,0,.31-10.66.13-21.5-2.42-31.91-.05-.21-.11-.43-.17-.64-4.37-6.1-11.77-8.93-16.53-14.72C415.83,355.61,415.9,355.53,416,355.59Z" style="fill:#263238"></path><path d="M414.87,351.24c2.45,2.25,4.87,4.55,7.33,6.8,0,0,0,.07,0,0a35.89,35.89,0,0,1-7.43-6.7A.1.1,0,0,1,414.87,351.24Z" style="fill:#263238"></path><path d="M414.48,341.49a78.13,78.13,0,0,0,7.34,10.1,0,0,0,0,1-.06.06,35.67,35.67,0,0,1-7.41-10.08C414.31,341.48,414.43,341.41,414.48,341.49Z" style="fill:#263238"></path><polygon points="425.53 412.48 447.01 412.48 444.12 383.57 428.84 383.57 425.53 412.48" style="fill:#455a64"></polygon><polygon points="428.3 388.27 444.59 388.27 444.12 383.57 428.83 383.57 428.3 388.27" style="fill:#263238"></polygon><rect x="426.2" y="380.37" width="20.14" height="4.62" transform="translate(872.54 765.35) rotate(180)" style="fill:#455a64"></rect></g><g id="freepik--Bug--inject-2"><path d="M248.93,147.13H236.18s0,.46,0,1.21c0,.26,0,.55,0,.87a16.3,16.3,0,0,0,.31,2.4c.06.29.13.58.2.88a9.8,9.8,0,0,0,.85,2.16,5.36,5.36,0,0,0,.53.86,5.59,5.59,0,0,0,8.93,0,6.24,6.24,0,0,0,.54-.86,10,10,0,0,0,.84-2.16c.07-.3.14-.59.2-.88a16.3,16.3,0,0,0,.31-2.4c0-.32,0-.61,0-.87A11.83,11.83,0,0,0,248.93,147.13Zm-6,8.92h-.75v-7.81h.75Z" style="fill:#FFC727"></path><path d="M249,146.17H236.15c0-2.5,2.68-4.87,6.41-4.87S249,143.67,249,146.17Z" style="fill:#FFC727"></path><polygon points="237.03 149.21 234.56 149.21 232.82 146.22 233.57 145.78 235.06 148.34 237.03 148.34 237.03 149.21" style="fill:#FFC727"></polygon><rect x="233.32" y="151.61" width="4.36" height="0.87" style="fill:#FFC727"></rect><polygon points="234.74 157.21 234.09 156.62 235.87 154.65 238.74 154.65 238.74 155.52 236.26 155.52 234.74 157.21" style="fill:#FFC727"></polygon><polygon points="250.55 149.21 248.09 149.21 248.09 148.34 250.05 148.34 251.54 145.78 252.29 146.22 250.55 149.21" style="fill:#FFC727"></polygon><rect x="247.43" y="151.61" width="4.36" height="0.87" style="fill:#FFC727"></rect><polygon points="250.38 157.21 248.85 155.52 246.37 155.52 246.37 154.65 249.24 154.65 251.02 156.62 250.38 157.21" style="fill:#FFC727"></polygon><polygon points="240.84 143.8 237.23 140.19 237.23 136.72 238.1 136.72 238.1 139.83 241.46 143.18 240.84 143.8" style="fill:#FFC727"></polygon><polygon points="244.27 143.8 243.66 143.18 247.01 139.83 247.01 136.72 247.88 136.72 247.88 140.19 244.27 143.8" style="fill:#FFC727"></polygon></g><g id="freepik--character-2--inject-2"><path d="M296.15,445.19c2,.64,58.32-.09,60.45-1.48.81-.52,1.19-8.73,1.35-18.67,0-.11.93-36.73.93-36.73l-36.06.38-1.2,36.72s-21.45,9.92-23.62,11.7S294.17,444.56,296.15,445.19Z" style="fill:#f7a9a0"></path><path d="M358.24,413.59C358.08,419.94,358,425,358,425c-.16,9.94-.54,18.15-1.35,18.67-2.13,1.39-58.48,2.12-60.45,1.48s-.31-6.31,1.85-8.08,23.62-11.7,23.62-11.7l.39-11.82Z" style="fill:#dbdbdb"></path><path d="M313.08,429.26c.14,0,.22-.09.23-.13A1.91,1.91,0,0,0,313.08,429.26Z" style="fill:#FFC727"></path><path d="M296,445.15c1.28.42,25.26.35,42.71-.13,4-.11,7.73-.25,10.71-.4,4.1-.21,6.86-.45,7.3-.74,1-.64,1.38-12.69,1.52-25.39l-36.81.24.23,6.64s-21.58,9.9-23.77,11.67S294.05,444.5,296,445.15Z" style="fill:#FFC727"></path><path d="M296.82,442.88c9.48-.32,47.77-.72,57.17-.32.07,0,.07.05,0,.06-9.4.52-47.68.62-57.17.42C296.62,443,296.62,442.89,296.82,442.88Z" style="fill:#263238"></path><path d="M320.33,423.28c3.72-.74,8.3-.21,11.17,2.43.11.1,0,.26-.15.22a52.16,52.16,0,0,0-11-2.18A.24.24,0,0,1,320.33,423.28Z" style="fill:#263238"></path><path d="M317.65,424.93c3.73-.74,8.3-.21,11.17,2.43.12.1,0,.26-.15.22a52.16,52.16,0,0,0-11-2.18A.24.24,0,0,1,317.65,424.93Z" style="fill:#263238"></path><path d="M315,426.58c3.73-.74,8.3-.21,11.17,2.43.12.1,0,.26-.15.22a52.16,52.16,0,0,0-11-2.18A.24.24,0,0,1,315,426.58Z" style="fill:#263238"></path><path d="M312.29,428.22c3.73-.73,8.3-.2,11.18,2.44.11.1,0,.25-.16.22a52.16,52.16,0,0,0-11-2.18A.24.24,0,0,1,312.29,428.22Z" style="fill:#263238"></path><path d="M369.45,226s-9.19,95.44-10.57,102.7c-.32,1.66-.85,93.35-.85,93.35l-38.47-.59s3.74-78.87,5.5-93.38,10-102.08,10-102.08Z" style="fill:#263238"></path><path d="M356.84,414a28.62,28.62,0,0,0-3.47-.25l-3.47-.16c-2.28-.09-4.55-.19-6.83-.27-4.63-.16-9.27-.31-13.9-.48-2.61-.1-5.22-.1-7.83-.08a.08.08,0,0,0,0,.16c9.22.93,18.54,1.12,27.8,1.35l4,.07a31.59,31.59,0,0,0,3.77-.06C357,414.29,357,414.06,356.84,414Z" style="fill:#37474f"></path><path d="M364.25,230.21c-2.8,23.27-5.61,46.54-7.93,69.87-1.15,11.57-2.23,23.15-2.95,34.75s-1,23.41-1.17,35.13c-.19,13.24-.5,26.49-.29,39.74,0,.12.19.11.2,0,1.15-23.4.82-46.86,2.06-70.26s3.78-46.73,6.36-70c1.44-13,2.79-26.09,4.14-39.14C364.69,230,364.28,230,364.25,230.21Z" style="fill:#37474f"></path><path d="M374.46,449.6c2.07.16,56.7-13.69,58.44-15.54.67-.69-.88-8.77-3-18.47l-.07-.31c-.44-2-12-35.62-12-35.62l-35.44,9.12,12.05,35.05.16.59s-18.53,14.66-20.24,16.89S372.39,449.45,374.46,449.6Z" style="fill:#f7a9a0"></path><path d="M432.9,434.06c-1.74,1.85-56.36,15.7-58.43,15.54s-1.78-6.06-.09-8.29,20.24-16.89,20.24-16.89l-.17-.59-3.54-10.28c6.89-2.22,24.61-6.64,35.3-9.25,1.9,5.68,3.43,10.28,3.58,11,0,.11,0,.21.07.31C432,425.29,433.58,433.37,432.9,434.06Z" style="fill:#dbdbdb"></path><path d="M374.38,449.85c1.35.09,24.6-5.76,41.42-10.43,3.89-1.09,7.44-2.11,10.29-3,3.94-1.2,6.55-2.1,6.92-2.49.8-.86-1.73-12.64-4.65-25l-35.68,9.12,1.83,6.38S376,439.27,374.26,441.52,372.31,449.7,374.38,449.85Z" style="fill:#FFC727"></path><path d="M374.6,447.46c9.13-2.6,46.18-12.24,55.4-14.11.08,0,.09,0,0,0-9,2.78-46.13,12.11-55.38,14.21C374.44,447.65,374.41,447.51,374.6,447.46Z" style="fill:#263238"></path><path d="M392.68,422.76c3.44-1.61,8-2.2,11.44-.34.13.07,0,.26-.1.25a52.47,52.47,0,0,0-11.2.54A.24.24,0,0,1,392.68,422.76Z" style="fill:#263238"></path><path d="M390.48,425c3.44-1.6,8-2.19,11.43-.33.14.07,0,.26-.09.25a52.6,52.6,0,0,0-11.21.54A.24.24,0,0,1,390.48,425Z" style="fill:#263238"></path><path d="M388.28,427.25c3.44-1.61,8-2.2,11.43-.34.13.08,0,.26-.1.26a52.54,52.54,0,0,0-11.2.54A.24.24,0,0,1,388.28,427.25Z" style="fill:#263238"></path><path d="M386.08,429.5c3.44-1.61,8-2.2,11.43-.34.13.07,0,.26-.1.25a52.5,52.5,0,0,0-11.2.54A.24.24,0,0,1,386.08,429.5Z" style="fill:#263238"></path><path d="M391,421.09l39-9.39s-29.17-75.92-30.82-81c-1.19-3.7-10.86-48.85-14.26-68.57,0,0,5.08-14.4-6.29-36.14H335.06s1,20.69,6.25,33.81a61,61,0,0,1,10.14,4.63s12.48,70.61,14.53,77C370.42,355.39,391,421.09,391,421.09Z" style="fill:#263238"></path><path d="M358.39,302.2q-2.36-12.46-4.68-25c-.44-2.34-.94-4.68-1.42-7s-.91-4.7-1.58-7a.14.14,0,0,0-.27.05c.13,2.12.52,4.24.8,6.35s.59,4.1.93,6.14c.72,4.19,1.5,8.37,2.29,12.55,1.59,8.34,3.17,16.71,5.11,25,1.09,4.65,2.11,9.32,3.27,14,0,.1.16.05.15,0C361.53,318.87,360,310.54,358.39,302.2Z" style="fill:#37474f"></path><path d="M349.21,254c.58-1.45.12-3.13-.15-4.6-.34-1.87-.66-3.74-1-5.61q-1.17-6.33-2.54-12.62s-.08,0-.08,0c.41,3.36.87,6.71,1.35,10s1.14,6.71,1.56,10.08c.13,1.1,0,3.24-1.54,3.25-1.34,0-2.14-2-2.57-3a47.29,47.29,0,0,1-2.44-9.24c-.77-3.71-1.4-7.45-2.05-11.18,0-.13-.23-.09-.22,0a108.29,108.29,0,0,0,1.31,11.06c.57,3.49,1.11,7.16,2.58,10.4.55,1.22,1.32,2.72,2.73,3.1a2.52,2.52,0,0,0,.6.07c.13,1.11.3,2.22.53,3.32a22.22,22.22,0,0,0,.88,3.39.13.13,0,0,0,.26,0h0a26.22,26.22,0,0,0-.51-3.41,33.49,33.49,0,0,0-.83-3.28A2.86,2.86,0,0,0,349.21,254Z" style="fill:#37474f"></path><path d="M356.51,264.92a34.79,34.79,0,0,0-6.91-2.29,48.33,48.33,0,0,0-7-1,.08.08,0,0,0,0,.16c2.33.36,11.54,2.62,13.85,3.2C356.53,265,356.57,265,356.51,264.92Z" style="fill:#37474f"></path><path d="M413.33,384.05q-3.12-8.3-6.25-16.61c-4.15-11-8.42-21.91-12.54-32.89s-5.81-22.39-8-33.74c-1.14-5.78-2.26-11.57-3.4-17.35s-2.5-11.47-3.17-17.28.2-11.36-.3-17a42.66,42.66,0,0,0-4-14.62c-.56-1.17-1.17-2.3-1.84-3.41-.08-.13-.27,0-.2.13a46.31,46.31,0,0,1,5,15.24,47.52,47.52,0,0,1,.42,8c-.08,2.86-.28,5.73-.14,8.6.27,5.73,1.6,11.38,2.7,17s2.25,11.45,3.38,17.18,2.29,11.56,3.42,17.34a132.35,132.35,0,0,0,4.05,16.7c1.83,5.46,4,10.82,6,16.2,2.1,5.54,4.19,11.07,6.31,16.6,4.21,11,8.34,22.05,12.74,33,.52,1.27,1,2.54,1.6,3.79.07.17.33,0,.28-.13C417.6,395.1,415.41,389.58,413.33,384.05Z" style="fill:#37474f"></path><path d="M425.53,403.54a28.72,28.72,0,0,0-3.4.76l-3.37.86c-2.2.58-4.41,1.14-6.61,1.73l-13.44,3.57c-2.53.66-5,1.42-7.52,2.2a.08.08,0,0,0,0,.15c9.09-1.79,18.06-4.3,27-6.78,1.28-.35,2.55-.72,3.82-1.09a27.79,27.79,0,0,0,3.59-1.15C425.79,403.73,425.67,403.52,425.53,403.54Z" style="fill:#37474f"></path><path d="M325.62,198.16l6,.31a18.37,18.37,0,0,0,2.21-10.95c-.08-.86,1.83,4.16.83,11.11,6.32.32,14.91.76,22.42,1.07.22-2.93.57-5.63.57-5.63a33.26,33.26,0,0,0,1.06,5.71l3,.12a115.75,115.75,0,0,1,.9-12.48A40.1,40.1,0,0,0,366,200.05c4.77.15,7.91.16,7.71-.08-7-8.47-1.57-13.09-3.42-20.43-2.22-8.8-9.71-10.39-9.31-16.94.32-5.33,1.25-15-5.44-17.25a13,13,0,0,0-14-3.08c-10.77,3.78-7,20.35-7.82,23.68-1.17,4.75-3.49,6.37-5.34,11.78s.53,9.2.71,13S324.42,198.12,325.62,198.16Z" style="fill:#263238"></path><path d="M373.92,198.8a18.5,18.5,0,0,1-2.19-4.74,9.67,9.67,0,0,1,.16-5c.37-1.71.81-3.44,1-5.25a13.91,13.91,0,0,0-.37-5.51,12.15,12.15,0,0,0-2.75-4.81,31.26,31.26,0,0,0-4-3.59,20.1,20.1,0,0,1-3.69-3.62,9.58,9.58,0,0,1-1.78-4.82,8.93,8.93,0,0,0,1.24,5.17,18.21,18.21,0,0,0,3.55,4.06,41.26,41.26,0,0,1,3.71,3.64,11.62,11.62,0,0,1,2.37,4.36,13.6,13.6,0,0,1,.37,5c-.15,1.71-.51,3.41-.79,5.18a18.44,18.44,0,0,0-.25,2.71,7.89,7.89,0,0,0,.53,2.73A15.26,15.26,0,0,0,373.92,198.8Z" style="fill:#263238"></path><path d="M335.3,148.22a26.43,26.43,0,0,0-1.63,6.33c-.33,2.15-.55,4.32-.75,6.48l-.33,3.22a15.39,15.39,0,0,1-.57,3.08,17.31,17.31,0,0,1-3.06,5.43,26.41,26.41,0,0,0-1.82,2.8,15.47,15.47,0,0,0-1.27,3.16,22,22,0,0,0-.56,3.31,13.67,13.67,0,0,0,.09,3.38c.17,1.11.45,2.17.68,3.21a16.91,16.91,0,0,1,.42,3.15,6.68,6.68,0,0,1-2.77,5.43,6.78,6.78,0,0,0,3.44-5.42,16,16,0,0,0-.19-3.32c-.16-1.1-.4-2.15-.49-3.19a17.32,17.32,0,0,1,.67-6.19,14.54,14.54,0,0,1,1.19-2.85,24.22,24.22,0,0,1,1.76-2.64,33,33,0,0,0,1.85-2.75,14.11,14.11,0,0,0,1.35-3.14,17.58,17.58,0,0,0,.52-3.33c.09-1.09.14-2.18.19-3.26.1-2.17.18-4.33.34-6.49A31.6,31.6,0,0,1,335.3,148.22Z" style="fill:#263238"></path><path d="M351.15,189.4c-6.47,8.9-30.91,28.86-41.86,27.52-8.82-1.08-30.65-14.62-36.36-18.32-4.82-3.11,7.32-23.71,11.63-21.87,5.38,2.29,21.5,18.1,26.82,18,2.1,0,16.27-5.51,33.33-12.26C351.32,179.86,355,184.09,351.15,189.4Z" style="fill:#f7a9a0"></path><path d="M265,198.12c4.58,2.79,16.16,4.82,19.14,4.24s7.1-20.16,5.08-22.54-18.15-10.56-23.57-9.86S260.25,195.24,265,198.12Z" style="fill:#f7a9a0"></path><rect x="258.31" y="159.23" width="5.94" height="23.06" transform="translate(-46.82 220.75) rotate(-42.38)" style="fill:#455a64"></rect><path d="M258.38,133.18a21.58,21.58,0,1,0-16.93,36.11l1,0A21.58,21.58,0,0,0,264,148.71c0-.34,0-.69,0-1A21.38,21.38,0,0,0,258.38,133.18Zm-2.7,20.76a14.79,14.79,0,0,1-3.39,4.58A14.62,14.62,0,1,1,257,148.39,14.75,14.75,0,0,1,255.68,153.94Z" style="fill:#263238"></path><path d="M257,148.39a14.41,14.41,0,0,1-4.74,10.13A14.62,14.62,0,1,1,257,148.39Z" style="fill:#fff;opacity:0.1"></path><path d="M257,148.39a13.86,13.86,0,0,1-.16,1.58,14.65,14.65,0,0,1-8.21,11,14.23,14.23,0,0,1-4,1.22,14.59,14.59,0,0,1-2.89.15,15.48,15.48,0,0,1-2.9-.42l-.72-.2a14.32,14.32,0,0,1-5.82-3.43c-.24-.22-.47-.46-.69-.7a14.4,14.4,0,0,1-1.87-2.57,13.94,13.94,0,0,1-1.1-2.35c-.08-.23-.16-.46-.22-.69a14.62,14.62,0,0,1-.62-4.72c0-.06,0-.13,0-.19A14.62,14.62,0,0,1,242,133.12h.47a14.63,14.63,0,0,1,4.25.63c.23.07.46.14.68.23a14,14,0,0,1,2.37,1.08,14.77,14.77,0,0,1,3.26,2.57l.25.26a14.54,14.54,0,0,1,3.18,5.57c.08.23.14.47.2.7A14.63,14.63,0,0,1,257,148.39Z" style="fill:#fff;opacity:0.1"></path><g style="opacity:0.30000000000000004"><path d="M253,137.62l-20.66,20.66c-.24-.22-.47-.46-.69-.7a14.4,14.4,0,0,1-1.87-2.57l20-20A14.77,14.77,0,0,1,253,137.62Z" style="fill:#ebebeb"></path><path d="M242,133.12l-14.13,14.13c0-.06,0-.13,0-.19A14.62,14.62,0,0,1,242,133.12Z" style="fill:#ebebeb"></path><path d="M256.87,150a14.69,14.69,0,0,1-1.19,4l-7,7a14.23,14.23,0,0,1-4,1.22Z" style="fill:#ebebeb"></path><path d="M256.61,144.15l-17.75,17.76-.72-.2,18.27-18.26C256.49,143.68,256.55,143.92,256.61,144.15Z" style="fill:#ebebeb"></path><path d="M247.35,134l-18.69,18.69c-.08-.23-.16-.46-.22-.69l18.23-18.23C246.9,133.81,247.13,133.88,247.35,134Z" style="fill:#ebebeb"></path></g><rect x="270.92" y="174.53" width="8.99" height="22.93" transform="translate(-53.4 234.25) rotate(-42.38)" style="fill:#263238"></rect><path d="M271.11,170.84c1.9,2.11-1.67,3.14-1.67,3.14s5.49-.25,6.61,2.69-3.29,3.91-3.6,4c.29,0,5.35-.1,6.16,3s-3.72,3.52-4,3.55c.28.07,3.93,1.15,4,3.61.15,4.24-9.27,1.75-12.17,3.6,0,0,2.58,5.26,2.62,5.43,0,0-9-2.19-11.29-6.23a3,3,0,0,1,.55-3.67s-3-.38-3.71-2.77c-.36-1.23,1.28-2.91,1.28-2.91a3.73,3.73,0,0,1-2.89-2.57c-.41-1.73,1.3-3.14,1.3-3.14s-2.1-1.45-1.95-3.35C252.67,171.34,267,166.32,271.11,170.84Z" style="fill:#f7a9a0"></path><path d="M254.55,178.26a0,0,0,0,1,0-.07,26.44,26.44,0,0,1,15.11-4.29c.17,0,.23.29,0,.31A54.26,54.26,0,0,0,254.55,178.26Z" style="fill:#263238"></path><path d="M255.82,184.24s-.09-.07,0-.1a24.71,24.71,0,0,1,16.78-3.66c.2,0,.35.27.11.25C268.67,180.35,260.31,182.22,255.82,184.24Z" style="fill:#263238"></path><path d="M275,187.39c-5.73-.75-11.11.41-16.48,2.4-.07,0-.1-.08,0-.11,2.36-1.69,5.91-2.6,8.73-3.08a15.23,15.23,0,0,1,7.81.59C275.12,187.22,275.11,187.4,275,187.39Z" style="fill:#263238"></path><path d="M269.44,174a16.61,16.61,0,0,1,3.14.44,5.75,5.75,0,0,1,2.72,1.33,1.91,1.91,0,0,1,.57,1.25,2.79,2.79,0,0,1-.28,1.37,3.44,3.44,0,0,1-2.27,1.59l-2.26.53,2.31.29a9.15,9.15,0,0,1,3,.84,3.43,3.43,0,0,1,1.94,2,2,2,0,0,1-.83,2.31,5.92,5.92,0,0,1-2.85.78l-2.75.15,2.64.76a9,9,0,0,1,2.09.91,3.63,3.63,0,0,1,1.5,1.51,1.74,1.74,0,0,1-.2,1.83,3.87,3.87,0,0,1-1.93,1,30.71,30.71,0,0,1-4.74.61c-.8.07-1.61.13-2.42.24a5.87,5.87,0,0,0-2.32.68,6.25,6.25,0,0,1,2.34-.46c.81,0,1.61-.05,2.42-.05a26.77,26.77,0,0,0,4.87-.37,4.47,4.47,0,0,0,2.35-1.12,2.47,2.47,0,0,0,.41-2.69,4.58,4.58,0,0,0-1.81-1.93,10.1,10.1,0,0,0-2.32-1l-.12.91a6.92,6.92,0,0,0,3.37-.9,2.82,2.82,0,0,0,1.19-1.49,3.2,3.2,0,0,0,0-1.89,4.31,4.31,0,0,0-2.44-2.54,10.41,10.41,0,0,0-3.28-.87l.05.82a4.07,4.07,0,0,0,2.7-2.1,3.43,3.43,0,0,0,.26-1.73,2.45,2.45,0,0,0-.79-1.55,6,6,0,0,0-3-1.25A13.67,13.67,0,0,0,269.44,174Z" style="fill:#263238"></path><path d="M288.19,179.12s-20.51-18.88-22.89-9.28c-.71,2.85-.22,15.41,2.31,15.36,3.26-.07,4-5.35,4-8.74,0,0,5.21,5.81,10.34,3.38A10,10,0,0,1,288.19,179.12Z" style="fill:#f7a9a0"></path><path d="M265.55,169.05a11.56,11.56,0,0,0-.74,3.39,23.63,23.63,0,0,0-.1,3.47,39.74,39.74,0,0,0,.77,6.93,6.38,6.38,0,0,0,.62,1.74,2.46,2.46,0,0,0,.69.8,1.88,1.88,0,0,0,.51.27,1.93,1.93,0,0,0,.57.07,2.9,2.9,0,0,0,1.88-.77,5.48,5.48,0,0,0,1.12-1.53,10.43,10.43,0,0,0,1-3.45,24.39,24.39,0,0,0,.16-3.51l-.71.26a13.85,13.85,0,0,0,2,1.74,13.69,13.69,0,0,0,2.29,1.31,9.17,9.17,0,0,0,2.55.68,6.67,6.67,0,0,0,2.6-.19,7.52,7.52,0,0,1-2.55-.09,9,9,0,0,1-2.38-.86,12.23,12.23,0,0,1-2.12-1.38,13.49,13.49,0,0,1-1.81-1.73l-.67-.79,0,1.05a25.25,25.25,0,0,1-.26,3.38A10.06,10.06,0,0,1,270,183c-.48.92-1.27,1.77-2.15,1.77s-1.24-1.1-1.51-2.14-.45-2.21-.63-3.34-.32-2.27-.42-3.4A22,22,0,0,1,265.55,169.05Z" style="fill:#263238"></path><path d="M291.33,180.21l-6.85,27.26s17.33,10.64,26.22,10.58,30.6-15.77,38.08-23.75,8.08-17-6.23-12-30.7,11.47-31.15,11.56S291.33,180.21,291.33,180.21Z" style="fill:#ebebeb"></path><path d="M294.46,196.85c.48-2,2.24-10.15,2.46-12.2,0-.06-.1-.07-.12,0-.71,2-2.7,10.07-3.17,12.1-.93,4.07-1.93,8.15-2.5,12.29,0,.09.13.13.15,0C292.61,205.08,293.51,200.94,294.46,196.85Z" style="fill:#263238"></path><path d="M332.82,235s18,4.27,52.17,1.32c0,0-13.35-42.62-24.1-54.11-4.9-5.23-9.68-4.43-13.74-1.07-1,.84-13.55,16.76-14.61,22.3-.94,4.91,3,10.35,3,10.35Z" style="fill:#ebebeb"></path><path d="M385,239.31c-34.15,2.95-52.84.83-52.84.83l3.44-26.35s-4-5.44-3-10.35c.68-3.53,8.38-15.86,12.87-22,.8-1.1,1.23-.76,1.23-.76-1.18,5-6.2,14.27-3.08,15.25,2.69.85,10.32-9.44,13.78-16.54a16.47,16.47,0,0,1,2.55,1.24C372.36,190.29,385,239.31,385,239.31Z" style="fill:#FFC727"></path><path d="M358.94,182.38c-2.75.75-3.82,6.9-3,11.56s5.07,10.1,8.42,8.92c3.93-1.38,3.77-7.3,2.6-12C366,186.88,361.72,181.63,358.94,182.38Z" style="fill:#ebebeb"></path><path d="M339.08,191.71c-1.11,1.48-2.1,3-3.05,4.59.39-.89.75-1.79,1.07-2.71,0,0-.05-.07-.07,0-.33.65-.66,1.31-.94,2s-.48,1.22-.71,1.84l0,0a24.31,24.31,0,0,0-2.83,5.85,11.28,11.28,0,0,0,.12,5.74,13.91,13.91,0,0,0,1.11,2.78,8.81,8.81,0,0,0,1.47,2.2c-.34,2-.57,4-.83,5.93a47.64,47.64,0,0,0-.6,5.82.11.11,0,0,0,.21,0l.12-.42a0,0,0,0,0,0-.06c.43-1.79.61-3.66.86-5.46s.73-5.8.73-5.83-.9-1.64-1.25-2.39a17.77,17.77,0,0,1-1-2.83,10.79,10.79,0,0,1-.11-5.64,26.76,26.76,0,0,1,2.65-5.66c1.06-1.9,2.16-3.79,3.25-5.67C339.25,191.73,339.13,191.64,339.08,191.71Z" style="fill:#263238"></path><path d="M382.67,231H333.35l.23-1.77h48.56C382.33,229.81,382.5,230.4,382.67,231Z" style="fill:#fff"></path><path d="M383.69,234.56H332.88l.23-1.78h50.08C383.37,233.41,383.54,234,383.69,234.56Z" style="fill:#fff"></path><path d="M343.56,196a20.65,20.65,0,0,0-3,8.9,20.26,20.26,0,0,0-.07,2.34,22.62,22.62,0,0,0,.29,2.32,17.73,17.73,0,0,0,1.44,4.42l0,.09v.08c-.13,4.44-.39,8.87-.59,13.3s-.51,8.86-.87,13.29c0-4.44.12-8.88.24-13.32s.28-8.87.52-13.3l0,.17a18.38,18.38,0,0,1-1.45-4.62,16.26,16.26,0,0,1-.24-2.41c0-.81,0-1.62.15-2.42a19.07,19.07,0,0,1,3.47-8.84Z" style="fill:#263238"></path><rect x="305.62" y="206.76" width="33.33" height="43.39" transform="translate(-13.66 20.61) rotate(-3.59)" style="fill:#263238"></rect><rect x="312.9" y="204.59" width="15.8" height="4.79" transform="translate(654.13 393.1) rotate(176.35)" style="fill:#a6a6a6"></rect><polygon points="316.34 204.87 318.28 204.74 318.14 202.54 322.86 202.24 323 204.44 324.94 204.32 324.69 200.31 316.06 200.86 316.34 204.87" style="fill:#a6a6a6"></polygon><path d="M364.32,187.25c5.81,13.84,15.58,45.61,8.54,50.37-11.58,7.82-35.59,11.15-42.81,11.14-3.14,0-7.84-23.89-4.63-24.88,3.86-1.2,29.12-2.66,29.55-4.67.24-1.15.11-11.26,1.07-24C357.15,180.52,361.55,180.66,364.32,187.25Z" style="fill:#f7a9a0"></path><path d="M300.34,223.18a3.86,3.86,0,0,0,1.09,4.26,5.69,5.69,0,0,0-2.21,3.19c-.5,2.3,2.89,4.08,2.89,4.08a7,7,0,0,0-1.79,3.74c-.25,2.25,2.91,4.53,2.91,4.53a6.16,6.16,0,0,0,.5,4.28c1.94,3.46,8,3.75,11.83,4s14.95-2.75,17.12-3.1l1.63-24.66s-16.95-5.89-21.5-5.51C309,218.28,301.5,220.41,300.34,223.18Z" style="fill:#f7a9a0"></path><path d="M301.62,227.05c4-1.32,8.17-1.39,12.33-1.69.09,0,.1.14,0,.14-4.14.26-8.18,1.33-12.3,1.75A.1.1,0,0,1,301.62,227.05Z" style="fill:#263238"></path><path d="M302.21,234.39a11,11,0,0,1,2.86-.26c1,0,2,0,3.05,0,2,0,4.07.09,6.11.22.09,0,.1.14,0,.14q-3,0-6.09.06l-3,.13a12.52,12.52,0,0,1-2.87,0A.15.15,0,0,1,302.21,234.39Z" style="fill:#263238"></path><path d="M303.32,243a7.69,7.69,0,0,1,2.58-.1l2.79.07c1.85,0,3.71.07,5.56.05.1,0,.11.14,0,.14-1.88,0-3.77.1-5.65.12l-2.78,0a7.11,7.11,0,0,1-2.52-.21S303.28,243,303.32,243Z" style="fill:#263238"></path><path d="M334.16,222.21l4.18,27.28s29.58-5.19,36-12.41c5.77-6.48-5.81-41.46-8.77-48.45s-7.09-9.07-9,1-2.21,29-2.28,29.24S334.16,222.21,334.16,222.21Z" style="fill:#ebebeb"></path><path d="M343.08,234.27C342.8,232.2,341.56,224,341,222c0-.06-.12,0-.12,0,0,2.08,1.06,10.37,1.35,12.44.58,4.13,1.1,8.3,2.05,12.38,0,.08.16.07.15,0C344.28,242.62,343.65,238.43,343.08,234.27Z" style="fill:#263238"></path><path d="M355,207.35c.21-3.93.49-7.87.77-11.8,0-.07-.12-.08-.13,0-.34,2.18-.61,4.36-.82,6.56-.08-1.18-.13-2.36-.16-3.54,0-.09-.13-.08-.13,0a22.57,22.57,0,0,0,.19,4.57c-.12,1.33-.23,2.67-.31,4-.12,2-.46,10.59-.43,11.58-3.43.31-6.56,1-10,1.48-1.66.26-3.33.52-5,.81a41.41,41.41,0,0,0-5.1.87c-.09,0,.09.49.14.71s.17.12.16,0,0-.21,0-.29c.8,0,4.11-.55,5-.68l5-.76c3.39-.51,10.41-1.58,10.42-1.63C354.73,218.36,354.91,209.35,355,207.35Z" style="fill:#263238"></path><path d="M356.46,180.84c-.2.92-4.53,6.94-8.73,6.79-1.37,0-1.42-7.54-1.42-7.54l-.13-.55-1.82-7.73,9-5.93,1.3-.79s.36,2.15.78,4.82l.06.38c0,.15.06.3.08.44.06.4.13.8.19,1.21s.09.61.13.94.08.65.13,1A51.71,51.71,0,0,1,356.46,180.84Z" style="fill:#f7a9a0"></path><path d="M355.47,169.91a15.91,15.91,0,0,1-9.29,9.63l-1.82-7.73,9-5.93,1.3-.79S355.05,167.24,355.47,169.91Z" style="fill:#263238"></path><path d="M332.89,157.51c-4,13.35,3.57,17.24,6.45,18.09,2.62.78,11.62,3.08,16.94-9.79s.38-18.93-5.5-21S336.86,144.17,332.89,157.51Z" style="fill:#f7a9a0"></path><path d="M335.46,155.77c.32,0,.63,0,1,.06a1.6,1.6,0,0,0,1-.13.51.51,0,0,0,.16-.59,1.24,1.24,0,0,0-1.1-.59,1.76,1.76,0,0,0-1.26.31A.53.53,0,0,0,335.46,155.77Z" style="fill:#263238"></path><path d="M344.68,158.26a8.69,8.69,0,0,1-.86-.44,1.6,1.6,0,0,1-.79-.61.51.51,0,0,1,.17-.59,1.2,1.2,0,0,1,1.24,0,1.78,1.78,0,0,1,.92.91A.53.53,0,0,1,344.68,158.26Z" style="fill:#263238"></path><path d="M341.65,161s.05.06,0,.1c-.3.9-.49,2,.24,2.52,0,0,0,.07,0,.05C341,163.21,341.22,161.78,341.65,161Z" style="fill:#263238"></path><path d="M342.74,160.27c1.5.32.73,3.29-.65,3S341.49,160,342.74,160.27Z" style="fill:#263238"></path><path d="M343.28,160.58c.22.23.4.59.7.7s.7-.11,1-.35c0,0,.05,0,0,0-.14.57-.51,1.1-1.14,1s-.84-.67-.84-1.27C343.06,160.61,343.2,160.48,343.28,160.58Z" style="fill:#263238"></path><path d="M336.59,159.47s-.08,0-.09.06c-.2.93-.58,2-1.49,2.06,0,0,0,0,0,0C336.05,161.75,336.55,160.38,336.59,159.47Z" style="fill:#263238"></path><path d="M336,158.31c-1.45-.49-2.31,2.45-1,2.9S337.23,158.71,336,158.31Z" style="fill:#263238"></path><path d="M335.34,158.32c-.28.09-.59.31-.87.24s-.48-.46-.59-.82c0,0-.05,0-.06,0a1.16,1.16,0,0,0,.35,1.46c.46.24,1-.14,1.26-.66C335.48,158.47,335.45,158.28,335.34,158.32Z" style="fill:#263238"></path><path d="M339.81,168.54c-.26.17-.55.43-.89.38a2.43,2.43,0,0,1-.95-.44,0,0,0,0,0-.05,0,1.27,1.27,0,0,0,1.07.75,1,1,0,0,0,.91-.67S339.85,168.52,339.81,168.54Z" style="fill:#263238"></path><path d="M336.67,166.09a3.89,3.89,0,0,0,1.09,1.64,1.8,1.8,0,0,0,1,.4c.79.05,1-.61,1.09-1.22a4.16,4.16,0,0,0,0-1A5,5,0,0,1,336.67,166.09Z" style="fill:#263238"></path><path d="M337.76,167.73a1.8,1.8,0,0,0,1,.4c.79.05,1-.61,1.09-1.22A1.79,1.79,0,0,0,337.76,167.73Z" style="fill:#ff97b8"></path><path d="M336.88,164.2s-.56,1.32-.73,2c0,.06.13.13.35.21h0a3.18,3.18,0,0,0,3.29-.34c.06-.05,0-.14-.07-.12a4.73,4.73,0,0,1-3,.05c0-.19,1-2.22.93-2.26a6.09,6.09,0,0,0-1.56-.06c1.09-2.77,2.6-5.36,3.64-8.14a.09.09,0,0,0-.16-.08,49.2,49.2,0,0,0-4.29,8.59C335.13,164.37,336.59,164.24,336.88,164.2Z" style="fill:#263238"></path><path d="M355.45,165.49c-3.2-.66-2.1-5.69-2.1-5.69s-3.55-1.1-2.56-7a9,9,0,0,1-7.57,2.82c-1.07-.07,3-2,3-2s-5,2.89-12.43-.21c-.53-.22,2.39-8.14,9.07-9.63s11.82,1.27,14.76,5.92c0,0,4,3,3.62,7.33S356.69,165.74,355.45,165.49Z" style="fill:#263238"></path><path d="M354.85,170.74a3.2,3.2,0,0,1-.67,0,2.15,2.15,0,0,1-.65-.12,1.8,1.8,0,0,1-.73-.42,2.2,2.2,0,0,1-.43-.5,2.56,2.56,0,0,1-.36-.87l1.5-3.49s3.86-3.65,5.56-2.19S357.29,170.37,354.85,170.74Z" style="fill:#f7a9a0"></path><path d="M358,164.8a0,0,0,0,1,0,.07,5.93,5.93,0,0,0-3.76,3,1.29,1.29,0,0,1,2,0s0,.09-.06.08a1.45,1.45,0,0,0-1.67.17,7.61,7.61,0,0,0-1,1.11c-.1.13-.34,0-.25-.16l0,0C353.65,167.07,355.81,164.56,358,164.8Z" style="fill:#263238"></path><path d="M354.77,170.13a.64.64,0,0,1-.84.34.65.65,0,1,1,.84-.34Z" style="fill:#fff"></path><path d="M356.27,169.44a.46.46,0,0,1-.6.24.45.45,0,0,1-.24-.59.46.46,0,0,1,.6-.25A.46.46,0,0,1,356.27,169.44Z" style="fill:#fff"></path><path d="M333.87,149.19s7.3-14.89,20.62-8.48,6.25,21.41,6.25,21.41Z" style="fill:#FFC727"></path><rect x="331.28" y="154.48" width="32.04" height="2.35" transform="translate(101.82 -135.19) rotate(25.69)" style="fill:#FFC727"></rect><polygon points="347.6 154.49 341.59 151.6 350.05 137.63 356.06 140.53 347.6 154.49" style="fill:#FFC727"></polygon><polygon points="347.6 154.49 341.59 151.6 350.05 137.63 356.06 140.53 347.6 154.49" style="opacity:0.1"></polygon></g><g id="freepik--character-1--inject-2"><path d="M96.8,169.21c-14.3,8.08-40.32,32.7-38.41,39.54,3.85,13.8,21.13,32.82,25.72,36.56,2.68,2.17,24.06-15.17,21.54-17.86-2.94-3.14-21.18-20.16-21.22-21.84,0-1.28,10.38-15,18.06-26.61C111.4,165.5,103.61,165.35,96.8,169.21Z" style="fill:#c95f50"></path><path d="M102.83,225.62s8.81,5.67,14.41,9.65c3.12,2.22,8.12,6.51,9.67,9.19,2.31,4,9.42,22.24,5,24.06-4,1.65-8.08-14.8-8.08-14.8s5.62,16.23.47,17.33S117,253,117,253s5.4,16.8-.08,17.1c-4.15.22-7.1-17.05-7.1-17.05s4.54,14.47.29,14.89c-4.7.46-8.43-15.32-8.43-15.32-11-.76-17.53-5.14-19.57-10.76C81.72,240.69,102.83,225.62,102.83,225.62Z" style="fill:#c95f50"></path><path d="M122.27,248c.73,1.88,1.48,3.78,2,5.72s1,3.9,1.43,5.89a34.67,34.67,0,0,1,.73,7.85c-.24-4.69-2.14-11.67-2.7-13.61s-1-3.9-1.57-5.84C122.18,248,122.26,247.94,122.27,248Z" style="fill:#263238"></path><path d="M115.23,249.88c.83,2.44,1.74,4.84,2.46,7.32s1.17,4.87,1.72,7.38c0,.2-.08.16-.13,0-.64-2.48-1.43-4.73-2.1-7.21s-1.25-5-2-7.44C115.16,249.86,115.22,249.84,115.23,249.88Z" style="fill:#263238"></path><path d="M108.89,250.42a57.33,57.33,0,0,1,2.9,11.48c0,.19-.11.12-.16-.08-.89-3.83-1.56-6.84-2.87-11.35C108.74,250.4,108.86,250.34,108.89,250.42Z" style="fill:#263238"></path><path d="M101.31,222.67,80,244.63S55.9,216.17,57.37,207s25-30.65,37.84-37.77,13.94.17,8.22,9.79-18.23,26.59-18,27.06S101.31,222.67,101.31,222.67Z" style="fill:#ebebeb"></path><path d="M86.82,229.34c1.53-1.44,3-2.9,4.52-4.37.72-.7,1.44-1.4,2.13-2.13s1.58-1.53,2.27-2.36a.06.06,0,0,0-.08-.09c-.87.64-1.66,1.43-2.49,2.12s-1.51,1.33-2.25,2c-1.56,1.41-3.11,2.81-4.63,4.25-3.05,2.88-6,5.83-8.93,8.84a.08.08,0,0,0,.11.11C80.64,235,83.77,232.2,86.82,229.34Z" style="fill:#263238"></path><path d="M103.43,179.06c-5.71,9.62-18.24,26.59-18,27.06s15.86,16.55,15.86,16.55L80,244.64s-11.13-13.18-17.8-24.48l43.06-53.33C107.86,168.26,106.89,173.23,103.43,179.06Z" style="fill:#c7c7c7"></path><path d="M61.68,383.21s-1,39.61-1,39.64c0,7.32.17,13.74.56,17a.09.09,0,0,0,0,.05,5.13,5.13,0,0,0,.54,2.26l.05.05c2.18,1.47,60.7,3,62.76,2.35s.41-6.55-1.81-8.42-24.38-12.47-24.38-12.47l.64-39.6Z" style="fill:#c95f50"></path><path d="M60.61,415s.07,7.84.07,7.87c0,7.32.17,13.74.56,17a.09.09,0,0,0,0,.05,10,10,0,0,0,.54,2.26l.05.05c2.18,1.47,60.7,3,62.76,2.35s.41-6.55-1.81-8.42-24.38-12.47-24.38-12.47l0-8Z" style="fill:#fff"></path><path d="M102,423.74c-3.9-.64-8.64.05-11.54,2.88-.12.11,0,.27.17.23A54.46,54.46,0,0,1,102,424.23.25.25,0,0,0,102,423.74Z" style="fill:#263238"></path><path d="M104.83,425.37c-3.89-.64-8.63.05-11.54,2.88-.11.11,0,.27.17.23a54.7,54.7,0,0,1,11.37-2.62A.25.25,0,0,0,104.83,425.37Z" style="fill:#263238"></path><path d="M107.67,427c-3.9-.64-8.63.05-11.54,2.88-.11.11.05.27.17.23a54.7,54.7,0,0,1,11.37-2.62A.25.25,0,0,0,107.67,427Z" style="fill:#263238"></path><path d="M124.6,444.61c-2.06.64-60.58-.88-62.77-2.35-.84-.55-1.11-9.09-1.15-19.41v-.33l37.76.56,0,.64s22.14,10.6,24.38,12.47S126.66,444,124.6,444.61Z" style="fill:#37474f"></path><path d="M60.68,422.52v.33c0,10.32.31,18.86,1.15,19.41,1,.67,13.68,1.35,27.38,1.84,16.41.58,34.27.87,35.39.52,2.06-.63.4-6.56-1.81-8.43s-24.38-12.47-24.38-12.47l0-.64-12.6-.18Z" style="fill:#FFC727"></path><path d="M124,442.33c-9.86-.5-49.67-1.58-59.45-1.32-.08,0-.08.05,0,.06,9.76.71,49.57,1.46,59.44,1.42C124.2,442.49,124.2,442.34,124,442.33Z" style="fill:#263238"></path><path d="M85.85,422.9c.93,6.32,2.33,15.64,3.36,21.2,16.41.58,34.27.87,35.39.52,2.06-.63.4-6.56-1.81-8.43s-24.38-12.47-24.38-12.47l0-.64Z" style="opacity:0.1"></path><path d="M57.27,423.06l42.35.4s2.4-68.94,2.58-91.94c.21-26.26-1.28-105-1.28-105H69.26s-8.49,17.36-3.64,36.9L67,333.66Z" style="fill:#37474f"></path><path d="M60.41,415.65a31.66,31.66,0,0,1,3.37-.27c1.26-.09,2.5-.18,3.76-.24,2.41-.1,4.81-.14,7.23-.15,4.86,0,9.72,0,14.58.17,2.77.09,5.53.2,8.29.35a.09.09,0,0,1,0,.18c-4.82.17-9.64.25-14.47.34s-9.64.19-14.45.1c-1.39,0-2.77,0-4.15-.12s-2.79,0-4.14-.2C60.35,415.8,60.32,415.66,60.41,415.65Z" style="fill:#263238"></path><path d="M96.57,377.59c.49-11.4.86-22.81,1.17-34.22q.93-34.22.49-68.46c-.16-12.8-.5-25.6-.88-38.4,0-.15.22-.14.22,0,1.22,22.92,1.68,45.87,1.7,68.82S98.82,351,97.7,373.78c-.64,12.79-1.42,25.59-2.62,38.35a.09.09,0,1,1-.17,0C95.42,400.61,96.07,389.1,96.57,377.59Z" style="fill:#263238"></path><path d="M107,389.5s.32,38.29.32,38.31c0,7.32.18,13.74.56,17.06a.11.11,0,0,0,0,.05,5.08,5.08,0,0,0,.55,2.26s0,0,0,.05c2.19,1.47,60.71,3,62.76,2.35s.42-6.55-1.81-8.42S145,428.68,145,428.68l-.69-38.26Z" style="fill:#c95f50"></path><path d="M107.24,420s.06,7.84.06,7.86c0,7.32.18,13.74.56,17.06a.11.11,0,0,0,0,.05,9.74,9.74,0,0,0,.55,2.26s0,0,0,.05c2.19,1.47,60.71,3,62.76,2.35s.42-6.55-1.81-8.42S145,428.68,145,428.68l0-8Z" style="fill:#fff"></path><path d="M148.62,428.71c-3.9-.65-8.63.05-11.54,2.88-.11.11,0,.27.17.23a54.7,54.7,0,0,1,11.37-2.62A.25.25,0,0,0,148.62,428.71Z" style="fill:#263238"></path><path d="M151.46,430.34c-3.9-.65-8.63.05-11.54,2.88-.11.11,0,.27.17.23a54.46,54.46,0,0,1,11.36-2.62A.25.25,0,0,0,151.46,430.34Z" style="fill:#263238"></path><path d="M154.3,432c-3.9-.64-8.64.06-11.54,2.89-.12.11,0,.27.17.22a54.44,54.44,0,0,1,11.36-2.61A.25.25,0,0,0,154.3,432Z" style="fill:#263238"></path><path d="M171.23,449.58c-2.07.64-60.58-.88-62.77-2.35-.84-.55-1.12-9.09-1.16-19.42,0-.1,0-.21,0-.32l37.76.56,0,.64s22.14,10.6,24.37,12.47S173.29,449,171.23,449.58Z" style="fill:#FFC727"></path><path d="M170.62,447.3c-9.86-.5-49.66-1.58-59.44-1.32-.08,0-.08,0,0,.06,9.76.7,49.58,1.46,59.45,1.42C170.83,447.46,170.83,447.31,170.62,447.3Z" style="fill:#263238"></path><path d="M87.63,267s17.37,54.75,17.69,64.82c.27,8.58-.83,96.61-.83,96.61l44,.27s-3.71-89.78-4.4-98.73c-1.28-16.71-15.93-62.61-26.4-103.5H70.25s.41,21.41,10.15,36.9C80.4,263.38,84.81,265.42,87.63,267Z" style="fill:#37474f"></path><path d="M106.82,420.34c5.08-.15,10.35-.3,15.43-.17s10.1.2,15.13.5c2.85.17,5.7.27,8.55.55a.08.08,0,0,1,0,.15c-5.08.3-10.18.24-15.26.19s-10.09-.1-15.13-.33c-2.85-.13-5.7-.28-8.55-.47C106.68,420.73,106.52,420.35,106.82,420.34Z" style="fill:#263238"></path><path d="M116.44,252.28c1.57,5.23,2.89,10.54,4.29,15.82s2.83,10.64,4.23,16c2.71,10.29,5.39,20.61,7.42,31.07A188.41,188.41,0,0,1,135.9,347c.23,10.9,0,21.82-.07,32.72s-.17,21.92-.36,32.88c0,1.37-.05,2.73-.1,4.09a.1.1,0,0,1-.2,0c-.3-10.9-.14-21.83-.11-32.73s.18-21.82.09-32.73a196.47,196.47,0,0,0-2.79-32.3c-1.84-10.49-4.43-20.84-7.11-31.14q-2.3-8.82-4.6-17.63c-1.53-5.92-3.18-11.83-4.53-17.79A.17.17,0,0,1,116.44,252.28Z" style="fill:#263238"></path><path d="M98.51,268.07a38.59,38.59,0,0,1-6.53-.6,63.09,63.09,0,0,1-6.33-1.75,49.75,49.75,0,0,0-6.2-1,22,22,0,0,1-6.09-1.82c-.09,0-.16.1-.07.14a37.63,37.63,0,0,0,5.83,2.53c2.08.66,4.26.75,6.38,1.26a51.61,51.61,0,0,0,6.51,1.5,23.35,23.35,0,0,0,6.52-.11C98.62,268.2,98.59,268.07,98.51,268.07Z" style="fill:#263238"></path><path d="M101.28,311.62c-.41-1.62-.81-3.25-1.25-4.86-.89-3.27-1.79-6.54-2.78-9.78-2-6.44-3.81-12.92-5.89-19.33-1.18-3.63-2.23-7.31-3.62-10.87a.07.07,0,0,0-.14,0c.7,3.32,1.68,6.57,2.56,9.85s1.82,6.53,2.77,9.78c1.87,6.47,3.71,12.95,5.76,19.37q.86,2.7,1.78,5.37c.64,1.83,1.13,3.71,1.9,5.48a.08.08,0,1,0,.15,0C102.23,314.93,101.71,313.29,101.28,311.62Z" style="fill:#263238"></path><path d="M114,177.73c-3.21.06-8-6.27-9.26-10.5a64.65,64.65,0,0,1,2-6.2c.63-2,1.28-4.21,1.73-6.29l12.33,6a33.6,33.6,0,0,0-3,7.69,5.65,5.65,0,0,0-.1.88.71.71,0,0,1,0,.14C117.59,171.12,117.12,177.67,114,177.73Z" style="fill:#c95f50"></path><path d="M117.69,169.29a.81.81,0,0,1,0,.15,8.14,8.14,0,0,1-1.36-.22c-7.59-2-7.73-11-7.51-14.3l12,5.82a33.65,33.65,0,0,0-3,7.68A5.67,5.67,0,0,0,117.69,169.29Z" style="fill:#263238"></path><path d="M108.3,139.06c-2.12,4.46-1.67,18.31,1.2,21.82,4.16,5.08,12,6.68,16.55,1.44,4.43-5.07,3.53-23.12.23-26.41C121.41,131.07,111.44,132.48,108.3,139.06Z" style="fill:#c95f50"></path><path d="M120.75,149.25s-.07,0-.07.08c0,.93-.07,2-.91,2.33,0,0,0,.06,0,.06C120.81,151.56,120.94,150.13,120.75,149.25Z" style="fill:#263238"></path><path d="M119.9,148.28c-1.5-.09-1.58,2.93-.18,3S121.16,148.36,119.9,148.28Z" style="fill:#263238"></path><path d="M126,149.36s.08,0,.07.09c0,.93,0,2,.88,2.34,0,0,0,.06,0,.05C125.91,151.67,125.79,150.24,126,149.36Z" style="fill:#263238"></path><path d="M126.85,148.41c1.51-.08,1.55,2.94.16,3S125.59,148.47,126.85,148.41Z" style="fill:#263238"></path><path d="M118.75,146.88a11.46,11.46,0,0,0,1.17-.39,2,2,0,0,0,1.13-.61.65.65,0,0,0-.08-.78,1.59,1.59,0,0,0-1.59-.2,2.28,2.28,0,0,0-1.36,1A.68.68,0,0,0,118.75,146.88Z" style="fill:#263238"></path><path d="M128.06,146.92a11.62,11.62,0,0,1-1.19-.34,2,2,0,0,1-1.15-.58.63.63,0,0,1,0-.77,1.58,1.58,0,0,1,1.58-.26,2.28,2.28,0,0,1,1.4.92A.68.68,0,0,1,128.06,146.92Z" style="fill:#263238"></path><path d="M119.55,157.71c.22.22.44.53.77.56a2.35,2.35,0,0,0,1-.21s.06,0,0,.05a1.24,1.24,0,0,1-1.2.48,1,1,0,0,1-.71-.84A.05.05,0,0,1,119.55,157.71Z" style="fill:#263238"></path><path d="M120.6,154.94a3.17,3.17,0,0,0,2.09,1.46,3.64,3.64,0,0,0,1.14.08.78.78,0,0,0,.22,0l.21,0a.23.23,0,0,0,.19-.21h0a.34.34,0,0,0,0-.1h0V156c0-.72,0-1.81,0-1.81.26.14,1.58.77,1.57.4a48.25,48.25,0,0,0-1-9.65.09.09,0,0,0-.18,0c0,3,.5,6,.54,9a5.76,5.76,0,0,0-1.49-.49c-.11,0,.12,2.11.07,2.43v0a4.44,4.44,0,0,1-3.27-1.11C120.62,154.8,120.55,154.86,120.6,154.94Z" style="fill:#263238"></path><path d="M123.42,156.11a3.8,3.8,0,0,1-1.54,1.13,1.67,1.67,0,0,1-1,0c-.74-.21-.74-.9-.59-1.48a4.41,4.41,0,0,1,.36-.89A4.86,4.86,0,0,0,123.42,156.11Z" style="fill:#263238"></path><path d="M121.88,157.24a1.67,1.67,0,0,1-1,0c-.74-.21-.74-.9-.59-1.48A1.75,1.75,0,0,1,121.88,157.24Z" style="fill:#ff97b8"></path><path d="M127.4,137.79a1.45,1.45,0,0,0-1.7-.42c-.94.38-1,1.48-2.51,1.91s-4.94-2.73-8-1.88-3.91,4.55-4.07,7.35-2,7-4,7c-.41-4.85-.08-10.17,1.07-12.64,3.07-6.6,13.11-8.16,18-3.36A6.43,6.43,0,0,1,127.4,137.79Z" style="fill:#263238"></path><path d="M109.54,150.49s-2.49-4.77-4.62-3.94-.64,7.47,1.57,8.64a2.39,2.39,0,0,0,3.34-.86Z" style="fill:#c95f50"></path><path d="M105.39,148.44s0,.05,0,.06a6,6,0,0,1,2.61,4.15,1.32,1.32,0,0,0-1.91-.61.05.05,0,0,0,0,.09,1.5,1.5,0,0,1,1.54.72,7.57,7.57,0,0,1,.6,1.4c0,.15.33.11.29-.07v0C108.85,152.07,107.6,148.94,105.39,148.44Z" style="fill:#263238"></path><path d="M130.6,141.12s-2.16-14.4-15-12.57-10.91,16.26-10.91,16.26Z" style="fill:#FFC727"></path><rect x="103.57" y="141.93" width="28.14" height="2.06" transform="translate(254.25 267.91) rotate(171.9)" style="fill:#FFC727"></rect><polygon points="117.7 141.91 123.5 141.09 120.12 127.15 114.32 127.98 117.7 141.91" style="fill:#FFC727"></polygon><polygon points="117.7 141.91 123.5 141.09 120.12 127.15 114.32 127.98 117.7 141.91" style="opacity:0.1"></polygon><polygon points="103.71 167.13 104.39 161.97 118.64 170.18 119.06 175.24 103.71 167.13" style="fill:#ebebeb"></polygon><path d="M62.61,236.27c.11.19,60,12.46,60.67,11.95.94-.71,4.13-61.65-5.28-75.22-2.32-3.34-11.29-8.06-14.6-6.51-8.57,4-14.77,14.65-18.68,20.78-2.89,4.55-6.84,12.49-10.6,20.68C67.92,221.45,62.23,235.61,62.61,236.27Z" style="fill:#FFC727"></path><path d="M112.73,171.31c-8.73.74-6.59,25.69,3.47,24.84S121.47,170.57,112.73,171.31Z" style="fill:#ebebeb"></path><path d="M124.31,234.49c0,.62,0,1.23,0,1.81L66.89,224.51c.23-.54.46-1.1.69-1.66Z" style="fill:#fff"></path><path d="M124.17,238.13c0,.62-.06,1.22-.1,1.79l-58.56-12c.21-.54.43-1.1.68-1.67Z" style="fill:#fff"></path><path d="M113.38,186.81c7.88,14,23.85,39.34,35.14,41,12,1.74,28.8-10.19,35.91-13.74,3-1.5-11.89-21.09-15.41-20.3s-14.5,8.84-17.19,8.93-18.35-16-29.38-24.65C109.49,167.84,107,175.46,113.38,186.81Z" style="fill:#c95f50"></path><path d="M174.07,169s-4.75-4.26-7.4-.79,2.74,6.91,2.74,6.91Z" style="fill:#455a64"></path><path d="M204.93,202.11h0l6.16,1,2,.36-.87-1.87L209.6,196h0l-35.72-27.15L169.2,175l35.74,27.15Z" style="fill:#455a64"></path><polygon points="211.1 203.16 213.13 203.51 212.26 201.63 211.1 203.16" style="fill:#37474f"></polygon><polygon points="170.04 176.4 175.49 169.25 174.07 168.17 168.62 175.32 170.04 176.4" style="fill:#37474f"></polygon><polygon points="171.61 177.59 177.06 170.44 175.64 169.37 170.19 176.51 171.61 177.59" style="fill:#37474f"></polygon><polygon points="177.06 170.44 175.3 172.75 189.2 181.3 189.79 180.41 177.06 170.44" style="fill:#37474f"></polygon><path d="M192.77,174.31a4,4,0,0,1,1.82,4.13,5.9,5.9,0,0,1,3.82,1.18c1.86,1.55.24,5.15.24,5.15a7.21,7.21,0,0,1,3.83,1.88c1.63,1.66.52,5.52.52,5.52a6.37,6.37,0,0,1,2.32,3.78c.62,4-4.09,8.1-7.06,10.72s-13.85,7.27-15.83,8.36l-17.55-19.32s6.57-12.36,14.48-17.71C182.65,175.78,190.07,172.8,192.77,174.31Z" style="fill:#c95f50"></path><path d="M194.19,178.26c-4.08,1.46-7.49,4.06-11.05,6.45a.08.08,0,0,0,.08.13c3.51-2.43,7.46-4.12,11.06-6.4A.1.1,0,0,0,194.19,178.26Z" style="fill:#263238"></path><path d="M198.37,184.57a11.42,11.42,0,0,0-2.48,1.6c-.84.63-1.66,1.27-2.48,1.93-1.64,1.31-3.24,2.65-4.81,4.05-.06.06,0,.18.09.12,1.63-1.3,3.28-2.58,5-3.81.84-.62,1.69-1.23,2.54-1.83a13.38,13.38,0,0,0,2.33-1.82A.15.15,0,0,0,198.37,184.57Z" style="fill:#263238"></path><path d="M202.93,192.23a8,8,0,0,0-2.16,1.56c-.73.61-1.46,1.22-2.2,1.82-1.48,1.21-3,2.42-4.48,3.57-.08.06,0,.18.08.12,1.55-1.16,3.12-2.31,4.66-3.49l2.26-1.75a7.26,7.26,0,0,0,1.9-1.76A0,0,0,0,0,202.93,192.23Z" style="fill:#263238"></path><path d="M163.71,195.54l14.5,25.62S156,233,144.57,227.94s-27.79-31.31-33-43.14.19-15.9,10.47-7.68,28.4,24,29.14,24.39S163.71,195.54,163.71,195.54Z" style="fill:#ebebeb"></path><path d="M165.23,210.47c-1-1.85-2-3.68-3-5.51-.49-.88-1-1.76-1.48-2.62s-1.06-1.93-1.68-2.81a.06.06,0,0,0-.1.05c.38,1,.93,2,1.38,3s.88,1.8,1.33,2.7c.94,1.87,1.88,3.74,2.87,5.59,2,3.7,4,7.33,6.16,10.95a.08.08,0,0,0,.14-.08C169,217.93,167.18,214.18,165.23,210.47Z" style="fill:#263238"></path><path d="M124.21,206.54a52.89,52.89,0,0,1-2.91-4.86l-2.75-4.81c-1.87-3.22-3.7-6.47-5.57-9.69,0,0-.07,0-.06,0,.87,2.07,1.83,4.09,2.85,6.08l-.27-.37c-.6-.75-1.22-1.49-1.83-2.22,0,0-.11,0-.08.06.56.81,1.11,1.62,1.7,2.4.37.49.77,1,1.16,1.44.46.86.93,1.71,1.42,2.56q1.41,2.46,3,4.81c1,1.56,2.24,3,3.21,4.66C124.13,206.71,124.27,206.62,124.21,206.54Z" style="fill:#263238"></path></g></svg>