<svg id="Camada_1" data-name="Camada 1" xmlns="http://www.w3.org/2000/svg" viewBox="0 0 300 295.18"><path d="M300,150c0,12.51-17.44,22.59-20.57,34.13-3.25,11.94,6.64,29.23.49,39.68-6.23,10.6-26.45,10.79-35.2,19.39s-8.93,28.5-19.7,34.64-28.2-3.68-40.33-.49c-11.73,3.08-22,20.24-34.69,20.24s-23-17.16-34.69-20.24c-12.13-3.19-29.71,6.53-40.33.49-10.77-6.14-11-26-19.7-34.64s-29-8.79-35.2-19.39c-6.15-10.45,3.74-27.74.49-39.68C17.44,172.59,0,162.51,0,150s17.44-22.59,20.57-34.13c3.25-11.94-6.64-29.23-.49-39.68S46.53,65.4,55.28,56.8,64.21,28.3,75,22.16c10.62-6,28.2,3.68,40.33.49C127,19.57,137.29,2.41,150,2.41s23,17.16,34.69,20.24c12.13,3.19,29.71-6.53,40.33-.49s11,26,19.7,34.64,29,8.79,35.2,19.39-3.74,27.74-.49,39.68C282.56,127.41,300,137.49,300,150Z" transform="translate(0 -2.41)" style="fill:#e4b826"/><path d="M150,281.44l-1.51-1.19c-1.55-1.22-3.19-2.6-4.17-3.43-6.39-5.38-14.33-12.07-24.84-14.83a46.46,46.46,0,0,0-11.92-1.46,98.37,98.37,0,0,0-17.7,2l-.13,0c-1.54.27-3.11.56-4.54.78l-1.94.31-.7-1.81c-.66-1.69-1.3-3.47-1.68-4.53C78,249.45,74.5,239.63,66.7,232S48.92,220.81,40.89,218c-1.07-.38-2.87-1-4.59-1.65l-1.83-.69.31-1.91c.27-1.71.6-3.47.8-4.55,1.55-8.31,3.48-18.62.6-29.19-2.8-10.34-9.61-18.16-15.08-24.45-.83-1-2.23-2.56-3.48-4.09L16.41,150l1.21-1.49c1.25-1.53,2.65-3.13,3.48-4.09,5.47-6.29,12.28-14.11,15.08-24.45,2.88-10.57,1-20.88-.59-29.16-.2-1.08-.53-2.85-.81-4.58l-.31-1.91,1.83-.69C38,83,39.82,82.35,40.9,82c8-2.79,18-6.27,25.8-13.94S78,50.54,80.87,42.65c.38-1.07,1-2.84,1.68-4.53l.71-1.81,1.93.31c1.45.23,3,.51,4.62.8a98.44,98.44,0,0,0,17.75,2A46.46,46.46,0,0,0,119.48,38c10.51-2.76,18.46-9.46,24.85-14.84,1.06-.9,2.64-2.22,4.16-3.42l1.51-1.2,1.51,1.2c1.56,1.23,3.19,2.6,4.16,3.42C162.06,28.55,170,35.25,180.52,38a46,46,0,0,0,11.92,1.46,98.37,98.37,0,0,0,17.7-2c1.6-.29,3.21-.58,4.67-.81l1.93-.31.71,1.8c.66,1.7,1.3,3.48,1.68,4.55C222,50.55,225.5,60.37,233.3,68S251.08,79.19,259.1,82c1.09.38,2.88,1,4.6,1.65l1.83.69-.31,1.9c-.27,1.7-.59,3.44-.79,4.52-1.56,8.35-3.49,18.65-.62,29.23,2.81,10.34,9.62,18.16,15.08,24.44.85,1,2.25,2.59,3.49,4.1l1.21,1.49-1.21,1.49c-1.25,1.52-2.65,3.13-3.48,4.09-5.48,6.3-12.28,14.12-15.09,24.45-2.87,10.58-.94,20.88.6,29.17.2,1.07.53,2.84.81,4.58l.31,1.9-1.83.69c-1.72.65-3.52,1.28-4.6,1.65-8,2.79-18,6.26-25.8,13.94S222,249.45,219.13,257.35c-.4,1.13-1,2.87-1.68,4.53l-.71,1.81-1.93-.31c-1.5-.23-3.13-.53-4.66-.81a98.49,98.49,0,0,0-17.72-2A46,46,0,0,0,180.52,262c-10.51,2.76-18.46,9.46-24.85,14.84-1.06.89-2.63,2.22-4.16,3.42Zm-42.44-25.68a51.21,51.21,0,0,1,13.17,1.63c11.57,3,20,10.12,26.74,15.81.63.54,1.55,1.31,2.53,2.12.95-.78,1.84-1.53,2.51-2.1,6.77-5.7,15.19-12.79,26.76-15.83a50.75,50.75,0,0,1,13.16-1.63,102.24,102.24,0,0,1,18.6,2.13l2.59.46c.37-1,.69-1.88.93-2.53,3-8.41,6.75-18.79,15.32-27.23s19.13-12.11,27.61-15.06l2.64-.93c-.18-1-.35-1.9-.47-2.54-1.63-8.75-3.67-19.65-.51-31.26,3.09-11.38,10.29-19.65,16.07-26.3l2.15-2.5c-.81-1-1.6-1.86-2.14-2.49-5.79-6.65-13-14.93-16.08-26.31C256,109.59,258,98.7,259.65,90c.13-.69.3-1.58.47-2.55l-2.63-.93c-8.48-3-19-6.62-27.62-15.06s-12.3-18.82-15.3-27.16c-.23-.66-.57-1.59-.95-2.6-.85.14-1.72.3-2.59.46a102.34,102.34,0,0,1-18.59,2.13,50.77,50.77,0,0,1-13.17-1.63c-11.57-3-20-10.13-26.74-15.82L150,24.68c-.95.78-1.84,1.53-2.5,2.09-6.79,5.71-15.2,12.8-26.77,15.84a50.77,50.77,0,0,1-13.17,1.63A102,102,0,0,1,89,42.11l-2.6-.46c-.38,1-.71,1.93-.94,2.58-3,8.35-6.74,18.74-15.31,27.18S51,83.52,42.52,86.47l-2.64.93c.18,1,.35,1.9.47,2.55C42,98.7,44,109.59,40.86,121.2c-3.09,11.39-10.29,19.66-16.08,26.32L22.64,150l2.14,2.49c5.79,6.65,13,14.93,16.08,26.31,3.16,11.61,1.12,22.5-.51,31.25l-.47,2.55,2.63.93c8.48,2.95,19,6.62,27.62,15.06s12.3,18.82,15.3,27.17c.24.65.57,1.58.95,2.59l2.48-.44.11,0A102.23,102.23,0,0,1,107.56,255.76Z" transform="translate(0 -2.41)" style="fill:#011b24"/><g id="logo_v2" data-name="logo v2"><g id="logo_v1" data-name="logo v1"><path d="M110,188.23c.91-7.15,5-11.3,12.26-12.41l-1.08,0A10.71,10.71,0,0,0,110,187.16Z" transform="translate(0 -2.41)" style="fill:#011b24"/><path d="M187.94,202.47c-.91,7.15-5,11.3-12.26,12.4l1.08,0A10.71,10.71,0,0,0,188,203.54Z" transform="translate(0 -2.41)" style="fill:#011b24"/><path d="M75.1,92.58a3.18,3.18,0,0,1,.51-.53,3,3,0,0,1,.31-.22l.17-.1.28-.16c.19-.11.38-.23.56-.32l1.1-.57c.73-.34,1.47-.72,2.21-1,1.47-.65,3-1.2,4.47-1.76L87,87.15l1.14-.37,1.14-.33c1.52-.44,3-.9,4.58-1.27a162.09,162.09,0,0,1,18.58-3.51c3.11-.48,6.24-.75,9.36-1.09s6.26-.48,9.39-.73,6.26-.27,9.39-.39l9.39-.15c3.13,0,6.26.09,9.39.13.78,0,1.57,0,2.35.07l2.35.1,4.7.2c1.56.07,3.13.22,4.69.33l4.69.36c3.13.34,6.26.6,9.37,1.07a160.09,160.09,0,0,1,18.59,3.5c.77.2,1.54.39,2.3.6l2.29.67c1.52.43,3,1,4.54,1.48s3,1.12,4.47,1.79c.74.31,1.47.69,2.2,1,.36.18.73.39,1.09.59a6.22,6.22,0,0,1,.56.32l.28.17.33.21.08.06a1.81,1.81,0,0,1,.85,1.43h0c.38,3.77.59,7.46.76,11.19s.25,7.44.25,11.16c0,7.44-.25,14.89-.84,22.31-1.22,14.84-3.64,29.69-8.41,43.95a106.85,106.85,0,0,1-9.28,20.63,72.65,72.65,0,0,1-14.46,17.71,59.8,59.8,0,0,1-20,11.56,68.63,68.63,0,0,1-11.3,2.72l-2.87.37c-1,.12-1.93.17-2.89.25l-1.44.11-1.45,0c-1,0-1.92.05-2.89.06a81.28,81.28,0,0,1-11.54-.87,69.79,69.79,0,0,1-11.28-2.76,60.52,60.52,0,0,1-20-11.6A73.52,73.52,0,0,1,93,202.6,107.73,107.73,0,0,1,83.6,182c-4.85-14.24-7.37-29.07-8.69-43.9q-.94-11.13-1-22.3c0-3.73,0-7.45.18-11.17.07-1.86.15-3.72.26-5.58l.19-2.79.1-1.4.06-.71,0-.17c0-.08,0-.06,0-.31A3.85,3.85,0,0,1,75.1,92.58Zm3.5,2.16a.79.79,0,0,0,.26-.42c0-.14,0,0,0,0v.17l-.06.68-.11,1.36-.18,2.74c-.11,1.82-.19,3.66-.26,5.49q-.19,5.49-.18,11c0,7.34.35,14.67,1,22,1.29,14.59,3.77,29.13,8.48,42.94a105.18,105.18,0,0,0,9,19.82,69.76,69.76,0,0,0,13.68,16.7A56.22,56.22,0,0,0,128.8,228a65.49,65.49,0,0,0,10.55,2.58,77.86,77.86,0,0,0,10.91.82l2.74-.06,1.37,0,1.37-.1c.9-.08,1.82-.12,2.72-.23l2.71-.36a64.44,64.44,0,0,0,10.56-2.53,55.48,55.48,0,0,0,18.6-10.77A68.34,68.34,0,0,0,204,200.64a103.24,103.24,0,0,0,8.92-19.85c4.63-13.84,7-28.4,8.22-43,.58-7.3.84-14.64.83-22,0-3.67-.1-7.34-.25-11s-.38-7.35-.74-10.93h0l.93,1.49-.4-.19L221,95c-.33-.13-.65-.28-1-.41-.69-.25-1.36-.53-2.07-.75-1.4-.5-2.85-.91-4.29-1.33s-2.9-.78-4.39-1.09l-2.21-.5c-.74-.15-1.49-.28-2.24-.42L202.59,90l-2.26-.37c-1.5-.23-3-.5-4.51-.67l-4.54-.6-4.56-.48c-.76-.07-1.52-.17-2.28-.22l-2.29-.17-4.58-.37L173,86.89c-1.54-.07-3.06-.19-4.6-.22-3.07-.08-6.13-.23-9.21-.28L150,86.32l-9.22.08c-3.07.08-6.14.22-9.21.29s-6.13.3-9.19.51l-4.58.36c-.76.06-1.53.11-2.29.18l-2.28.24c-1.52.16-3,.29-4.56.48s-3,.41-4.54.59c-.76.09-1.51.21-2.26.33l-2.26.36c-1.51.22-3,.53-4.49.81-3,.53-5.93,1.25-8.86,2-1.44.41-2.89.82-4.29,1.3-.72.22-1.39.5-2.1.74l-1,.41a5.11,5.11,0,0,0-.47.21l-.24.1h0l.08,0a1.19,1.19,0,0,0,.18-.15A1.27,1.27,0,0,0,78.6,94.74Z" transform="translate(0 -2.41)" style="fill:#011b24"/><path d="M152.46,82.79c.14,7,.16,14.07-.1,21.13s-.76,14.12-1.73,21.17a114.73,114.73,0,0,1-4.7,21,72.86,72.86,0,0,1-4.24,10.11,52.94,52.94,0,0,1-6.18,9.33h0l0-4a42.69,42.69,0,0,0,7,6.91,33.41,33.41,0,0,0,8.58,4.8h0l.12.05a2,2,0,0,1,1.31,1.89l-.73,58.32h-2.68l-.73-58.32,1.42,1.93h0a38.14,38.14,0,0,1-10.25-4.52,47.78,47.78,0,0,1-8.65-7,2.84,2.84,0,0,1-.2-3.79l.16-.2h0a46.8,46.8,0,0,0,5.65-8.11,67.33,67.33,0,0,0,4.12-9.2,110.14,110.14,0,0,0,5-19.9c1.1-6.81,1.77-13.72,2.19-20.65s.58-13.9.6-20.87Z" transform="translate(0 -2.41)" style="fill:#011b24"/><path d="M96.73,137.75a17.36,17.36,0,0,1,6.17-9.09,17.6,17.6,0,0,1,10.91-3.56,18.38,18.38,0,0,1,10.79,3.68,17.66,17.66,0,0,1,6.32,8.94,1.8,1.8,0,0,1-1.24,2.25,1.83,1.83,0,0,1-2.08-.78l0,0a18.66,18.66,0,0,0-6-6.11,15.6,15.6,0,0,0-7.84-2.3A14.4,14.4,0,0,0,106,132.9a17.94,17.94,0,0,0-5.8,6.22l0,0a1.88,1.88,0,0,1-2.55.66A1.82,1.82,0,0,1,96.73,137.75Z" transform="translate(0 -2.41)" style="fill:#011b24"/><path d="M169.11,127.63a17.94,17.94,0,0,0,5.8,6.22,14.3,14.3,0,0,0,7.76,2.15,15.49,15.49,0,0,0,7.84-2.29,18.75,18.75,0,0,0,6-6.11l0,0a1.86,1.86,0,0,1,2.53-.59,1.81,1.81,0,0,1,.79,2.06,17.7,17.7,0,0,1-6.32,8.94,18.36,18.36,0,0,1-10.79,3.68,17.62,17.62,0,0,1-10.91-3.56,17.32,17.32,0,0,1-6.16-9.09,1.82,1.82,0,0,1,1.3-2.26,1.86,1.86,0,0,1,2.1.84Z" transform="translate(0 -2.41)" style="fill:#011b24"/><path d="M122.88,184.49c1,.68,2,1.43,3,2l.76.48c.25.16.52.3.77.44l.77.44.38.22.4.19a30.68,30.68,0,0,0,6.42,2.49c4.42,1.19,9.12,1.31,14.16,1.3,2.53,0,5.14,0,7.85.14a38.61,38.61,0,0,1,8.29,1.31,25.76,25.76,0,0,1,7.81,3.67,24.73,24.73,0,0,1,5.94,5.87,2,2,0,0,1-.5,2.82,2.07,2.07,0,0,1-2.32,0l-.13-.08c-.51-.34-1-.69-1.48-1s-1-.64-1.49-1-1-.57-1.51-.86-1-.51-1.54-.76a26.28,26.28,0,0,0-6.41-2c-4.45-.78-9.32-.57-14.54-.61-1.31,0-2.64,0-4-.11-.67,0-1.36-.09-2-.14s-1.37-.15-2.05-.22a35.65,35.65,0,0,1-8.21-2,29.74,29.74,0,0,1-7.42-4.08l-.42-.31-.4-.33-.79-.67c-.27-.23-.54-.45-.79-.68l-.73-.73a33.71,33.71,0,0,1-2.71-3,2,2,0,0,1,.3-2.84,2.08,2.08,0,0,1,2.45-.11Z" transform="translate(0 -2.41)" style="fill:#011b24"/></g></g></svg>